STARTFONT 2.1
COMMENT
COMMENT Converted from OpenType font "ibmplex.ttf" by "otf2bdf 3.0".
COMMENT
FONT -FreeType-IBM Plex Sans Thin-Medium-R-Normal--25-180-100-100-P-111-ISO10646-1
SIZE 18 100 100
FONTBOUNDINGBOX 33 32 -4 -5
STARTPROPERTIES 19
FOUNDRY "FreeType"
FAMILY_NAME "IBM Plex Sans Thin"
WEIGHT_NAME "Medium"
SLANT "R"
SETWIDTH_NAME "Normal"
ADD_STYLE_NAME ""
PIXEL_SIZE 25
POINT_SIZE 180
RESOLUTION_X 100
RESOLUTION_Y 100
SPACING "P"
AVERAGE_WIDTH 111
CHARSET_REGISTRY "ISO10646"
CHARSET_ENCODING "1"
FONT_ASCENT 25
FONT_DESCENT 6
COPYRIGHT "Copyright 2018 IBM Corp. All rights reserved."
_OTF_FONTFILE "ibmplex.ttf"
_OTF_PSNAME "IBMPlexSans-Thin"
ENDPROPERTIES
CHARS 826
STARTCHAR 0000
ENCODING 0
SWIDTH 0 0
DWIDTH 0 0
BBX 0 0 0 0
BITMAP
ENDCHAR
STARTCHAR 000D
ENCODING 13
SWIDTH 200 0
DWIDTH 5 0
BBX 0 0 0 0
BITMAP
ENDCHAR
STARTCHAR 0020
ENCODING 32
SWIDTH 200 0
DWIDTH 5 0
BBX 0 0 0 0
BITMAP
ENDCHAR
STARTCHAR 0021
ENCODING 33
SWIDTH 240 0
DWIDTH 6 0
BBX 2 17 2 0
BITMAP
80
80
80
80
80
80
80
80
80
80
80
80
00
00
00
00
C0
ENDCHAR
STARTCHAR 0022
ENCODING 34
SWIDTH 360 0
DWIDTH 9 0
BBX 5 7 2 12
BITMAP
88
88
88
88
88
88
88
ENDCHAR
STARTCHAR 0023
ENCODING 35
SWIDTH 680 0
DWIDTH 17 0
BBX 14 17 2 0
BITMAP
0420
0420
0420
0820
0840
7FFC
0840
0840
0840
1040
1080
FFF8
1080
1080
1080
2080
2100
ENDCHAR
STARTCHAR 0024
ENCODING 36
SWIDTH 520 0
DWIDTH 13 0
BBX 11 21 1 -1
BITMAP
0400
0400
3F80
4460
8400
8400
8400
8400
4400
3C00
0780
0440
0420
0420
0420
0420
8420
4440
3F80
0400
0400
ENDCHAR
STARTCHAR 0025
ENCODING 37
SWIDTH 880 0
DWIDTH 22 0
BBX 18 18 2 0
BITMAP
380000
C40200
820400
820800
820800
821000
822000
822000
844000
788F80
011040
011040
021040
041040
041040
081040
101040
100F80
ENDCHAR
STARTCHAR 0026
ENCODING 38
SWIDTH 640 0
DWIDTH 16 0
BBX 14 18 2 0
BITMAP
0E00
3180
4080
4040
4040
4080
2080
1300
0800
341C
4210
8120
80A0
8060
8020
8050
8088
7F04
ENDCHAR
STARTCHAR 0027
ENCODING 39
SWIDTH 200 0
DWIDTH 5 0
BBX 1 7 2 12
BITMAP
80
80
80
80
80
80
80
ENDCHAR
STARTCHAR 0028
ENCODING 40
SWIDTH 320 0
DWIDTH 8 0
BBX 4 22 3 -3
BITMAP
10
20
20
40
40
80
80
80
80
80
80
80
80
80
80
80
80
80
40
40
20
10
ENDCHAR
STARTCHAR 0029
ENCODING 41
SWIDTH 320 0
DWIDTH 8 0
BBX 5 22 1 -3
BITMAP
80
80
40
20
20
10
10
10
10
08
08
08
08
08
10
10
10
20
20
40
40
80
ENDCHAR
STARTCHAR 002A
ENCODING 42
SWIDTH 360 0
DWIDTH 9 0
BBX 9 8 0 11
BITMAP
0800
0800
0800
C980
3E00
1400
2400
2200
ENDCHAR
STARTCHAR 002B
ENCODING 43
SWIDTH 600 0
DWIDTH 15 0
BBX 11 12 2 2
BITMAP
0400
0400
0400
0400
0400
0400
FFE0
0400
0400
0400
0400
0400
ENDCHAR
STARTCHAR 002C
ENCODING 44
SWIDTH 240 0
DWIDTH 6 0
BBX 3 5 1 -4
BITMAP
60
20
40
40
80
ENDCHAR
STARTCHAR 002D
ENCODING 45
SWIDTH 360 0
DWIDTH 9 0
BBX 6 1 2 7
BITMAP
FC
ENDCHAR
STARTCHAR 002E
ENCODING 46
SWIDTH 240 0
DWIDTH 6 0
BBX 2 1 2 0
BITMAP
C0
ENDCHAR
STARTCHAR 002F
ENCODING 47
SWIDTH 280 0
DWIDTH 7 0
BBX 7 23 0 -4
BITMAP
02
02
04
04
04
08
08
08
08
10
10
10
10
20
20
20
20
40
40
40
80
80
80
ENDCHAR
STARTCHAR 0030
ENCODING 48
SWIDTH 600 0
DWIDTH 15 0
BBX 11 18 2 0
BITMAP
0E00
3180
4040
8040
8020
8020
8020
8020
8020
8020
8020
8020
8020
8020
8020
8040
4080
3F00
ENDCHAR
STARTCHAR 0031
ENCODING 49
SWIDTH 600 0
DWIDTH 15 0
BBX 12 17 2 0
BITMAP
0C00
1400
2400
C400
0400
0400
0400
0400
0400
0400
0400
0400
0400
0400
0400
0400
FFF0
ENDCHAR
STARTCHAR 0032
ENCODING 50
SWIDTH 600 0
DWIDTH 15 0
BBX 11 18 2 0
BITMAP
0E00
3180
4040
8040
0040
0040
0040
0040
0080
0080
0100
0200
0400
0800
1000
2000
4000
FFE0
ENDCHAR
STARTCHAR 0033
ENCODING 51
SWIDTH 600 0
DWIDTH 15 0
BBX 10 18 2 0
BITMAP
1E00
6180
8080
0040
0040
0040
0040
0080
0300
1D00
0080
0040
0040
0040
0040
0040
8080
7F00
ENDCHAR
STARTCHAR 0034
ENCODING 52
SWIDTH 600 0
DWIDTH 15 0
BBX 12 17 1 0
BITMAP
00C0
0140
0140
0240
0440
0440
0840
1040
1040
2040
4040
8040
8040
7FF0
0040
0040
0040
ENDCHAR
STARTCHAR 0035
ENCODING 53
SWIDTH 600 0
DWIDTH 15 0
BBX 11 17 2 0
BITMAP
7FC0
4000
4000
4000
4000
4000
4000
BF80
4040
0040
0040
0020
0020
0040
8040
C040
3F80
ENDCHAR
STARTCHAR 0036
ENCODING 54
SWIDTH 600 0
DWIDTH 15 0
BBX 11 17 2 0
BITMAP
0600
0800
1000
2000
2000
4000
4000
BF80
C040
8040
8020
8020
8020
8020
8040
4040
3F80
ENDCHAR
STARTCHAR 0037
ENCODING 55
SWIDTH 600 0
DWIDTH 15 0
BBX 11 17 2 0
BITMAP
FFE0
8040
8040
8080
0080
0100
0100
0100
0200
0200
0400
0400
0800
0800
1000
1000
1000
ENDCHAR
STARTCHAR 0038
ENCODING 56
SWIDTH 600 0
DWIDTH 15 0
BBX 11 18 2 0
BITMAP
0E00
3180
4040
8040
8020
8020
8040
4040
3B80
2480
C040
8020
8020
8020
8020
8020
4040
3F80
ENDCHAR
STARTCHAR 0039
ENCODING 57
SWIDTH 600 0
DWIDTH 15 0
BBX 11 18 2 0
BITMAP
0E00
3180
4040
8040
8020
8020
8020
8020
4020
60E0
1F40
0040
0080
0080
0100
0200
0400
0800
ENDCHAR
STARTCHAR 003A
ENCODING 58
SWIDTH 240 0
DWIDTH 6 0
BBX 1 13 3 0
BITMAP
80
80
00
00
00
00
00
00
00
00
00
00
80
ENDCHAR
STARTCHAR 003B
ENCODING 59
SWIDTH 240 0
DWIDTH 6 0
BBX 2 16 2 -4
BITMAP
40
40
00
00
00
00
00
00
00
00
00
00
40
40
80
80
ENDCHAR
STARTCHAR 003C
ENCODING 60
SWIDTH 600 0
DWIDTH 15 0
BBX 11 13 2 1
BITMAP
0020
00C0
0300
0C00
1000
6000
8000
6000
1000
0C00
0300
0080
0060
ENDCHAR
STARTCHAR 003D
ENCODING 61
SWIDTH 600 0
DWIDTH 15 0
BBX 11 5 2 5
BITMAP
7FC0
0000
0000
0000
FFE0
ENDCHAR
STARTCHAR 003E
ENCODING 62
SWIDTH 600 0
DWIDTH 15 0
BBX 11 13 2 1
BITMAP
8000
6000
1800
0400
0300
00C0
0020
00C0
0100
0600
1800
2000
C000
ENDCHAR
STARTCHAR 003F
ENCODING 63
SWIDTH 440 0
DWIDTH 11 0
BBX 10 18 1 0
BITMAP
1E00
6100
8080
8080
0040
0080
0080
0080
0100
0E00
0800
0800
0800
0800
0000
0000
0000
0800
ENDCHAR
STARTCHAR 0040
ENCODING 64
SWIDTH 880 0
DWIDTH 22 0
BBX 18 21 2 -3
BITMAP
01E000
0E1C00
100200
200100
400080
81C080
823840
840840
880840
880840
880840
880840
880840
880840
840880
823480
41C300
400000
200000
180000
07FC00
ENDCHAR
STARTCHAR 0041
ENCODING 65
SWIDTH 600 0
DWIDTH 15 0
BBX 13 17 1 0
BITMAP
0600
0500
0500
0900
0880
0880
1080
1040
2040
2040
2020
5FE0
4010
4010
8010
8008
8008
ENDCHAR
STARTCHAR 0042
ENCODING 66
SWIDTH 600 0
DWIDTH 15 0
BBX 11 17 3 0
BITMAP
FF80
8040
8040
8040
8040
8040
8080
8300
FC80
8040
8020
8020
8020
8020
8040
8040
FF80
ENDCHAR
STARTCHAR 0043
ENCODING 67
SWIDTH 600 0
DWIDTH 15 0
BBX 12 18 2 0
BITMAP
0F00
30C0
4020
8020
8000
8000
8000
8000
8000
8000
8000
8000
8000
8000
8010
4020
2020
1FC0
ENDCHAR
STARTCHAR 0044
ENCODING 68
SWIDTH 640 0
DWIDTH 16 0
BBX 12 17 3 0
BITMAP
FF80
8040
8040
8020
8020
8020
8010
8010
8010
8010
8010
8020
8020
8020
8040
8080
FF00
ENDCHAR
STARTCHAR 0045
ENCODING 69
SWIDTH 560 0
DWIDTH 14 0
BBX 9 17 3 0
BITMAP
FF80
8000
8000
8000
8000
8000
8000
8000
FF00
8000
8000
8000
8000
8000
8000
8000
FF80
ENDCHAR
STARTCHAR 0046
ENCODING 70
SWIDTH 520 0
DWIDTH 13 0
BBX 9 17 3 0
BITMAP
FF80
8000
8000
8000
8000
8000
8000
8000
FF00
8000
8000
8000
8000
8000
8000
8000
8000
ENDCHAR
STARTCHAR 0047
ENCODING 71
SWIDTH 640 0
DWIDTH 16 0
BBX 13 18 2 0
BITMAP
0700
38C0
4020
C010
8000
8000
8000
8000
8000
8000
80F8
8008
8008
8008
8008
4018
2028
1FC8
ENDCHAR
STARTCHAR 0048
ENCODING 72
SWIDTH 680 0
DWIDTH 17 0
BBX 12 17 3 0
BITMAP
8010
8010
8010
8010
8010
8010
8010
8010
FFF0
8010
8010
8010
8010
8010
8010
8010
8010
ENDCHAR
STARTCHAR 0049
ENCODING 73
SWIDTH 360 0
DWIDTH 9 0
BBX 4 17 3 0
BITMAP
F0
40
40
40
40
40
40
40
40
40
40
40
40
40
40
40
F0
ENDCHAR
STARTCHAR 004A
ENCODING 74
SWIDTH 440 0
DWIDTH 11 0
BBX 8 17 1 0
BITMAP
3F
01
01
01
01
01
01
01
01
01
01
01
01
01
01
82
7E
ENDCHAR
STARTCHAR 004B
ENCODING 75
SWIDTH 560 0
DWIDTH 14 0
BBX 10 17 3 0
BITMAP
8040
8080
8100
8200
8400
8800
9000
B000
A800
C400
8400
8200
8100
8100
8080
8040
8040
ENDCHAR
STARTCHAR 004C
ENCODING 76
SWIDTH 440 0
DWIDTH 11 0
BBX 8 17 3 0
BITMAP
80
80
80
80
80
80
80
80
80
80
80
80
80
80
80
80
FF
ENDCHAR
STARTCHAR 004D
ENCODING 77
SWIDTH 760 0
DWIDTH 19 0
BBX 14 17 3 0
BITMAP
800C
C00C
C014
A014
9024
9044
8844
8884
8484
8304
8204
8004
8004
8004
8004
8004
8004
ENDCHAR
STARTCHAR 004E
ENCODING 78
SWIDTH 680 0
DWIDTH 17 0
BBX 12 17 3 0
BITMAP
8010
C010
C010
A010
9010
9010
8810
8810
8410
8210
8210
8110
8090
8090
8050
8050
8030
ENDCHAR
STARTCHAR 004F
ENCODING 79
SWIDTH 680 0
DWIDTH 17 0
BBX 13 18 2 0
BITMAP
0700
38E0
4010
C010
8008
8008
8008
8008
8008
8008
8008
8008
8008
8008
8010
4010
2020
1FC0
ENDCHAR
STARTCHAR 0050
ENCODING 80
SWIDTH 560 0
DWIDTH 14 0
BBX 11 17 3 0
BITMAP
FF80
8040
8020
8020
8020
8020
8040
8040
FF80
8000
8000
8000
8000
8000
8000
8000
8000
ENDCHAR
STARTCHAR 0051
ENCODING 81
SWIDTH 680 0
DWIDTH 17 0
BBX 13 22 2 -4
BITMAP
0700
38E0
4010
C010
8008
8008
8008
8008
8008
8008
8008
8008
8008
8008
8010
4010
2020
18C0
0700
0200
0200
0380
ENDCHAR
STARTCHAR 0052
ENCODING 82
SWIDTH 600 0
DWIDTH 15 0
BBX 11 17 3 0
BITMAP
FF80
8040
8020
8020
8020
8020
8040
8040
FF80
8200
8200
8100
8100
8080
8040
8040
8020
ENDCHAR
STARTCHAR 0053
ENCODING 83
SWIDTH 520 0
DWIDTH 13 0
BBX 11 18 1 0
BITMAP
0F00
30C0
4020
8000
8000
8000
8000
4000
3800
0780
0040
0020
0020
0020
0020
8020
4040
3F80
ENDCHAR
STARTCHAR 0054
ENCODING 84
SWIDTH 560 0
DWIDTH 14 0
BBX 12 17 1 0
BITMAP
FFF0
0400
0400
0400
0400
0400
0400
0400
0400
0400
0400
0400
0400
0400
0400
0400
0400
ENDCHAR
STARTCHAR 0055
ENCODING 85
SWIDTH 640 0
DWIDTH 16 0
BBX 12 17 2 0
BITMAP
8010
8010
8010
8010
8010
8010
8010
8010
8010
8010
8010
8010
8010
8010
4020
4020
3FC0
ENDCHAR
STARTCHAR 0056
ENCODING 86
SWIDTH 560 0
DWIDTH 14 0
BBX 12 17 1 0
BITMAP
8010
8010
8020
4020
4020
4040
2040
2040
2080
1080
1080
1100
0900
0900
0A00
0600
0200
ENDCHAR
STARTCHAR 0057
ENCODING 87
SWIDTH 840 0
DWIDTH 21 0
BBX 20 17 1 0
BITMAP
806010
80A010
80A020
80A020
409020
411040
411040
410840
210840
220880
220880
120480
140480
140500
140500
0C0300
080100
ENDCHAR
STARTCHAR 0058
ENCODING 88
SWIDTH 520 0
DWIDTH 13 0
BBX 12 17 1 0
BITMAP
8030
4020
2040
2080
1080
0900
0A00
0600
0600
0A00
0900
1080
2080
2040
4020
8020
8010
ENDCHAR
STARTCHAR 0059
ENCODING 89
SWIDTH 520 0
DWIDTH 13 0
BBX 12 17 1 0
BITMAP
8010
8020
4040
2040
2080
1080
1100
0A00
0E00
0400
0400
0400
0400
0400
0400
0400
0400
ENDCHAR
STARTCHAR 005A
ENCODING 90
SWIDTH 520 0
DWIDTH 13 0
BBX 12 17 1 0
BITMAP
7FE0
0020
0040
0080
0080
0100
0200
0200
0400
0800
0800
1000
2000
2000
4000
8000
FFF0
ENDCHAR
STARTCHAR 005B
ENCODING 91
SWIDTH 280 0
DWIDTH 7 0
BBX 2 22 3 -3
BITMAP
C0
80
80
80
80
80
80
80
80
80
80
80
80
80
80
80
80
80
80
80
80
C0
ENDCHAR
STARTCHAR 005C
ENCODING 92
SWIDTH 280 0
DWIDTH 7 0
BBX 6 22 1 -4
BITMAP
80
80
80
80
40
40
40
40
20
20
20
20
10
10
10
10
08
08
08
08
04
04
ENDCHAR
STARTCHAR 005D
ENCODING 93
SWIDTH 280 0
DWIDTH 7 0
BBX 2 22 3 -3
BITMAP
C0
40
40
40
40
40
40
40
40
40
40
40
40
40
40
40
40
40
40
40
40
C0
ENDCHAR
STARTCHAR 005E
ENCODING 94
SWIDTH 600 0
DWIDTH 15 0
BBX 11 8 2 8
BITMAP
0C00
0A00
1100
2100
2080
4080
4040
8020
ENDCHAR
STARTCHAR 005F
ENCODING 95
SWIDTH 560 0
DWIDTH 14 0
BBX 12 1 1 -4
BITMAP
FFF0
ENDCHAR
STARTCHAR 0060
ENCODING 96
SWIDTH 600 0
DWIDTH 15 0
BBX 3 4 5 15
BITMAP
80
80
40
20
ENDCHAR
STARTCHAR 0061
ENCODING 97
SWIDTH 480 0
DWIDTH 12 0
BBX 9 13 2 0
BITMAP
3C00
C300
8100
0100
0100
0100
3F00
C100
8100
8100
8100
8300
7C80
ENDCHAR
STARTCHAR 0062
ENCODING 98
SWIDTH 560 0
DWIDTH 14 0
BBX 10 18 3 1
BITMAP
8000
8000
8000
8000
8000
BE00
C100
8080
8080
8080
8040
8040
8040
8080
8080
8080
8100
FE00
ENDCHAR
STARTCHAR 0063
ENCODING 99
SWIDTH 480 0
DWIDTH 12 0
BBX 10 13 1 0
BITMAP
1F00
2080
4040
8000
8000
8000
8000
8000
8000
8000
4000
4040
3F80
ENDCHAR
STARTCHAR 0064
ENCODING 100
SWIDTH 560 0
DWIDTH 14 0
BBX 11 19 1 0
BITMAP
0020
0020
0020
0020
0020
0020
1F20
20A0
4060
C020
8020
8020
8020
8020
8020
8020
4020
4060
3FA0
ENDCHAR
STARTCHAR 0065
ENCODING 101
SWIDTH 520 0
DWIDTH 13 0
BBX 11 13 1 0
BITMAP
1F00
2080
4040
8040
8020
8020
FFE0
8000
8000
8000
4040
4040
3F80
ENDCHAR
STARTCHAR 0066
ENCODING 102
SWIDTH 280 0
DWIDTH 7 0
BBX 6 19 1 0
BITMAP
1C
20
20
20
20
20
FC
20
20
20
20
20
20
20
20
20
20
20
20
ENDCHAR
STARTCHAR 0067
ENCODING 103
SWIDTH 520 0
DWIDTH 13 0
BBX 12 19 1 -5
BITMAP
00E0
1F80
2080
4040
4040
4040
4040
4080
2080
1F00
6000
4000
2000
3FE0
C020
8010
8020
8020
7FC0
ENDCHAR
STARTCHAR 0068
ENCODING 104
SWIDTH 520 0
DWIDTH 13 0
BBX 9 18 3 1
BITMAP
8000
8000
8000
8000
8000
BC00
C300
8100
8100
8080
8080
8080
8080
8080
8080
8080
8080
8080
ENDCHAR
STARTCHAR 0069
ENCODING 105
SWIDTH 200 0
DWIDTH 5 0
BBX 1 18 2 0
BITMAP
80
00
00
00
00
00
80
80
80
80
80
80
80
80
80
80
80
80
ENDCHAR
STARTCHAR 006A
ENCODING 106
SWIDTH 200 0
DWIDTH 5 0
BBX 2 23 1 -5
BITMAP
40
00
00
00
00
00
40
40
40
40
40
40
40
40
40
40
40
40
40
40
40
40
C0
ENDCHAR
STARTCHAR 006B
ENCODING 107
SWIDTH 480 0
DWIDTH 12 0
BBX 8 18 3 1
BITMAP
80
80
80
80
80
81
82
84
88
90
A0
E0
90
88
84
82
81
81
ENDCHAR
STARTCHAR 006C
ENCODING 108
SWIDTH 240 0
DWIDTH 6 0
BBX 1 18 3 1
BITMAP
80
80
80
80
80
80
80
80
80
80
80
80
80
80
80
80
80
80
ENDCHAR
STARTCHAR 006D
ENCODING 109
SWIDTH 840 0
DWIDTH 21 0
BBX 17 13 3 0
BITMAP
3C3C00
C2C300
818100
810100
810080
810080
810080
810080
810080
810080
810080
810080
810080
ENDCHAR
STARTCHAR 006E
ENCODING 110
SWIDTH 520 0
DWIDTH 13 0
BBX 9 13 3 0
BITMAP
3C00
C300
8100
8100
8080
8080
8080
8080
8080
8080
8080
8080
8080
ENDCHAR
STARTCHAR 006F
ENCODING 111
SWIDTH 520 0
DWIDTH 13 0
BBX 11 13 1 0
BITMAP
1F00
2080
4040
8020
8020
8020
8020
8020
8020
8020
4040
4040
3F80
ENDCHAR
STARTCHAR 0070
ENCODING 112
SWIDTH 560 0
DWIDTH 14 0
BBX 10 18 3 -5
BITMAP
3E00
C100
8080
8080
8080
8040
8040
8040
8080
8080
8080
8100
E200
9C00
8000
8000
8000
8000
ENDCHAR
STARTCHAR 0071
ENCODING 113
SWIDTH 560 0
DWIDTH 14 0
BBX 11 18 1 -5
BITMAP
1F20
20A0
4060
C020
8020
8020
8020
8020
8020
8020
4020
4060
30A0
0F20
0020
0020
0020
0020
ENDCHAR
STARTCHAR 0072
ENCODING 114
SWIDTH 320 0
DWIDTH 8 0
BBX 5 13 3 0
BITMAP
18
E0
80
80
80
80
80
80
80
80
80
80
80
ENDCHAR
STARTCHAR 0073
ENCODING 115
SWIDTH 440 0
DWIDTH 11 0
BBX 9 13 1 0
BITMAP
3E00
4100
8000
8000
8000
4000
3C00
0300
0080
0080
0080
8080
7F00
ENDCHAR
STARTCHAR 0074
ENCODING 116
SWIDTH 280 0
DWIDTH 7 0
BBX 6 16 1 0
BITMAP
20
20
20
FC
20
20
20
20
20
20
20
20
20
20
20
30
ENDCHAR
STARTCHAR 0075
ENCODING 117
SWIDTH 520 0
DWIDTH 13 0
BBX 9 13 2 0
BITMAP
8000
8080
8080
8080
8080
8080
8080
8080
8080
8080
8080
4180
3F80
ENDCHAR
STARTCHAR 0076
ENCODING 118
SWIDTH 440 0
DWIDTH 11 0
BBX 10 13 1 0
BITMAP
0040
8080
8080
8080
4100
4100
4200
2200
2200
1400
1400
1400
0800
ENDCHAR
STARTCHAR 0077
ENCODING 119
SWIDTH 720 0
DWIDTH 18 0
BBX 16 12 1 1
BITMAP
8181
8181
8282
4242
4242
4444
2424
2424
2828
2828
1818
0808
ENDCHAR
STARTCHAR 0078
ENCODING 120
SWIDTH 440 0
DWIDTH 11 0
BBX 10 13 1 0
BITMAP
8040
8080
4100
2100
1200
1400
0800
0C00
1200
2200
4100
4080
8040
ENDCHAR
STARTCHAR 0079
ENCODING 121
SWIDTH 440 0
DWIDTH 11 0
BBX 10 18 1 -5
BITMAP
0040
8080
8080
8080
4100
4100
4200
2200
2200
1400
1400
1400
0800
0800
1000
1000
1000
6000
ENDCHAR
STARTCHAR 007A
ENCODING 122
SWIDTH 400 0
DWIDTH 10 0
BBX 9 13 1 0
BITMAP
FF80
0100
0200
0200
0400
0800
0800
1000
2000
4000
4000
8000
FF00
ENDCHAR
STARTCHAR 007B
ENCODING 123
SWIDTH 280 0
DWIDTH 7 0
BBX 4 22 1 -3
BITMAP
30
20
20
20
20
20
20
20
20
40
40
80
40
20
20
20
20
20
20
20
20
30
ENDCHAR
STARTCHAR 007C
ENCODING 124
SWIDTH 200 0
DWIDTH 5 0
BBX 1 22 2 -3
BITMAP
80
80
80
80
80
80
80
80
80
80
80
80
80
80
80
80
80
80
80
80
80
80
ENDCHAR
STARTCHAR 007D
ENCODING 125
SWIDTH 280 0
DWIDTH 7 0
BBX 4 22 3 -3
BITMAP
C0
40
40
40
40
40
40
40
40
40
20
10
60
40
40
40
40
40
40
40
40
C0
ENDCHAR
STARTCHAR 007E
ENCODING 126
SWIDTH 600 0
DWIDTH 15 0
BBX 11 3 2 6
BITMAP
7000
8C00
03E0
ENDCHAR
STARTCHAR 00A0
ENCODING 160
SWIDTH 200 0
DWIDTH 5 0
BBX 0 0 0 0
BITMAP
ENDCHAR
STARTCHAR 00A1
ENCODING 161
SWIDTH 240 0
DWIDTH 6 0
BBX 2 17 2 -5
BITMAP
40
40
00
00
00
00
80
80
80
80
80
80
80
80
80
80
80
ENDCHAR
STARTCHAR 00A2
ENCODING 162
SWIDTH 480 0
DWIDTH 12 0
BBX 10 19 1 -3
BITMAP
0400
0400
0400
0F00
3480
4440
8400
8400
8400
8400
8400
8400
8400
4400
4440
3480
0F00
0400
0400
ENDCHAR
STARTCHAR 00A3
ENCODING 163
SWIDTH 560 0
DWIDTH 14 0
BBX 11 18 2 0
BITMAP
0F00
30C0
4020
4000
8000
8000
8000
4000
4000
4000
BE00
2000
2000
2000
2000
4000
4000
FFE0
ENDCHAR
STARTCHAR 00A4
ENCODING 164
SWIDTH 560 0
DWIDTH 14 0
BBX 13 13 1 3
BITMAP
8018
4FA0
3060
4020
4020
4020
4020
4020
4020
2040
5060
8790
8008
ENDCHAR
STARTCHAR 00A5
ENCODING 165
SWIDTH 560 0
DWIDTH 14 0
BBX 12 17 1 0
BITMAP
8010
4020
2040
2040
1080
0880
0900
0600
7FE0
0200
0200
0200
7FE0
0200
0200
0200
0200
ENDCHAR
STARTCHAR 00A6
ENCODING 166
SWIDTH 200 0
DWIDTH 5 0
BBX 1 22 2 -3
BITMAP
80
80
80
80
80
80
80
80
00
00
00
00
00
00
80
80
80
80
80
80
80
80
ENDCHAR
STARTCHAR 00A7
ENCODING 167
SWIDTH 560 0
DWIDTH 14 0
BBX 10 22 2 -4
BITMAP
0E00
3180
4000
4000
4000
4000
2000
5C00
8300
8080
8040
8040
8040
4080
3880
0700
0180
0080
0080
0080
4100
3E00
ENDCHAR
STARTCHAR 00A8
ENCODING 168
SWIDTH 600 0
DWIDTH 15 0
BBX 5 1 5 16
BITMAP
88
ENDCHAR
STARTCHAR 00A9
ENCODING 169
SWIDTH 680 0
DWIDTH 17 0
BBX 16 18 1 0
BITMAP
03C0
1C30
2008
4004
8102
8642
8821
8801
8801
8801
8801
8801
8822
8442
4382
4004
3008
0FF0
ENDCHAR
STARTCHAR 00AA
ENCODING 170
SWIDTH 320 0
DWIDTH 8 0
BBX 7 9 1 9
BITMAP
10
CC
04
04
3C
C4
84
84
7A
ENDCHAR
STARTCHAR 00AB
ENCODING 171
SWIDTH 440 0
DWIDTH 11 0
BBX 9 9 1 3
BITMAP
0880
1100
2200
4400
8800
8400
4200
2100
1880
ENDCHAR
STARTCHAR 00AC
ENCODING 172
SWIDTH 600 0
DWIDTH 15 0
BBX 11 5 2 3
BITMAP
FFE0
0020
0020
0020
0020
ENDCHAR
STARTCHAR 00AD
ENCODING 173
SWIDTH 360 0
DWIDTH 9 0
BBX 6 1 2 7
BITMAP
FC
ENDCHAR
STARTCHAR 00AE
ENCODING 174
SWIDTH 440 0
DWIDTH 11 0
BBX 10 11 1 7
BITMAP
1C00
6300
8080
9E80
9240
9C40
9440
9280
8080
4100
3200
ENDCHAR
STARTCHAR 00AF
ENCODING 175
SWIDTH 600 0
DWIDTH 15 0
BBX 7 1 4 16
BITMAP
FE
ENDCHAR
STARTCHAR 00B0
ENCODING 176
SWIDTH 440 0
DWIDTH 11 0
BBX 8 9 2 9
BITMAP
18
46
82
81
81
81
82
42
3C
ENDCHAR
STARTCHAR 00B1
ENCODING 177
SWIDTH 600 0
DWIDTH 15 0
BBX 9 15 3 0
BITMAP
0800
0800
0800
0800
0800
0800
FF80
0800
0800
0800
0800
0800
0000
0000
FF80
ENDCHAR
STARTCHAR 00B2
ENCODING 178
SWIDTH 320 0
DWIDTH 8 0
BBX 7 10 1 8
BITMAP
10
CC
84
04
04
08
10
20
40
FE
ENDCHAR
STARTCHAR 00B3
ENCODING 179
SWIDTH 320 0
DWIDTH 8 0
BBX 6 10 1 8
BITMAP
10
CC
04
04
08
18
04
04
84
78
ENDCHAR
STARTCHAR 00B4
ENCODING 180
SWIDTH 600 0
DWIDTH 15 0
BBX 3 4 7 15
BITMAP
20
40
80
80
ENDCHAR
STARTCHAR 00B5
ENCODING 181
SWIDTH 560 0
DWIDTH 14 0
BBX 9 18 3 -5
BITMAP
0080
8080
8080
8080
8080
8080
8080
8080
8080
8080
8080
8180
C280
BC00
8000
8000
8000
8000
ENDCHAR
STARTCHAR 00B6
ENCODING 182
SWIDTH 560 0
DWIDTH 14 0
BBX 10 21 1 -4
BITMAP
3FC0
7C40
7C40
FC40
FC40
FC40
7C40
3C40
1C40
0440
0440
0440
0440
0440
0440
0440
0440
0440
0440
0440
0440
ENDCHAR
STARTCHAR 00B7
ENCODING 183
SWIDTH 280 0
DWIDTH 7 0
BBX 1 1 3 7
BITMAP
80
ENDCHAR
STARTCHAR 00B8
ENCODING 184
SWIDTH 600 0
DWIDTH 15 0
BBX 4 5 6 -5
BITMAP
40
80
70
10
E0
ENDCHAR
STARTCHAR 00B9
ENCODING 185
SWIDTH 360 0
DWIDTH 9 0
BBX 7 9 1 8
BITMAP
30
50
90
10
10
10
10
10
FE
ENDCHAR
STARTCHAR 00BA
ENCODING 186
SWIDTH 360 0
DWIDTH 9 0
BBX 7 9 1 9
BITMAP
10
6C
82
82
82
82
82
84
78
ENDCHAR
STARTCHAR 00BB
ENCODING 187
SWIDTH 440 0
DWIDTH 11 0
BBX 10 9 1 3
BITMAP
8400
4200
2100
1080
0840
0880
1100
2200
C400
ENDCHAR
STARTCHAR 00BC
ENCODING 188
SWIDTH 840 0
DWIDTH 21 0
BBX 20 17 1 0
BITMAP
300100
500200
900200
100400
100800
100800
101000
102000
FE2040
0041C0
008140
008240
010440
010840
020FF0
040040
040040
ENDCHAR
STARTCHAR 00BD
ENCODING 189
SWIDTH 880 0
DWIDTH 22 0
BBX 20 17 1 0
BITMAP
300100
500200
900200
100400
100800
100800
101000
102000
FE23E0
004410
008010
008020
010020
010040
020080
040300
0407E0
ENDCHAR
STARTCHAR 00BE
ENCODING 190
SWIDTH 800 0
DWIDTH 20 0
BBX 19 18 1 0
BITMAP
100000
CC0200
040400
040400
080800
181000
041000
042000
844000
784180
008180
008280
010480
020880
021080
041FE0
080080
080000
ENDCHAR
STARTCHAR 00BF
ENCODING 191
SWIDTH 440 0
DWIDTH 11 0
BBX 9 18 1 -5
BITMAP
0400
0400
0000
0000
0000
0800
0800
0800
0800
3000
4000
8000
8000
8000
8000
8080
8100
7E00
ENDCHAR
STARTCHAR 00C0
ENCODING 192
SWIDTH 600 0
DWIDTH 15 0
BBX 13 23 1 0
BITMAP
0800
0400
0200
0000
0000
0000
0600
0500
0500
0900
0880
0880
1080
1040
2040
2040
2020
5FE0
4010
4010
8010
8008
8008
ENDCHAR
STARTCHAR 00C1
ENCODING 193
SWIDTH 600 0
DWIDTH 15 0
BBX 13 23 1 0
BITMAP
0080
0100
0200
0000
0000
0000
0600
0500
0500
0900
0880
0880
1080
1040
2040
2040
2020
5FE0
4010
4010
8010
8008
8008
ENDCHAR
STARTCHAR 00C2
ENCODING 194
SWIDTH 600 0
DWIDTH 15 0
BBX 13 23 1 0
BITMAP
0600
0900
1080
0040
0000
0000
0600
0500
0500
0900
0880
0880
1080
1040
2040
2040
2020
5FE0
4010
4010
8010
8008
8008
ENDCHAR
STARTCHAR 00C3
ENCODING 195
SWIDTH 600 0
DWIDTH 15 0
BBX 13 22 1 0
BITMAP
1C00
03C0
0000
0000
0000
0600
0500
0500
0900
0880
0880
1080
1040
2040
2040
2020
5FE0
4010
4010
8010
8008
8008
ENDCHAR
STARTCHAR 00C4
ENCODING 196
SWIDTH 600 0
DWIDTH 15 0
BBX 13 22 1 0
BITMAP
0880
0000
0000
0000
0000
0600
0500
0500
0900
0880
0880
1080
1040
2040
2040
2020
5FE0
4010
4010
8010
8008
8008
ENDCHAR
STARTCHAR 00C5
ENCODING 197
SWIDTH 600 0
DWIDTH 15 0
BBX 13 24 1 0
BITMAP
0700
0880
0880
0880
0700
0000
0000
0600
0500
0500
0900
0880
0880
1080
1040
2040
2040
2020
5FE0
4010
4010
8010
8008
8008
ENDCHAR
STARTCHAR 00C6
ENCODING 198
SWIDTH 840 0
DWIDTH 21 0
BBX 20 17 0 0
BITMAP
007FE0
00A000
00A000
012000
012000
022000
042000
042000
083FE0
082000
102000
1FE000
202000
202000
402000
802000
803FF0
ENDCHAR
STARTCHAR 00C7
ENCODING 199
SWIDTH 600 0
DWIDTH 15 0
BBX 12 23 2 -5
BITMAP
0F00
30C0
4020
8020
8000
8000
8000
8000
8000
8000
8000
8000
8000
8000
8010
4020
2020
10C0
0F00
0400
0300
0080
0700
ENDCHAR
STARTCHAR 00C8
ENCODING 200
SWIDTH 560 0
DWIDTH 14 0
BBX 9 23 3 0
BITMAP
2000
1000
0800
0000
0000
0000
FF80
8000
8000
8000
8000
8000
8000
8000
FF00
8000
8000
8000
8000
8000
8000
8000
FF80
ENDCHAR
STARTCHAR 00C9
ENCODING 201
SWIDTH 560 0
DWIDTH 14 0
BBX 9 23 3 0
BITMAP
0200
0400
0800
0000
0000
0000
FF80
8000
8000
8000
8000
8000
8000
8000
FF00
8000
8000
8000
8000
8000
8000
8000
FF80
ENDCHAR
STARTCHAR 00CA
ENCODING 202
SWIDTH 560 0
DWIDTH 14 0
BBX 9 23 3 0
BITMAP
1800
2400
4200
0100
0000
0000
FF80
8000
8000
8000
8000
8000
8000
8000
FF00
8000
8000
8000
8000
8000
8000
8000
FF80
ENDCHAR
STARTCHAR 00CB
ENCODING 203
SWIDTH 560 0
DWIDTH 14 0
BBX 9 22 3 0
BITMAP
2200
0000
0000
0000
0000
FF80
8000
8000
8000
8000
8000
8000
8000
FF00
8000
8000
8000
8000
8000
8000
8000
FF80
ENDCHAR
STARTCHAR 00CC
ENCODING 204
SWIDTH 360 0
DWIDTH 9 0
BBX 4 22 3 1
BITMAP
80
40
00
00
00
F0
40
40
40
40
40
40
40
40
40
40
40
40
40
40
40
F0
ENDCHAR
STARTCHAR 00CD
ENCODING 205
SWIDTH 360 0
DWIDTH 9 0
BBX 4 23 3 0
BITMAP
10
20
40
00
00
00
F0
40
40
40
40
40
40
40
40
40
40
40
40
40
40
40
F0
ENDCHAR
STARTCHAR 00CE
ENCODING 206
SWIDTH 360 0
DWIDTH 9 0
BBX 7 23 1 0
BITMAP
18
28
44
82
00
00
3C
10
10
10
10
10
10
10
10
10
10
10
10
10
10
10
3C
ENDCHAR
STARTCHAR 00CF
ENCODING 207
SWIDTH 360 0
DWIDTH 9 0
BBX 5 22 2 0
BITMAP
88
00
00
00
00
78
20
20
20
20
20
20
20
20
20
20
20
20
20
20
20
78
ENDCHAR
STARTCHAR 00D0
ENCODING 208
SWIDTH 640 0
DWIDTH 16 0
BBX 13 17 2 0
BITMAP
FFC0
8020
8010
8010
8010
8008
8008
8008
F808
8008
8008
8010
8010
8010
8020
8040
FF80
ENDCHAR
STARTCHAR 00D1
ENCODING 209
SWIDTH 680 0
DWIDTH 17 0
BBX 12 22 3 0
BITMAP
3800
0780
0000
0000
0000
8010
C010
C010
A010
9010
9010
8810
8810
8410
8210
8210
8110
8090
8090
8050
8050
8030
ENDCHAR
STARTCHAR 00D2
ENCODING 210
SWIDTH 680 0
DWIDTH 17 0
BBX 13 23 2 0
BITMAP
0800
0400
0200
0000
0000
0700
38E0
4010
C010
8008
8008
8008
8008
8008
8008
8008
8008
8008
8008
8010
4010
2020
1FC0
ENDCHAR
STARTCHAR 00D3
ENCODING 211
SWIDTH 680 0
DWIDTH 17 0
BBX 13 23 2 0
BITMAP
0080
0100
0200
0000
0000
0700
38E0
4010
C010
8008
8008
8008
8008
8008
8008
8008
8008
8008
8008
8010
4010
2020
1FC0
ENDCHAR
STARTCHAR 00D4
ENCODING 212
SWIDTH 680 0
DWIDTH 17 0
BBX 13 23 2 0
BITMAP
0600
0900
1080
0040
0000
0700
38E0
4010
C010
8008
8008
8008
8008
8008
8008
8008
8008
8008
8008
8010
4010
2020
1FC0
ENDCHAR
STARTCHAR 00D5
ENCODING 213
SWIDTH 680 0
DWIDTH 17 0
BBX 13 22 2 0
BITMAP
1C00
03C0
0000
0000
0700
38E0
4010
C010
8008
8008
8008
8008
8008
8008
8008
8008
8008
8008
8010
4010
2020
1FC0
ENDCHAR
STARTCHAR 00D6
ENCODING 214
SWIDTH 680 0
DWIDTH 17 0
BBX 13 22 2 0
BITMAP
0880
0000
0000
0000
0700
38E0
4010
C010
8008
8008
8008
8008
8008
8008
8008
8008
8008
8008
8010
4010
2020
1FC0
ENDCHAR
STARTCHAR 00D7
ENCODING 215
SWIDTH 600 0
DWIDTH 15 0
BBX 9 9 3 4
BITMAP
8080
4100
2200
1400
0800
1400
2200
4100
8080
ENDCHAR
STARTCHAR 00D8
ENCODING 216
SWIDTH 680 0
DWIDTH 17 0
BBX 13 19 2 -1
BITMAP
0788
3870
4010
C030
8048
8088
8088
8108
8208
8208
8408
8808
8808
9008
A010
6010
6020
98C0
0700
ENDCHAR
STARTCHAR 00D9
ENCODING 217
SWIDTH 640 0
DWIDTH 16 0
BBX 12 23 2 0
BITMAP
0800
0800
0400
0200
0000
0000
8010
8010
8010
8010
8010
8010
8010
8010
8010
8010
8010
8010
8010
8010
4020
4020
3FC0
ENDCHAR
STARTCHAR 00DA
ENCODING 218
SWIDTH 640 0
DWIDTH 16 0
BBX 12 23 2 0
BITMAP
0100
0200
0200
0400
0000
0000
8010
8010
8010
8010
8010
8010
8010
8010
8010
8010
8010
8010
8010
8010
4020
4020
3FC0
ENDCHAR
STARTCHAR 00DB
ENCODING 219
SWIDTH 640 0
DWIDTH 16 0
BBX 12 23 2 0
BITMAP
0600
0900
1080
0000
0000
0000
8010
8010
8010
8010
8010
8010
8010
8010
8010
8010
8010
8010
8010
8010
4020
4020
3FC0
ENDCHAR
STARTCHAR 00DC
ENCODING 220
SWIDTH 640 0
DWIDTH 16 0
BBX 12 22 2 0
BITMAP
1080
0080
0000
0000
0000
8010
8010
8010
8010
8010
8010
8010
8010
8010
8010
8010
8010
8010
8010
4020
4020
3FC0
ENDCHAR
STARTCHAR 00DD
ENCODING 221
SWIDTH 520 0
DWIDTH 13 0
BBX 12 23 1 0
BITMAP
0100
0200
0400
0400
0000
0000
8010
8020
4040
2040
2080
1080
1100
0A00
0E00
0400
0400
0400
0400
0400
0400
0400
0400
ENDCHAR
STARTCHAR 00DE
ENCODING 222
SWIDTH 560 0
DWIDTH 14 0
BBX 11 17 3 0
BITMAP
8000
8000
8000
FE00
8180
8040
8020
8020
8020
8020
8040
8040
FF80
8000
8000
8000
8000
ENDCHAR
STARTCHAR 00DF
ENCODING 223
SWIDTH 640 0
DWIDTH 16 0
BBX 14 19 1 0
BITMAP
0780
0860
1020
2010
2010
2010
E030
21C0
2200
2200
2200
2100
20E0
2018
2004
2004
2004
2404
23F8
ENDCHAR
STARTCHAR 00E0
ENCODING 224
SWIDTH 480 0
DWIDTH 12 0
BBX 9 18 2 1
BITMAP
2000
1000
0800
0000
0000
3C00
C300
8100
0100
0100
0100
3F00
C100
8100
8100
8100
8300
7C80
ENDCHAR
STARTCHAR 00E1
ENCODING 225
SWIDTH 480 0
DWIDTH 12 0
BBX 9 19 2 0
BITMAP
0200
0400
0800
1000
0000
0000
3C00
C300
8100
0100
0100
0100
3F00
C100
8100
8100
8100
8300
7C80
ENDCHAR
STARTCHAR 00E2
ENCODING 226
SWIDTH 480 0
DWIDTH 12 0
BBX 9 19 2 0
BITMAP
0800
1400
2200
4100
0000
0000
3C00
C300
8100
0100
0100
0100
3F00
C100
8100
8100
8100
8300
7C80
ENDCHAR
STARTCHAR 00E3
ENCODING 227
SWIDTH 480 0
DWIDTH 12 0
BBX 9 18 2 0
BITMAP
2000
5900
0600
0000
0000
3C00
C300
8100
0100
0100
0100
3F00
C100
8100
8100
8100
8300
7C80
ENDCHAR
STARTCHAR 00E4
ENCODING 228
SWIDTH 480 0
DWIDTH 12 0
BBX 9 17 2 0
BITMAP
6200
0000
0000
0000
3C00
C300
8100
0100
0100
0100
3F00
C100
8100
8100
8100
8300
7C80
ENDCHAR
STARTCHAR 00E5
ENCODING 229
SWIDTH 480 0
DWIDTH 12 0
BBX 9 19 2 0
BITMAP
3C00
2400
2400
2400
1800
0000
3C00
C300
8100
0100
0100
0100
3F00
C100
8100
8100
8100
8300
7C80
ENDCHAR
STARTCHAR 00E6
ENCODING 230
SWIDTH 840 0
DWIDTH 21 0
BBX 19 13 1 0
BITMAP
1E0F00
613080
00C040
004020
008020
008020
1FFFE0
608000
808000
804000
80C020
80A040
7F1F80
ENDCHAR
STARTCHAR 00E7
ENCODING 231
SWIDTH 480 0
DWIDTH 12 0
BBX 10 18 1 -5
BITMAP
1F00
2080
4040
8000
8000
8000
8000
8000
8000
8000
4000
4040
3080
0F00
0400
0300
0100
0F00
ENDCHAR
STARTCHAR 00E8
ENCODING 232
SWIDTH 520 0
DWIDTH 13 0
BBX 11 19 1 0
BITMAP
1000
0800
0800
0400
0000
0000
1F00
2080
4040
8040
8020
8020
FFE0
8000
8000
8000
4040
4040
3F80
ENDCHAR
STARTCHAR 00E9
ENCODING 233
SWIDTH 520 0
DWIDTH 13 0
BBX 11 19 1 0
BITMAP
0100
0200
0200
0400
0000
0000
1F00
2080
4040
8040
8020
8020
FFE0
8000
8000
8000
4040
4040
3F80
ENDCHAR
STARTCHAR 00EA
ENCODING 234
SWIDTH 520 0
DWIDTH 13 0
BBX 11 19 1 0
BITMAP
0400
0A00
1100
2080
0000
0000
1F00
2080
4040
8040
8020
8020
FFE0
8000
8000
8000
4040
4040
3F80
ENDCHAR
STARTCHAR 00EB
ENCODING 235
SWIDTH 520 0
DWIDTH 13 0
BBX 11 17 1 0
BITMAP
1180
0000
0000
0000
1F00
2080
4040
8040
8020
8020
FFE0
8000
8000
8000
4040
4040
3F80
ENDCHAR
STARTCHAR 00EC
ENCODING 236
SWIDTH 200 0
DWIDTH 5 0
BBX 3 19 0 0
BITMAP
80
40
20
20
00
00
00
20
20
20
20
20
20
20
20
20
20
20
20
ENDCHAR
STARTCHAR 00ED
ENCODING 237
SWIDTH 200 0
DWIDTH 5 0
BBX 3 18 2 1
BITMAP
20
40
80
00
00
00
80
80
80
80
80
80
80
80
80
80
80
80
ENDCHAR
STARTCHAR 00EE
ENCODING 238
SWIDTH 200 0
DWIDTH 5 0
BBX 7 18 -1 1
BITMAP
38
44
82
00
00
00
10
10
10
10
10
10
10
10
10
10
10
10
ENDCHAR
STARTCHAR 00EF
ENCODING 239
SWIDTH 200 0
DWIDTH 5 0
BBX 6 17 0 0
BITMAP
84
00
00
00
00
20
20
20
20
20
20
20
20
20
20
20
20
ENDCHAR
STARTCHAR 00F0
ENCODING 240
SWIDTH 520 0
DWIDTH 13 0
BBX 11 19 1 0
BITMAP
1080
0900
0600
0A00
1100
0080
0080
1FC0
6040
4020
8020
8020
8020
8020
8020
8020
4040
4040
3F80
ENDCHAR
STARTCHAR 00F1
ENCODING 241
SWIDTH 520 0
DWIDTH 13 0
BBX 9 18 3 0
BITMAP
2000
D900
0600
0000
0000
3C00
C300
8100
8100
8080
8080
8080
8080
8080
8080
8080
8080
8080
ENDCHAR
STARTCHAR 00F2
ENCODING 242
SWIDTH 520 0
DWIDTH 13 0
BBX 11 19 1 0
BITMAP
1000
0800
0800
0400
0000
0000
1F00
2080
4040
8020
8020
8020
8020
8020
8020
8020
4040
4040
3F80
ENDCHAR
STARTCHAR 00F3
ENCODING 243
SWIDTH 520 0
DWIDTH 13 0
BBX 11 18 1 1
BITMAP
0300
0200
0400
0000
0000
1F00
2080
4040
8020
8020
8020
8020
8020
8020
8020
4040
4040
3F80
ENDCHAR
STARTCHAR 00F4
ENCODING 244
SWIDTH 520 0
DWIDTH 13 0
BBX 11 19 1 0
BITMAP
0400
0A00
1100
2080
0000
0000
1F00
2080
4040
8020
8020
8020
8020
8020
8020
8020
4040
4040
3F80
ENDCHAR
STARTCHAR 00F5
ENCODING 245
SWIDTH 520 0
DWIDTH 13 0
BBX 11 17 1 1
BITMAP
3C00
0380
0000
0000
1F00
2080
4040
8020
8020
8020
8020
8020
8020
8020
4040
4040
3F80
ENDCHAR
STARTCHAR 00F6
ENCODING 246
SWIDTH 520 0
DWIDTH 13 0
BBX 11 17 1 0
BITMAP
1080
0000
0000
0000
1F00
2080
4040
8020
8020
8020
8020
8020
8020
8020
4040
4040
3F80
ENDCHAR
STARTCHAR 00F7
ENCODING 247
SWIDTH 600 0
DWIDTH 15 0
BBX 11 11 2 2
BITMAP
0400
0000
0000
0000
0000
FFE0
0000
0000
0000
0400
0400
ENDCHAR
STARTCHAR 00F8
ENCODING 248
SWIDTH 520 0
DWIDTH 13 0
BBX 11 14 1 0
BITMAP
0F20
30C0
40C0
40A0
8120
8220
8420
8820
8820
9020
6040
2040
D080
0F00
ENDCHAR
STARTCHAR 00F9
ENCODING 249
SWIDTH 520 0
DWIDTH 13 0
BBX 9 19 2 0
BITMAP
2000
1000
0800
0800
0000
0000
8000
8080
8080
8080
8080
8080
8080
8080
8080
8080
8080
4180
3F80
ENDCHAR
STARTCHAR 00FA
ENCODING 250
SWIDTH 520 0
DWIDTH 13 0
BBX 9 18 2 1
BITMAP
0200
0400
0800
0000
0000
8000
8080
8080
8080
8080
8080
8080
8080
8080
8080
8080
4180
3F80
ENDCHAR
STARTCHAR 00FB
ENCODING 251
SWIDTH 520 0
DWIDTH 13 0
BBX 9 19 2 0
BITMAP
0800
1400
2200
4100
0000
0000
8000
8080
8080
8080
8080
8080
8080
8080
8080
8080
8080
4180
3F80
ENDCHAR
STARTCHAR 00FC
ENCODING 252
SWIDTH 520 0
DWIDTH 13 0
BBX 9 17 2 0
BITMAP
2100
0000
0000
0000
8000
8080
8080
8080
8080
8080
8080
8080
8080
8080
8080
4180
3F80
ENDCHAR
STARTCHAR 00FD
ENCODING 253
SWIDTH 440 0
DWIDTH 11 0
BBX 10 24 1 -5
BITMAP
0200
0400
0400
0800
0000
0000
0040
8080
8080
8080
4100
4100
4200
2200
2200
1400
1400
1400
0800
0800
1000
1000
1000
6000
ENDCHAR
STARTCHAR 00FE
ENCODING 254
SWIDTH 560 0
DWIDTH 14 0
BBX 10 23 3 -4
BITMAP
8000
8000
8000
8000
8000
BE00
C100
8080
8080
8080
8040
8040
8040
8080
8080
8080
8100
E200
9C00
8000
8000
8000
8000
ENDCHAR
STARTCHAR 00FF
ENCODING 255
SWIDTH 440 0
DWIDTH 11 0
BBX 10 22 1 -5
BITMAP
2300
0000
0000
0000
0040
8080
8080
8080
4100
4100
4200
2200
2200
1400
1400
1400
0800
0800
1000
1000
1000
6000
ENDCHAR
STARTCHAR 0100
ENCODING 256
SWIDTH 600 0
DWIDTH 15 0
BBX 13 21 1 0
BITMAP
0F80
0000
0000
0000
0600
0500
0500
0900
0880
0880
1080
1040
2040
2040
2020
5FE0
4010
4010
8010
8008
8008
ENDCHAR
STARTCHAR 0101
ENCODING 257
SWIDTH 480 0
DWIDTH 12 0
BBX 9 17 2 0
BITMAP
7E00
0000
0000
0000
3C00
C300
8100
0100
0100
0100
3F00
C100
8100
8100
8100
8300
7C80
ENDCHAR
STARTCHAR 0102
ENCODING 258
SWIDTH 600 0
DWIDTH 15 0
BBX 13 23 1 0
BITMAP
1040
1080
0880
0700
0000
0000
0600
0500
0500
0900
0880
0880
1080
1040
2040
2040
2020
5FE0
4010
4010
8010
8008
8008
ENDCHAR
STARTCHAR 0103
ENCODING 259
SWIDTH 480 0
DWIDTH 12 0
BBX 9 18 2 0
BITMAP
4200
4200
3C00
0000
0000
3C00
C300
8100
0100
0100
0100
3F00
C100
8100
8100
8100
8300
7C80
ENDCHAR
STARTCHAR 0104
ENCODING 260
SWIDTH 600 0
DWIDTH 15 0
BBX 14 22 1 -5
BITMAP
0600
0500
0500
0900
0880
0880
1080
1040
2040
2040
2020
5FE0
4010
4010
8010
8008
8008
0018
0020
0020
0040
003C
ENDCHAR
STARTCHAR 0105
ENCODING 261
SWIDTH 480 0
DWIDTH 12 0
BBX 11 18 2 -5
BITMAP
3C00
C300
8100
0100
0100
0100
3F00
C100
8100
8100
8100
8300
4700
38C0
0180
0100
0100
01E0
ENDCHAR
STARTCHAR 0106
ENCODING 262
SWIDTH 600 0
DWIDTH 15 0
BBX 12 23 2 0
BITMAP
0100
0100
0200
0400
0000
0F00
30C0
4020
8020
8000
8000
8000
8000
8000
8000
8000
8000
8000
8000
8010
4020
2020
1FC0
ENDCHAR
STARTCHAR 0107
ENCODING 263
SWIDTH 480 0
DWIDTH 12 0
BBX 10 18 1 1
BITMAP
0300
0200
0400
0000
0000
1F00
2080
4040
8000
8000
8000
8000
8000
8000
8000
4000
4040
3F80
ENDCHAR
STARTCHAR 0108
ENCODING 264
SWIDTH 600 0
DWIDTH 15 0
BBX 12 23 2 0
BITMAP
0600
0900
1080
0000
0000
0F00
30C0
4020
8020
8000
8000
8000
8000
8000
8000
8000
8000
8000
8000
8010
4020
2020
1FC0
ENDCHAR
STARTCHAR 0109
ENCODING 265
SWIDTH 480 0
DWIDTH 12 0
BBX 10 19 1 0
BITMAP
0400
0A00
1100
2080
0000
0000
1F00
2080
4040
8000
8000
8000
8000
8000
8000
8000
4000
4040
3F80
ENDCHAR
STARTCHAR 010A
ENCODING 266
SWIDTH 600 0
DWIDTH 15 0
BBX 12 22 2 0
BITMAP
0200
0000
0000
0000
0F00
30C0
4020
8020
8000
8000
8000
8000
8000
8000
8000
8000
8000
8000
8010
4020
2020
1FC0
ENDCHAR
STARTCHAR 010B
ENCODING 267
SWIDTH 480 0
DWIDTH 12 0
BBX 10 17 1 0
BITMAP
0400
0000
0000
0000
1F00
2080
4040
8000
8000
8000
8000
8000
8000
8000
4000
4040
3F80
ENDCHAR
STARTCHAR 010C
ENCODING 268
SWIDTH 600 0
DWIDTH 15 0
BBX 12 23 2 0
BITMAP
1080
0900
0600
0000
0000
0F00
30C0
4020
8020
8000
8000
8000
8000
8000
8000
8000
8000
8000
8000
8010
4020
2020
1FC0
ENDCHAR
STARTCHAR 010D
ENCODING 269
SWIDTH 480 0
DWIDTH 12 0
BBX 10 19 1 0
BITMAP
2000
1180
0A00
0400
0000
0000
1F00
2080
4040
8000
8000
8000
8000
8000
8000
8000
4000
4040
3F80
ENDCHAR
STARTCHAR 010E
ENCODING 270
SWIDTH 640 0
DWIDTH 16 0
BBX 12 23 3 0
BITMAP
4100
2200
1400
0800
0000
0000
FF80
8040
8040
8020
8020
8020
8010
8010
8010
8010
8010
8020
8020
8020
8040
8080
FF00
ENDCHAR
STARTCHAR 010F
ENCODING 271
SWIDTH 560 0
DWIDTH 14 0
BBX 14 19 1 0
BITMAP
0024
0024
0028
0028
0020
0020
1F20
20A0
4060
C020
8020
8020
8020
8020
8020
8020
4020
4060
3FA0
ENDCHAR
STARTCHAR 0110
ENCODING 272
SWIDTH 640 0
DWIDTH 16 0
BBX 13 17 2 0
BITMAP
FFC0
8020
8010
8010
8010
8008
8008
8008
F808
8008
8008
8010
8010
8010
8020
8040
FF80
ENDCHAR
STARTCHAR 0111
ENCODING 273
SWIDTH 560 0
DWIDTH 14 0
BBX 11 19 1 0
BITMAP
0020
0020
0020
01E0
0020
0020
1F20
20A0
4060
C020
8020
8020
8020
8020
8020
8020
4020
4060
3FA0
ENDCHAR
STARTCHAR 0112
ENCODING 274
SWIDTH 560 0
DWIDTH 14 0
BBX 9 21 3 0
BITMAP
3E00
0000
0000
0000
FF80
8000
8000
8000
8000
8000
8000
8000
FF00
8000
8000
8000
8000
8000
8000
8000
FF80
ENDCHAR
STARTCHAR 0113
ENCODING 275
SWIDTH 520 0
DWIDTH 13 0
BBX 11 17 1 0
BITMAP
3F80
0000
0000
0000
1F00
2080
4040
8040
8020
8020
FFE0
8000
8000
8000
4040
4040
3F80
ENDCHAR
STARTCHAR 0114
ENCODING 276
SWIDTH 560 0
DWIDTH 14 0
BBX 9 23 3 0
BITMAP
4100
4200
2200
1C00
0000
0000
FF80
8000
8000
8000
8000
8000
8000
8000
FF00
8000
8000
8000
8000
8000
8000
8000
FF80
ENDCHAR
STARTCHAR 0115
ENCODING 277
SWIDTH 520 0
DWIDTH 13 0
BBX 11 18 1 0
BITMAP
2080
1100
0E00
0000
0000
1F00
2080
4040
8040
8020
8020
FFE0
8000
8000
8000
4040
4040
3F80
ENDCHAR
STARTCHAR 0116
ENCODING 278
SWIDTH 560 0
DWIDTH 14 0
BBX 9 22 3 0
BITMAP
0800
0000
0000
0000
0000
FF80
8000
8000
8000
8000
8000
8000
8000
FF00
8000
8000
8000
8000
8000
8000
8000
FF80
ENDCHAR
STARTCHAR 0117
ENCODING 279
SWIDTH 520 0
DWIDTH 13 0
BBX 11 17 1 0
BITMAP
0400
0000
0000
0000
1F00
2080
4040
8040
8020
8020
FFE0
8000
8000
8000
4040
4040
3F80
ENDCHAR
STARTCHAR 0118
ENCODING 280
SWIDTH 560 0
DWIDTH 14 0
BBX 9 22 3 -5
BITMAP
FF80
8000
8000
8000
8000
8000
8000
8000
FF00
8000
8000
8000
8000
8000
8000
8000
FF80
0100
0200
0400
0400
0380
ENDCHAR
STARTCHAR 0119
ENCODING 281
SWIDTH 520 0
DWIDTH 13 0
BBX 11 18 1 -5
BITMAP
1F00
2080
4040
8040
8020
8020
FFE0
8000
8000
8000
4040
4040
3080
0F00
0400
0400
0800
0700
ENDCHAR
STARTCHAR 011A
ENCODING 282
SWIDTH 560 0
DWIDTH 14 0
BBX 9 23 3 0
BITMAP
4100
2200
1400
0800
0000
0000
FF80
8000
8000
8000
8000
8000
8000
8000
FF00
8000
8000
8000
8000
8000
8000
8000
FF80
ENDCHAR
STARTCHAR 011B
ENCODING 283
SWIDTH 520 0
DWIDTH 13 0
BBX 11 19 1 0
BITMAP
2000
1180
0A00
0400
0000
0000
1F00
2080
4040
8040
8020
8020
FFE0
8000
8000
8000
4040
4040
3F80
ENDCHAR
STARTCHAR 011C
ENCODING 284
SWIDTH 640 0
DWIDTH 16 0
BBX 13 23 2 0
BITMAP
0600
0900
1080
0040
0000
0700
38C0
4020
C010
8000
8000
8000
8000
8000
8000
80F8
8008
8008
8008
8008
4018
2028
1FC8
ENDCHAR
STARTCHAR 011D
ENCODING 285
SWIDTH 520 0
DWIDTH 13 0
BBX 12 24 1 -5
BITMAP
0400
0A00
1100
2080
0000
0000
1FF0
2080
4040
4040
4040
4040
4080
2080
1F00
6000
4000
2000
3FE0
C020
8010
8020
8020
7FC0
ENDCHAR
STARTCHAR 011E
ENCODING 286
SWIDTH 640 0
DWIDTH 16 0
BBX 13 23 2 0
BITMAP
1040
1080
0880
0700
0000
0700
38C0
4020
C010
8000
8000
8000
8000
8000
8000
80F8
8008
8008
8008
8008
4018
2028
1FC8
ENDCHAR
STARTCHAR 011F
ENCODING 287
SWIDTH 520 0
DWIDTH 13 0
BBX 12 23 1 -5
BITMAP
2080
1100
0E00
0000
0000
1FF0
2080
4040
4040
4040
4040
4080
2080
1F00
6000
4000
2000
3FE0
C020
8010
8020
8020
7FC0
ENDCHAR
STARTCHAR 0120
ENCODING 288
SWIDTH 640 0
DWIDTH 16 0
BBX 13 22 2 0
BITMAP
0200
0000
0000
0000
0700
38C0
4020
C010
8000
8000
8000
8000
8000
8000
80F8
8008
8008
8008
8008
4018
2028
1FC8
ENDCHAR
STARTCHAR 0121
ENCODING 289
SWIDTH 520 0
DWIDTH 13 0
BBX 12 22 1 -5
BITMAP
0400
0000
0000
0000
1FF0
2080
4040
4040
4040
4040
4080
2080
1F00
6000
4000
2000
3FE0
C020
8010
8020
8020
7FC0
ENDCHAR
STARTCHAR 0122
ENCODING 290
SWIDTH 640 0
DWIDTH 16 0
BBX 13 23 2 -5
BITMAP
0700
38C0
4020
C010
8000
8000
8000
8000
8000
8000
80F8
8008
8008
8008
8008
4018
2028
1848
0780
0000
0200
0200
0200
ENDCHAR
STARTCHAR 0123
ENCODING 291
SWIDTH 520 0
DWIDTH 13 0
BBX 12 24 1 -5
BITMAP
0200
0400
0400
0400
0000
0000
1FF0
2080
4040
4040
4040
4040
4080
2080
1F00
6000
4000
2000
3FE0
C020
8010
8020
8020
7FC0
ENDCHAR
STARTCHAR 0124
ENCODING 292
SWIDTH 680 0
DWIDTH 17 0
BBX 12 23 3 0
BITMAP
0600
0A00
1100
2080
0000
0000
8010
8010
8010
8010
8010
8010
8010
8010
FFF0
8010
8010
8010
8010
8010
8010
8010
8010
ENDCHAR
STARTCHAR 0125
ENCODING 293
SWIDTH 520 0
DWIDTH 13 0
BBX 13 22 -1 1
BITMAP
3800
4400
8200
0000
1000
1000
1000
1000
1000
13C0
1C30
1010
1010
1008
1008
1008
1008
1008
1008
1008
1008
1008
ENDCHAR
STARTCHAR 0126
ENCODING 294
SWIDTH 680 0
DWIDTH 17 0
BBX 16 17 1 0
BITMAP
4004
4004
4004
FFFF
4004
4004
4004
4004
7FFC
4004
4004
4004
4004
4004
4004
4004
4004
ENDCHAR
STARTCHAR 0127
ENCODING 295
SWIDTH 520 0
DWIDTH 13 0
BBX 10 18 2 1
BITMAP
8000
8000
F000
8000
8000
9E00
E180
4080
8080
8040
8040
8040
8040
8040
8040
8040
8040
8040
ENDCHAR
STARTCHAR 0128
ENCODING 296
SWIDTH 360 0
DWIDTH 9 0
BBX 7 22 1 0
BITMAP
E0
1E
00
00
00
3C
10
10
10
10
10
10
10
10
10
10
10
10
10
10
10
3C
ENDCHAR
STARTCHAR 0129
ENCODING 297
SWIDTH 200 0
DWIDTH 5 0
BBX 7 17 -1 1
BITMAP
D8
06
00
00
00
10
10
10
10
10
10
10
10
10
10
10
10
ENDCHAR
STARTCHAR 012A
ENCODING 298
SWIDTH 360 0
DWIDTH 9 0
BBX 5 21 2 0
BITMAP
F8
00
00
00
78
20
20
20
20
20
20
20
20
20
20
20
20
20
20
20
78
ENDCHAR
STARTCHAR 012B
ENCODING 299
SWIDTH 200 0
DWIDTH 5 0
BBX 6 17 0 0
BITMAP
FC
00
00
00
00
20
20
20
20
20
20
20
20
20
20
20
20
ENDCHAR
STARTCHAR 012C
ENCODING 300
SWIDTH 360 0
DWIDTH 9 0
BBX 7 23 1 0
BITMAP
82
84
44
38
00
00
3C
10
10
10
10
10
10
10
10
10
10
10
10
10
10
10
3C
ENDCHAR
STARTCHAR 012D
ENCODING 301
SWIDTH 200 0
DWIDTH 5 0
BBX 6 18 0 0
BITMAP
84
88
70
00
00
00
20
20
20
20
20
20
20
20
20
20
20
20
ENDCHAR
STARTCHAR 012E
ENCODING 302
SWIDTH 360 0
DWIDTH 9 0
BBX 5 22 3 -5
BITMAP
F0
40
40
40
40
40
40
40
40
40
40
40
40
40
40
40
40
B0
20
40
40
38
ENDCHAR
STARTCHAR 012F
ENCODING 303
SWIDTH 200 0
DWIDTH 5 0
BBX 4 23 0 -5
BITMAP
20
00
00
00
00
00
20
20
20
20
20
20
20
20
20
20
20
20
20
40
80
80
70
ENDCHAR
STARTCHAR 0130
ENCODING 304
SWIDTH 360 0
DWIDTH 9 0
BBX 4 22 3 0
BITMAP
40
00
00
00
00
F0
40
40
40
40
40
40
40
40
40
40
40
40
40
40
40
F0
ENDCHAR
STARTCHAR 0131
ENCODING 305
SWIDTH 200 0
DWIDTH 5 0
BBX 1 12 2 1
BITMAP
80
80
80
80
80
80
80
80
80
80
80
80
ENDCHAR
STARTCHAR 0132
ENCODING 306
SWIDTH 600 0
DWIDTH 15 0
BBX 11 17 2 0
BITMAP
83E0
8020
8020
8020
8020
8020
8020
8020
8020
8020
0020
0020
0020
0020
8020
4040
3F80
ENDCHAR
STARTCHAR 0133
ENCODING 307
SWIDTH 440 0
DWIDTH 11 0
BBX 7 23 2 -5
BITMAP
82
00
00
00
00
02
82
82
82
82
82
82
82
82
82
82
82
82
02
02
02
02
06
ENDCHAR
STARTCHAR 0134
ENCODING 308
SWIDTH 440 0
DWIDTH 11 0
BBX 8 23 1 0
BITMAP
0C
12
21
00
00
00
3F
01
01
01
01
01
01
01
01
01
01
01
01
01
01
82
7E
ENDCHAR
STARTCHAR 0135
ENCODING 309
SWIDTH 200 0
DWIDTH 5 0
BBX 7 23 -1 -4
BITMAP
38
44
82
00
00
00
10
10
10
10
10
10
10
10
10
10
10
10
10
10
10
10
30
ENDCHAR
STARTCHAR 0136
ENCODING 310
SWIDTH 560 0
DWIDTH 14 0
BBX 10 22 3 -5
BITMAP
8040
8080
8100
8200
8400
8800
9000
B000
A800
C400
8400
8200
8100
8100
8080
8040
8040
0000
0000
0800
0800
0800
ENDCHAR
STARTCHAR 0137
ENCODING 311
SWIDTH 480 0
DWIDTH 12 0
BBX 8 23 3 -4
BITMAP
80
80
80
80
80
81
82
84
88
90
A0
E0
90
88
84
82
81
81
00
00
10
10
10
ENDCHAR
STARTCHAR 0138
ENCODING 312
SWIDTH 480 0
DWIDTH 12 0
BBX 8 12 3 1
BITMAP
83
84
88
90
A0
E0
90
88
84
82
83
81
ENDCHAR
STARTCHAR 0139
ENCODING 313
SWIDTH 440 0
DWIDTH 11 0
BBX 9 23 2 0
BITMAP
2000
4000
4000
8000
0000
0000
8000
8000
8000
8000
8000
8000
8000
8000
8000
8000
8000
8000
8000
8000
8000
8000
7F80
ENDCHAR
STARTCHAR 013A
ENCODING 314
SWIDTH 240 0
DWIDTH 6 0
BBX 3 23 2 1
BITMAP
20
40
80
00
00
80
80
80
80
80
80
80
80
80
80
80
80
80
80
80
80
80
80
ENDCHAR
STARTCHAR 013B
ENCODING 315
SWIDTH 440 0
DWIDTH 11 0
BBX 8 21 3 -5
BITMAP
80
80
80
80
80
80
80
80
80
80
80
80
80
80
80
80
FF
00
00
08
08
ENDCHAR
STARTCHAR 013C
ENCODING 316
SWIDTH 240 0
DWIDTH 6 0
BBX 2 22 3 -4
BITMAP
80
80
80
80
80
80
80
80
80
80
80
80
80
80
80
80
80
80
00
00
40
80
ENDCHAR
STARTCHAR 013D
ENCODING 317
SWIDTH 440 0
DWIDTH 11 0
BBX 8 19 3 0
BITMAP
10
10
90
A0
80
80
80
80
80
80
80
80
80
80
80
80
80
80
FF
ENDCHAR
STARTCHAR 013E
ENCODING 318
SWIDTH 240 0
DWIDTH 6 0
BBX 4 19 3 0
BITMAP
10
A0
A0
A0
80
80
80
80
80
80
80
80
80
80
80
80
80
80
80
ENDCHAR
STARTCHAR 013F
ENCODING 319
SWIDTH 440 0
DWIDTH 11 0
BBX 8 17 3 0
BITMAP
80
80
80
80
80
80
80
80
80
86
80
80
80
80
80
80
FF
ENDCHAR
STARTCHAR 0140
ENCODING 320
SWIDTH 240 0
DWIDTH 6 0
BBX 4 18 3 1
BITMAP
80
80
80
80
80
80
80
80
80
80
80
90
80
80
80
80
80
80
ENDCHAR
STARTCHAR 0141
ENCODING 321
SWIDTH 440 0
DWIDTH 11 0
BBX 10 17 1 0
BITMAP
4000
4000
4000
4000
4000
4000
4000
4200
5C00
E000
4000
4000
4000
4000
4000
4000
3FC0
ENDCHAR
STARTCHAR 0142
ENCODING 322
SWIDTH 240 0
DWIDTH 6 0
BBX 4 18 1 1
BITMAP
40
40
40
40
40
40
40
40
30
C0
40
40
40
40
40
40
40
20
ENDCHAR
STARTCHAR 0143
ENCODING 323
SWIDTH 680 0
DWIDTH 17 0
BBX 12 23 3 0
BITMAP
0100
0200
0400
0000
0000
0000
8010
C010
C010
A010
9010
9010
8810
8810
8410
8210
8210
8110
8090
8090
8050
8050
8030
ENDCHAR
STARTCHAR 0144
ENCODING 324
SWIDTH 520 0
DWIDTH 13 0
BBX 9 19 3 0
BITMAP
0200
0400
0800
1000
0000
0000
3C00
C300
8100
8100
8080
8080
8080
8080
8080
8080
8080
8080
8080
ENDCHAR
STARTCHAR 0145
ENCODING 325
SWIDTH 680 0
DWIDTH 17 0
BBX 12 22 3 -5
BITMAP
8010
C010
C010
A010
9010
9010
8810
8810
8410
8210
8210
8110
8090
8090
8050
8050
8030
0000
0000
0400
0400
0400
ENDCHAR
STARTCHAR 0146
ENCODING 326
SWIDTH 520 0
DWIDTH 13 0
BBX 9 17 3 -5
BITMAP
3C00
C300
8100
8100
8080
8080
8080
8080
8080
8080
8080
8080
8080
0000
0000
0800
1000
ENDCHAR
STARTCHAR 0147
ENCODING 327
SWIDTH 680 0
DWIDTH 17 0
BBX 12 23 3 0
BITMAP
2080
1100
0A00
0400
0000
0000
8010
C010
C010
A010
9010
9010
8810
8810
8410
8210
8210
8110
8090
8090
8050
8050
8030
ENDCHAR
STARTCHAR 0148
ENCODING 328
SWIDTH 520 0
DWIDTH 13 0
BBX 9 19 3 0
BITMAP
0100
4200
2400
1800
0000
0000
3C00
C300
8100
8100
8080
8080
8080
8080
8080
8080
8080
8080
8080
ENDCHAR
STARTCHAR 0149
ENCODING 329
SWIDTH 760 0
DWIDTH 19 0
BBX 15 19 2 0
BITMAP
4000
4000
4000
8000
8000
0000
00F0
070C
0204
0402
0402
0402
0402
0402
0402
0402
0402
0402
0402
ENDCHAR
STARTCHAR 014A
ENCODING 330
SWIDTH 680 0
DWIDTH 17 0
BBX 12 22 3 -5
BITMAP
8010
C010
C010
A010
9010
9010
8810
8810
8410
8210
8210
8110
8090
8090
8050
8050
8030
0010
0010
0010
0010
0030
ENDCHAR
STARTCHAR 014B
ENCODING 331
SWIDTH 520 0
DWIDTH 13 0
BBX 9 18 3 -5
BITMAP
3C00
C300
8100
8100
8080
8080
8080
8080
8080
8080
8080
8080
8080
0080
0080
0080
0080
0180
ENDCHAR
STARTCHAR 014C
ENCODING 332
SWIDTH 680 0
DWIDTH 17 0
BBX 13 21 2 0
BITMAP
0F80
0000
0000
0700
38E0
4010
C010
8008
8008
8008
8008
8008
8008
8008
8008
8008
8008
8010
4010
2020
1FC0
ENDCHAR
STARTCHAR 014D
ENCODING 333
SWIDTH 520 0
DWIDTH 13 0
BBX 11 17 1 0
BITMAP
1F80
0000
0000
0000
1F00
2080
4040
8020
8020
8020
8020
8020
8020
8020
4040
4040
3F80
ENDCHAR
STARTCHAR 014E
ENCODING 334
SWIDTH 680 0
DWIDTH 17 0
BBX 13 23 2 0
BITMAP
1040
1080
0880
0700
0000
0700
38E0
4010
C010
8008
8008
8008
8008
8008
8008
8008
8008
8008
8008
8010
4010
2020
1FC0
ENDCHAR
STARTCHAR 014F
ENCODING 335
SWIDTH 520 0
DWIDTH 13 0
BBX 11 18 1 0
BITMAP
2080
1100
0E00
0000
0000
1F00
2080
4040
8020
8020
8020
8020
8020
8020
8020
4040
4040
3F80
ENDCHAR
STARTCHAR 0150
ENCODING 336
SWIDTH 680 0
DWIDTH 17 0
BBX 13 23 2 0
BITMAP
0220
0440
0440
0880
0000
0700
38E0
4010
C010
8008
8008
8008
8008
8008
8008
8008
8008
8008
8008
8010
4010
2020
1FC0
ENDCHAR
STARTCHAR 0151
ENCODING 337
SWIDTH 520 0
DWIDTH 13 0
BBX 11 19 1 0
BITMAP
0220
0440
0880
1100
0000
0000
1F00
2080
4040
8020
8020
8020
8020
8020
8020
8020
4040
4040
3F80
ENDCHAR
STARTCHAR 0152
ENCODING 338
SWIDTH 960 0
DWIDTH 24 0
BBX 20 18 2 0
BITMAP
07C000
183FF0
602000
402000
802000
802000
802000
802000
802000
803FF0
802000
802000
802000
802000
802000
402000
202000
1FFFF0
ENDCHAR
STARTCHAR 0153
ENCODING 339
SWIDTH 920 0
DWIDTH 23 0
BBX 21 13 1 0
BITMAP
1F07C0
208820
405010
802010
802008
802008
803FF8
802000
802000
802000
405010
405010
3F8FE0
ENDCHAR
STARTCHAR 0154
ENCODING 340
SWIDTH 600 0
DWIDTH 15 0
BBX 11 23 3 0
BITMAP
0200
0400
0800
0000
0000
0000
FF80
8040
8020
8020
8020
8020
8040
8040
FF80
8200
8200
8100
8100
8080
8040
8040
8020
ENDCHAR
STARTCHAR 0155
ENCODING 341
SWIDTH 320 0
DWIDTH 8 0
BBX 5 19 3 0
BITMAP
08
10
20
20
00
00
18
E0
80
80
80
80
80
80
80
80
80
80
80
ENDCHAR
STARTCHAR 0156
ENCODING 342
SWIDTH 600 0
DWIDTH 15 0
BBX 11 22 3 -5
BITMAP
FF80
8040
8020
8020
8020
8020
8040
8040
FF80
8200
8200
8100
8100
8080
8040
8040
8020
0000
0000
0800
0800
0800
ENDCHAR
STARTCHAR 0157
ENCODING 343
SWIDTH 320 0
DWIDTH 8 0
BBX 6 18 2 -5
BITMAP
0C
B0
40
80
80
80
80
80
80
80
80
80
80
00
00
80
80
80
ENDCHAR
STARTCHAR 0158
ENCODING 344
SWIDTH 600 0
DWIDTH 15 0
BBX 11 23 3 0
BITMAP
4100
2200
1400
0800
0000
0000
FF80
8040
8020
8020
8020
8020
8040
8040
FF80
8200
8200
8100
8100
8080
8040
8040
8020
ENDCHAR
STARTCHAR 0159
ENCODING 345
SWIDTH 320 0
DWIDTH 8 0
BBX 7 19 2 0
BITMAP
80
46
28
10
00
00
0C
B0
40
80
80
80
80
80
80
80
80
80
80
ENDCHAR
STARTCHAR 015A
ENCODING 346
SWIDTH 520 0
DWIDTH 13 0
BBX 11 23 1 0
BITMAP
0100
0200
0400
0400
0000
0F00
30C0
4020
8000
8000
8000
8000
4000
3800
0780
0040
0020
0020
0020
0020
8020
4040
3F80
ENDCHAR
STARTCHAR 015B
ENCODING 347
SWIDTH 440 0
DWIDTH 11 0
BBX 9 19 1 0
BITMAP
0200
0400
0400
0800
0000
0000
3E00
4100
8000
8000
8000
4000
3C00
0300
0080
0080
0080
8080
7F00
ENDCHAR
STARTCHAR 015C
ENCODING 348
SWIDTH 520 0
DWIDTH 13 0
BBX 11 23 1 0
BITMAP
0600
0900
1080
0000
0000
0F00
30C0
4020
8000
8000
8000
8000
4000
3800
0780
0040
0020
0020
0020
0020
8020
4040
3F80
ENDCHAR
STARTCHAR 015D
ENCODING 349
SWIDTH 440 0
DWIDTH 11 0
BBX 9 19 1 0
BITMAP
0800
1400
2200
4100
0000
0000
3E00
4100
8000
8000
8000
4000
3C00
0300
0080
0080
0080
8080
7F00
ENDCHAR
STARTCHAR 015E
ENCODING 350
SWIDTH 520 0
DWIDTH 13 0
BBX 11 23 1 -5
BITMAP
0F00
30C0
4020
8000
8000
8000
8000
4000
3800
0780
0040
0020
0020
0020
0020
8020
4040
3080
0F00
0400
0300
0100
0F00
ENDCHAR
STARTCHAR 015F
ENCODING 351
SWIDTH 440 0
DWIDTH 11 0
BBX 9 18 1 -5
BITMAP
3E00
4100
8000
8000
8000
4000
3C00
0300
0080
0080
0080
8080
6100
1E00
0800
0600
0200
1E00
ENDCHAR
STARTCHAR 0160
ENCODING 352
SWIDTH 520 0
DWIDTH 13 0
BBX 11 23 1 0
BITMAP
2080
1100
0A00
0400
0000
0F00
30C0
4020
8000
8000
8000
8000
4000
3800
0780
0040
0020
0020
0020
0020
8020
4040
3F80
ENDCHAR
STARTCHAR 0161
ENCODING 353
SWIDTH 440 0
DWIDTH 11 0
BBX 9 19 1 0
BITMAP
4000
2300
1400
0800
0000
0000
3E00
4100
8000
8000
8000
4000
3C00
0300
0080
0080
0080
8080
7F00
ENDCHAR
STARTCHAR 0162
ENCODING 354
SWIDTH 560 0
DWIDTH 14 0
BBX 12 22 1 -5
BITMAP
FFF0
0400
0400
0400
0400
0400
0400
0400
0400
0400
0400
0400
0400
0400
0400
0400
0400
0000
0000
0600
0400
0400
ENDCHAR
STARTCHAR 0163
ENCODING 355
SWIDTH 280 0
DWIDTH 7 0
BBX 6 21 1 -5
BITMAP
20
20
20
FC
20
20
20
20
20
20
20
20
20
20
20
20
10
00
10
10
10
ENDCHAR
STARTCHAR 0164
ENCODING 356
SWIDTH 560 0
DWIDTH 14 0
BBX 12 23 1 0
BITMAP
1080
0900
0600
0000
0000
0000
FFF0
0400
0400
0400
0400
0400
0400
0400
0400
0400
0400
0400
0400
0400
0400
0400
0400
ENDCHAR
STARTCHAR 0165
ENCODING 357
SWIDTH 280 0
DWIDTH 7 0
BBX 6 18 1 1
BITMAP
04
04
24
24
20
FC
20
20
20
20
20
20
20
20
20
20
20
30
ENDCHAR
STARTCHAR 0166
ENCODING 358
SWIDTH 560 0
DWIDTH 14 0
BBX 12 17 1 0
BITMAP
FFF0
0400
0400
0400
0400
0400
0400
7FE0
0400
0400
0400
0400
0400
0400
0400
0400
0400
ENDCHAR
STARTCHAR 0167
ENCODING 359
SWIDTH 280 0
DWIDTH 7 0
BBX 6 16 1 0
BITMAP
20
20
20
FC
20
20
20
20
20
70
20
20
20
20
20
38
ENDCHAR
STARTCHAR 0168
ENCODING 360
SWIDTH 640 0
DWIDTH 16 0
BBX 12 22 2 0
BITMAP
1C00
0380
0000
0000
0000
8010
8010
8010
8010
8010
8010
8010
8010
8010
8010
8010
8010
8010
8010
4020
4020
3FC0
ENDCHAR
STARTCHAR 0169
ENCODING 361
SWIDTH 520 0
DWIDTH 13 0
BBX 9 18 2 0
BITMAP
1000
6C00
0300
0000
0000
8000
8080
8080
8080
8080
8080
8080
8080
8080
8080
8080
4180
3F80
ENDCHAR
STARTCHAR 016A
ENCODING 362
SWIDTH 640 0
DWIDTH 16 0
BBX 12 21 2 0
BITMAP
0F00
0000
0000
0000
8010
8010
8010
8010
8010
8010
8010
8010
8010
8010
8010
8010
8010
8010
4020
4020
3FC0
ENDCHAR
STARTCHAR 016B
ENCODING 363
SWIDTH 520 0
DWIDTH 13 0
BBX 9 17 2 0
BITMAP
3F00
0000
0000
0000
8000
8080
8080
8080
8080
8080
8080
8080
8080
8080
8080
4180
3F80
ENDCHAR
STARTCHAR 016C
ENCODING 364
SWIDTH 640 0
DWIDTH 16 0
BBX 12 22 2 1
BITMAP
1080
0900
0600
0000
0000
8010
8010
8010
8010
8010
8010
8010
8010
8010
8010
8010
8010
8010
8010
4020
4020
3FC0
ENDCHAR
STARTCHAR 016D
ENCODING 365
SWIDTH 520 0
DWIDTH 13 0
BBX 9 18 2 0
BITMAP
4100
2200
1C00
0000
0000
8000
8080
8080
8080
8080
8080
8080
8080
8080
8080
8080
4180
3F80
ENDCHAR
STARTCHAR 016E
ENCODING 366
SWIDTH 640 0
DWIDTH 16 0
BBX 12 24 2 0
BITMAP
0600
0900
1100
0900
0600
0000
0000
8010
8010
8010
8010
8010
8010
8010
8010
8010
8010
8010
8010
8010
8010
4020
4020
3FC0
ENDCHAR
STARTCHAR 016F
ENCODING 367
SWIDTH 520 0
DWIDTH 13 0
BBX 9 19 2 0
BITMAP
1E00
2200
2200
1200
0C00
0000
8000
8080
8080
8080
8080
8080
8080
8080
8080
8080
8080
4180
3F80
ENDCHAR
STARTCHAR 0170
ENCODING 368
SWIDTH 640 0
DWIDTH 16 0
BBX 12 23 2 0
BITMAP
0220
0440
0880
0000
0000
0000
8010
8010
8010
8010
8010
8010
8010
8010
8010
8010
8010
8010
8010
8010
4020
4020
3FC0
ENDCHAR
STARTCHAR 0171
ENCODING 369
SWIDTH 520 0
DWIDTH 13 0
BBX 10 19 2 0
BITMAP
0440
0880
1100
2200
0000
0000
8000
8080
8080
8080
8080
8080
8080
8080
8080
8080
8080
4180
3F80
ENDCHAR
STARTCHAR 0172
ENCODING 370
SWIDTH 640 0
DWIDTH 16 0
BBX 12 22 2 -5
BITMAP
8010
8010
8010
8010
8010
8010
8010
8010
8010
8010
8010
8010
8010
8020
4020
4020
30C0
0F00
0200
0400
0400
0380
ENDCHAR
STARTCHAR 0173
ENCODING 371
SWIDTH 520 0
DWIDTH 13 0
BBX 10 18 2 -5
BITMAP
8000
8080
8080
8080
8080
8080
8080
8080
8080
8080
8080
4180
2180
1E80
0100
0200
0200
01C0
ENDCHAR
STARTCHAR 0174
ENCODING 372
SWIDTH 840 0
DWIDTH 21 0
BBX 20 23 1 0
BITMAP
006000
009000
010800
000000
000000
000000
806010
80A010
80A020
80A020
409020
411040
411040
410840
210840
220880
220880
120480
140480
140500
140500
0C0300
080100
ENDCHAR
STARTCHAR 0175
ENCODING 373
SWIDTH 720 0
DWIDTH 18 0
BBX 16 18 1 1
BITMAP
0380
0440
0820
0000
0000
0000
8181
8181
8282
4242
4242
4444
2424
2424
2828
2828
1818
0808
ENDCHAR
STARTCHAR 0176
ENCODING 374
SWIDTH 520 0
DWIDTH 13 0
BBX 12 23 1 0
BITMAP
0600
0900
1080
0000
0000
0000
8010
8020
4040
2040
2080
1080
1100
0A00
0E00
0400
0400
0400
0400
0400
0400
0400
0400
ENDCHAR
STARTCHAR 0177
ENCODING 375
SWIDTH 440 0
DWIDTH 11 0
BBX 10 24 1 -5
BITMAP
0800
1400
2200
4100
0000
0000
0040
8080
8080
8080
4100
4100
4200
2200
2200
1400
1400
1400
0800
0800
1000
1000
1000
6000
ENDCHAR
STARTCHAR 0178
ENCODING 376
SWIDTH 520 0
DWIDTH 13 0
BBX 12 22 1 0
BITMAP
1080
1000
0000
0000
0000
8010
8020
4040
2040
2080
1080
1100
0A00
0E00
0400
0400
0400
0400
0400
0400
0400
0400
ENDCHAR
STARTCHAR 0179
ENCODING 377
SWIDTH 520 0
DWIDTH 13 0
BBX 12 23 1 0
BITMAP
0100
0200
0200
0400
0000
0000
7FE0
0020
0040
0080
0080
0100
0200
0200
0400
0800
0800
1000
2000
2000
4000
8000
FFF0
ENDCHAR
STARTCHAR 017A
ENCODING 378
SWIDTH 400 0
DWIDTH 10 0
BBX 9 19 1 0
BITMAP
0200
0400
0800
1000
0000
0000
FF80
0100
0200
0200
0400
0800
0800
1000
2000
4000
4000
8000
FF00
ENDCHAR
STARTCHAR 017B
ENCODING 379
SWIDTH 520 0
DWIDTH 13 0
BBX 12 22 1 0
BITMAP
0200
0000
0000
0000
0000
7FE0
0020
0040
0080
0080
0100
0200
0200
0400
0800
0800
1000
2000
2000
4000
8000
FFF0
ENDCHAR
STARTCHAR 017C
ENCODING 380
SWIDTH 400 0
DWIDTH 10 0
BBX 9 17 1 0
BITMAP
0800
0000
0000
0000
FF80
0100
0200
0200
0400
0800
0800
1000
2000
4000
4000
8000
FF00
ENDCHAR
STARTCHAR 017D
ENCODING 381
SWIDTH 520 0
DWIDTH 13 0
BBX 12 23 1 0
BITMAP
1080
0900
0600
0000
0000
0000
7FE0
0020
0040
0080
0080
0100
0200
0200
0400
0800
0800
1000
2000
2000
4000
8000
FFF0
ENDCHAR
STARTCHAR 017E
ENCODING 382
SWIDTH 400 0
DWIDTH 10 0
BBX 9 19 1 0
BITMAP
0100
4200
2400
1800
0000
0000
FF80
0100
0200
0200
0400
0800
0800
1000
2000
4000
4000
8000
FF00
ENDCHAR
STARTCHAR 018F
ENCODING 399
SWIDTH 680 0
DWIDTH 17 0
BBX 13 18 2 0
BITMAP
0700
38C0
4020
8010
8008
0008
0008
0008
0008
FFF8
8008
8008
8008
8008
8010
4010
2020
1FC0
ENDCHAR
STARTCHAR 0192
ENCODING 402
SWIDTH 480 0
DWIDTH 12 0
BBX 11 20 0 -3
BITMAP
03E0
0200
0200
0200
0400
0400
0400
0400
0400
3FC0
0400
0400
0400
0400
0800
0800
0800
0800
0800
F800
ENDCHAR
STARTCHAR 01A0
ENCODING 416
SWIDTH 680 0
DWIDTH 17 0
BBX 13 20 2 0
BITMAP
0008
0008
0788
3870
4020
C010
8008
8008
8008
8008
8008
8008
8008
8008
8008
8008
8010
4010
2020
1FC0
ENDCHAR
STARTCHAR 01A1
ENCODING 417
SWIDTH 520 0
DWIDTH 13 0
BBX 11 15 1 0
BITMAP
0020
0020
1FE0
2080
4040
8020
8020
8020
8020
8020
8020
8020
4040
4040
3F80
ENDCHAR
STARTCHAR 01AF
ENCODING 431
SWIDTH 640 0
DWIDTH 16 0
BBX 14 20 2 0
BITMAP
0004
0004
0004
8018
8010
8010
8010
8010
8010
8010
8010
8010
8010
8010
8010
8010
8010
4020
4020
3FC0
ENDCHAR
STARTCHAR 01B0
ENCODING 432
SWIDTH 520 0
DWIDTH 13 0
BBX 11 15 2 0
BITMAP
0020
0020
8060
8080
8080
8080
8080
8080
8080
8080
8080
8080
8080
4180
3F80
ENDCHAR
STARTCHAR 01FA
ENCODING 506
SWIDTH 600 0
DWIDTH 15 0
BBX 13 27 1 0
BITMAP
0100
0200
0200
0700
0880
0880
0880
0700
0000
0000
0600
0500
0500
0900
0880
0880
1080
1040
2040
2040
2020
5FE0
4010
4010
8010
8008
8008
ENDCHAR
STARTCHAR 01FB
ENCODING 507
SWIDTH 480 0
DWIDTH 12 0
BBX 9 22 2 1
BITMAP
0400
0800
0000
3C00
2400
2400
2400
1800
0000
3C00
C300
8100
0100
0100
0100
3F00
C100
8100
8100
8100
8300
7C80
ENDCHAR
STARTCHAR 01FC
ENCODING 508
SWIDTH 840 0
DWIDTH 21 0
BBX 20 23 0 0
BITMAP
000080
000100
000100
000200
000000
000000
007FE0
00A000
00A000
012000
012000
022000
042000
042000
083FE0
082000
102000
1FE000
202000
202000
402000
802000
803FF0
ENDCHAR
STARTCHAR 01FD
ENCODING 509
SWIDTH 840 0
DWIDTH 21 0
BBX 19 19 1 0
BITMAP
001000
002000
002000
004000
000000
000000
1E0F00
613080
00C040
004020
008020
008020
1FFFE0
608000
808000
804000
80C020
80A040
7F1F80
ENDCHAR
STARTCHAR 01FE
ENCODING 510
SWIDTH 680 0
DWIDTH 17 0
BBX 13 24 2 -1
BITMAP
0080
0100
0200
0000
0000
0788
3870
4010
C030
8048
8088
8088
8108
8208
8208
8408
8808
8808
9008
A010
6010
6020
98C0
0700
ENDCHAR
STARTCHAR 01FF
ENCODING 511
SWIDTH 520 0
DWIDTH 13 0
BBX 11 19 1 0
BITMAP
0100
0200
0400
0000
0000
0F20
30C0
40C0
40A0
8120
8220
8420
8820
8820
9020
6040
2040
D080
0F00
ENDCHAR
STARTCHAR 0218
ENCODING 536
SWIDTH 520 0
DWIDTH 13 0
BBX 11 23 1 -5
BITMAP
0F00
30C0
4020
8000
8000
8000
8000
4000
3800
0780
0040
0020
0020
0020
0020
8020
4040
3080
0F00
0000
0400
0400
0400
ENDCHAR
STARTCHAR 0219
ENCODING 537
SWIDTH 440 0
DWIDTH 11 0
BBX 9 18 1 -5
BITMAP
3E00
4100
8000
8000
8000
4000
3C00
0300
0080
0080
0080
8080
6100
1E00
0000
0C00
0800
0800
ENDCHAR
STARTCHAR 021A
ENCODING 538
SWIDTH 560 0
DWIDTH 14 0
BBX 12 22 1 -5
BITMAP
FFF0
0400
0400
0400
0400
0400
0400
0400
0400
0400
0400
0400
0400
0400
0400
0400
0400
0000
0000
0600
0400
0400
ENDCHAR
STARTCHAR 021B
ENCODING 539
SWIDTH 280 0
DWIDTH 7 0
BBX 6 21 1 -5
BITMAP
20
20
20
FC
20
20
20
20
20
20
20
20
20
20
20
20
10
00
10
10
10
ENDCHAR
STARTCHAR 0237
ENCODING 567
SWIDTH 200 0
DWIDTH 5 0
BBX 2 17 1 -4
BITMAP
40
40
40
40
40
40
40
40
40
40
40
40
40
40
40
40
C0
ENDCHAR
STARTCHAR 0259
ENCODING 601
SWIDTH 520 0
DWIDTH 13 0
BBX 11 13 1 0
BITMAP
1F00
2080
4040
0040
0020
0020
0020
FFE0
8020
8020
4040
4040
3F00
ENDCHAR
STARTCHAR 02BB
ENCODING 699
SWIDTH 600 0
DWIDTH 15 0
BBX 1 3 7 16
BITMAP
80
80
80
ENDCHAR
STARTCHAR 02BC
ENCODING 700
SWIDTH 600 0
DWIDTH 15 0
BBX 1 4 6 14
BITMAP
80
80
80
80
ENDCHAR
STARTCHAR 02C6
ENCODING 710
SWIDTH 600 0
DWIDTH 15 0
BBX 7 4 4 15
BITMAP
10
28
44
82
ENDCHAR
STARTCHAR 02C7
ENCODING 711
SWIDTH 600 0
DWIDTH 15 0
BBX 7 4 4 15
BITMAP
82
44
28
10
ENDCHAR
STARTCHAR 02D8
ENCODING 728
SWIDTH 600 0
DWIDTH 15 0
BBX 7 3 4 15
BITMAP
82
44
38
ENDCHAR
STARTCHAR 02D9
ENCODING 729
SWIDTH 600 0
DWIDTH 15 0
BBX 1 1 7 16
BITMAP
80
ENDCHAR
STARTCHAR 02DA
ENCODING 730
SWIDTH 600 0
DWIDTH 15 0
BBX 5 4 5 15
BITMAP
70
88
88
70
ENDCHAR
STARTCHAR 02DB
ENCODING 731
SWIDTH 600 0
DWIDTH 15 0
BBX 4 5 4 -5
BITMAP
20
C0
80
80
F0
ENDCHAR
STARTCHAR 02DC
ENCODING 732
SWIDTH 600 0
DWIDTH 15 0
BBX 7 1 4 17
BITMAP
BE
ENDCHAR
STARTCHAR 02DD
ENCODING 733
SWIDTH 600 0
DWIDTH 15 0
BBX 7 3 5 16
BITMAP
22
44
88
ENDCHAR
STARTCHAR 0300
ENCODING 768
SWIDTH 0 0
DWIDTH 0 0
BBX 2 3 -2 16
BITMAP
80
40
40
ENDCHAR
STARTCHAR 0301
ENCODING 769
SWIDTH 0 0
DWIDTH 0 0
BBX 3 3 -1 16
BITMAP
20
40
80
ENDCHAR
STARTCHAR 0302
ENCODING 770
SWIDTH 0 0
DWIDTH 0 0
BBX 6 3 -3 16
BITMAP
70
88
84
ENDCHAR
STARTCHAR 0303
ENCODING 771
SWIDTH 0 0
DWIDTH 0 0
BBX 8 1 -4 17
BITMAP
DF
ENDCHAR
STARTCHAR 0304
ENCODING 772
SWIDTH 0 0
DWIDTH 0 0
BBX 6 1 -3 16
BITMAP
FC
ENDCHAR
STARTCHAR 0306
ENCODING 774
SWIDTH 0 0
DWIDTH 0 0
BBX 6 3 -3 15
BITMAP
84
88
70
ENDCHAR
STARTCHAR 0307
ENCODING 775
SWIDTH 0 0
DWIDTH 0 0
BBX 2 1 -1 16
BITMAP
C0
ENDCHAR
STARTCHAR 0308
ENCODING 776
SWIDTH 0 0
DWIDTH 0 0
BBX 6 1 -3 16
BITMAP
84
ENDCHAR
STARTCHAR 0309
ENCODING 777
SWIDTH 0 0
DWIDTH 0 0
BBX 3 3 -1 15
BITMAP
E0
40
40
ENDCHAR
STARTCHAR 030A
ENCODING 778
SWIDTH 0 0
DWIDTH 0 0
BBX 4 4 -2 15
BITMAP
F0
90
90
F0
ENDCHAR
STARTCHAR 030B
ENCODING 779
SWIDTH 0 0
DWIDTH 0 0
BBX 7 4 -2 15
BITMAP
22
44
88
88
ENDCHAR
STARTCHAR 030C
ENCODING 780
SWIDTH 0 0
DWIDTH 0 0
BBX 6 3 -3 16
BITMAP
84
48
30
ENDCHAR
STARTCHAR 0312
ENCODING 786
SWIDTH 0 0
DWIDTH 0 0
BBX 2 4 -1 15
BITMAP
40
80
80
C0
ENDCHAR
STARTCHAR 0315
ENCODING 789
SWIDTH 0 0
DWIDTH 0 0
BBX 1 5 0 14
BITMAP
80
80
80
80
80
ENDCHAR
STARTCHAR 031B
ENCODING 795
SWIDTH 0 0
DWIDTH 0 0
BBX 3 3 -2 12
BITMAP
20
20
E0
ENDCHAR
STARTCHAR 0323
ENCODING 803
SWIDTH 0 0
DWIDTH 0 0
BBX 2 1 -1 -3
BITMAP
C0
ENDCHAR
STARTCHAR 0326
ENCODING 806
SWIDTH 0 0
DWIDTH 0 0
BBX 2 3 -1 -5
BITMAP
C0
80
80
ENDCHAR
STARTCHAR 0327
ENCODING 807
SWIDTH 0 0
DWIDTH 0 0
BBX 4 4 -2 -4
BITMAP
40
30
10
F0
ENDCHAR
STARTCHAR 0328
ENCODING 808
SWIDTH 0 0
DWIDTH 0 0
BBX 3 5 -3 -5
BITMAP
60
80
80
80
E0
ENDCHAR
STARTCHAR 037E
ENCODING 894
SWIDTH 240 0
DWIDTH 6 0
BBX 2 15 2 -4
BITMAP
40
00
00
00
00
00
00
00
00
00
00
40
40
80
80
ENDCHAR
STARTCHAR 0384
ENCODING 900
SWIDTH 600 0
DWIDTH 15 0
BBX 2 3 7 16
BITMAP
40
80
80
ENDCHAR
STARTCHAR 0385
ENCODING 901
SWIDTH 600 0
DWIDTH 15 0
BBX 5 4 5 15
BITMAP
10
20
A8
40
ENDCHAR
STARTCHAR 0386
ENCODING 902
SWIDTH 600 0
DWIDTH 15 0
BBX 13 18 1 1
BITMAP
2000
2600
4500
0500
0900
0880
0880
1080
1040
2040
2040
2020
5FE0
4010
4010
8010
8008
8008
ENDCHAR
STARTCHAR 0387
ENCODING 903
SWIDTH 240 0
DWIDTH 6 0
BBX 1 1 3 11
BITMAP
80
ENDCHAR
STARTCHAR 0388
ENCODING 904
SWIDTH 560 0
DWIDTH 14 0
BBX 14 19 -1 0
BITMAP
2000
4000
4FF8
8800
0800
0800
0800
0800
0800
0800
0FF8
0800
0800
0800
0800
0800
0800
0800
0FFC
ENDCHAR
STARTCHAR 0389
ENCODING 905
SWIDTH 680 0
DWIDTH 17 0
BBX 16 19 -1 0
BITMAP
2000
4000
4801
8801
0801
0801
0801
0801
0801
0801
0FFF
0801
0801
0801
0801
0801
0801
0801
0801
ENDCHAR
STARTCHAR 038A
ENCODING 906
SWIDTH 400 0
DWIDTH 10 0
BBX 9 19 -1 0
BITMAP
2000
4000
4780
8200
0200
0200
0200
0200
0200
0200
0200
0200
0200
0200
0200
0200
0200
0200
0780
ENDCHAR
STARTCHAR 038C
ENCODING 908
SWIDTH 680 0
DWIDTH 17 0
BBX 16 19 -1 0
BITMAP
2000
40E0
471C
8802
1802
1001
1001
2001
2001
2001
2001
2001
2001
1001
1001
1002
0802
0404
03F8
ENDCHAR
STARTCHAR 038E
ENCODING 910
SWIDTH 600 0
DWIDTH 15 0
BBX 16 19 -1 0
BITMAP
2000
4000
4801
8802
0404
0204
0208
0108
0110
00A0
00E0
0040
0040
0040
0040
0040
0040
0040
0040
ENDCHAR
STARTCHAR 038F
ENCODING 911
SWIDTH 680 0
DWIDTH 17 0
BBX 17 19 -1 0
BITMAP
200000
40F000
430C00
8C0200
080100
100100
100100
100100
300080
200080
200080
100100
100100
100100
100100
080200
040400
020800
1F1F00
ENDCHAR
STARTCHAR 0390
ENCODING 912
SWIDTH 240 0
DWIDTH 6 0
BBX 6 18 0 1
BITMAP
10
E4
20
00
00
00
20
20
20
20
20
20
20
20
20
20
20
28
ENDCHAR
STARTCHAR 0391
ENCODING 913
SWIDTH 600 0
DWIDTH 15 0
BBX 13 17 1 0
BITMAP
0600
0500
0500
0900
0880
0880
1080
1040
2040
2040
2020
5FE0
4010
4010
8010
8008
8008
ENDCHAR
STARTCHAR 0392
ENCODING 914
SWIDTH 600 0
DWIDTH 15 0
BBX 11 17 3 0
BITMAP
FF80
8040
8040
8040
8040
8040
8080
8300
FC80
8040
8020
8020
8020
8020
8040
8040
FF80
ENDCHAR
STARTCHAR 0393
ENCODING 915
SWIDTH 480 0
DWIDTH 12 0
BBX 8 17 3 0
BITMAP
FF
80
80
80
80
80
80
80
80
80
80
80
80
80
80
80
80
ENDCHAR
STARTCHAR 0394
ENCODING 916
SWIDTH 600 0
DWIDTH 15 0
BBX 13 17 1 0
BITMAP
0600
0500
0500
0900
0880
0880
1080
1040
2040
2040
2020
4020
4010
4010
8010
8008
FFF8
ENDCHAR
STARTCHAR 0395
ENCODING 917
SWIDTH 560 0
DWIDTH 14 0
BBX 9 17 3 0
BITMAP
FF80
8000
8000
8000
8000
8000
8000
8000
FF00
8000
8000
8000
8000
8000
8000
8000
FF80
ENDCHAR
STARTCHAR 0396
ENCODING 918
SWIDTH 520 0
DWIDTH 13 0
BBX 12 17 1 0
BITMAP
7FE0
0020
0040
0080
0080
0100
0200
0200
0400
0800
0800
1000
2000
2000
4000
8000
FFF0
ENDCHAR
STARTCHAR 0397
ENCODING 919
SWIDTH 680 0
DWIDTH 17 0
BBX 12 17 3 0
BITMAP
8010
8010
8010
8010
8010
8010
8010
8010
FFF0
8010
8010
8010
8010
8010
8010
8010
8010
ENDCHAR
STARTCHAR 0398
ENCODING 920
SWIDTH 680 0
DWIDTH 17 0
BBX 13 18 2 0
BITMAP
0700
38E0
4010
C010
8008
8008
8008
8008
8008
9FC8
8008
8008
8008
8008
8010
4010
2020
1FC0
ENDCHAR
STARTCHAR 0399
ENCODING 921
SWIDTH 360 0
DWIDTH 9 0
BBX 4 17 3 0
BITMAP
F0
40
40
40
40
40
40
40
40
40
40
40
40
40
40
40
F0
ENDCHAR
STARTCHAR 039A
ENCODING 922
SWIDTH 560 0
DWIDTH 14 0
BBX 10 17 3 0
BITMAP
8040
8080
8100
8200
8400
8800
9000
B000
A800
C400
8400
8200
8100
8100
8080
8040
8040
ENDCHAR
STARTCHAR 039B
ENCODING 923
SWIDTH 560 0
DWIDTH 14 0
BBX 13 17 1 0
BITMAP
0600
0600
0500
0900
0880
1080
1080
1040
2040
2040
2020
4020
4020
4010
8010
8010
8008
ENDCHAR
STARTCHAR 039C
ENCODING 924
SWIDTH 760 0
DWIDTH 19 0
BBX 14 17 3 0
BITMAP
800C
C00C
C014
A014
9024
9044
8844
8884
8484
8304
8204
8004
8004
8004
8004
8004
8004
ENDCHAR
STARTCHAR 039D
ENCODING 925
SWIDTH 680 0
DWIDTH 17 0
BBX 12 17 3 0
BITMAP
8010
C010
C010
A010
9010
9010
8810
8810
8410
8210
8210
8110
8090
8090
8050
8050
8030
ENDCHAR
STARTCHAR 039E
ENCODING 926
SWIDTH 520 0
DWIDTH 13 0
BBX 10 17 2 0
BITMAP
FFC0
0000
0000
0000
0000
0000
0000
0000
7F80
0000
0000
0000
0000
0000
0000
0000
FFC0
ENDCHAR
STARTCHAR 039F
ENCODING 927
SWIDTH 680 0
DWIDTH 17 0
BBX 13 18 2 0
BITMAP
0700
38E0
4010
C010
8008
8008
8008
8008
8008
8008
8008
8008
8008
8008
8010
4010
2020
1FC0
ENDCHAR
STARTCHAR 03A0
ENCODING 928
SWIDTH 640 0
DWIDTH 16 0
BBX 11 17 3 0
BITMAP
FFE0
8020
8020
8020
8020
8020
8020
8020
8020
8020
8020
8020
8020
8020
8020
8020
8020
ENDCHAR
STARTCHAR 03A1
ENCODING 929
SWIDTH 560 0
DWIDTH 14 0
BBX 11 17 3 0
BITMAP
FF80
8040
8020
8020
8020
8020
8040
8040
FF80
8000
8000
8000
8000
8000
8000
8000
8000
ENDCHAR
STARTCHAR 03A3
ENCODING 931
SWIDTH 560 0
DWIDTH 14 0
BBX 12 17 1 0
BITMAP
FFE0
4000
2000
1000
0800
0400
0400
0200
0100
0200
0400
0800
1000
2000
2000
4000
FFF0
ENDCHAR
STARTCHAR 03A4
ENCODING 932
SWIDTH 560 0
DWIDTH 14 0
BBX 12 17 1 0
BITMAP
FFF0
0400
0400
0400
0400
0400
0400
0400
0400
0400
0400
0400
0400
0400
0400
0400
0400
ENDCHAR
STARTCHAR 03A5
ENCODING 933
SWIDTH 520 0
DWIDTH 13 0
BBX 12 17 1 0
BITMAP
8010
8020
4040
2040
2080
1080
1100
0A00
0E00
0400
0400
0400
0400
0400
0400
0400
0400
ENDCHAR
STARTCHAR 03A6
ENCODING 934
SWIDTH 800 0
DWIDTH 20 0
BBX 17 19 2 -1
BITMAP
008000
07F000
188C00
608200
808100
808100
808080
808080
808080
808080
808080
808080
808080
808100
408200
208600
1CB800
03C000
008000
ENDCHAR
STARTCHAR 03A7
ENCODING 935
SWIDTH 520 0
DWIDTH 13 0
BBX 12 17 1 0
BITMAP
8030
4020
2040
2080
1080
0900
0A00
0600
0600
0A00
0900
1080
2080
2040
4020
8020
8010
ENDCHAR
STARTCHAR 03A8
ENCODING 936
SWIDTH 720 0
DWIDTH 18 0
BBX 15 17 2 0
BITMAP
8102
8102
8102
8102
8102
8102
8102
8104
8104
4104
2108
17F0
0100
0100
0100
0100
0100
ENDCHAR
STARTCHAR 03A9
ENCODING 937
SWIDTH 680 0
DWIDTH 17 0
BBX 14 18 2 0
BITMAP
0780
1860
6010
4008
8008
8008
8008
8004
8004
8004
8008
8008
8008
8008
4010
2020
1040
F8F8
ENDCHAR
STARTCHAR 03AA
ENCODING 938
SWIDTH 360 0
DWIDTH 9 0
BBX 5 22 2 0
BITMAP
88
00
00
00
00
78
20
20
20
20
20
20
20
20
20
20
20
20
20
20
20
78
ENDCHAR
STARTCHAR 03AB
ENCODING 939
SWIDTH 520 0
DWIDTH 13 0
BBX 12 22 1 0
BITMAP
1080
1000
0000
0000
0000
8010
8020
4040
2040
2080
1080
1100
0A00
0E00
0400
0400
0400
0400
0400
0400
0400
0400
ENDCHAR
STARTCHAR 03AC
ENCODING 940
SWIDTH 600 0
DWIDTH 15 0
BBX 13 19 1 0
BITMAP
0100
0200
0200
0400
0000
0000
1E08
2188
4090
8050
8060
8060
8020
8060
8060
8060
4090
4090
3F18
ENDCHAR
STARTCHAR 03AD
ENCODING 941
SWIDTH 520 0
DWIDTH 13 0
BBX 9 19 2 0
BITMAP
0200
0400
0400
0800
0000
0000
3F00
4080
8000
8000
8000
4000
3E00
6000
8000
8000
8000
8080
7F00
ENDCHAR
STARTCHAR 03AE
ENCODING 942
SWIDTH 560 0
DWIDTH 14 0
BBX 11 23 1 -4
BITMAP
0100
0200
0200
0000
0000
CF80
7040
2040
6020
4020
4020
4020
4020
4020
4020
4020
4020
4020
0020
0020
0020
0020
0020
ENDCHAR
STARTCHAR 03AF
ENCODING 943
SWIDTH 240 0
DWIDTH 6 0
BBX 2 19 3 0
BITMAP
40
80
80
80
00
00
00
80
80
80
80
80
80
80
80
80
80
80
C0
ENDCHAR
STARTCHAR 03B0
ENCODING 944
SWIDTH 520 0
DWIDTH 13 0
BBX 9 19 2 0
BITMAP
0400
0400
2900
0800
0000
0000
8000
8080
8080
8080
8080
8080
8080
8080
8080
8080
8080
4100
3F00
ENDCHAR
STARTCHAR 03B1
ENCODING 945
SWIDTH 600 0
DWIDTH 15 0
BBX 13 13 1 0
BITMAP
1E08
2188
4090
8050
8060
8060
8020
8060
8060
8060
4090
4090
3F18
ENDCHAR
STARTCHAR 03B2
ENCODING 946
SWIDTH 560 0
DWIDTH 14 0
BBX 10 24 3 -5
BITMAP
1C00
4300
8100
8080
8080
8080
8100
8100
8600
9900
8080
8080
8080
8040
8040
8080
8080
8080
E300
9C00
8000
8000
8000
8000
ENDCHAR
STARTCHAR 03B3
ENCODING 947
SWIDTH 440 0
DWIDTH 11 0
BBX 11 18 0 -5
BITMAP
C000
4020
2040
2040
2040
1080
1080
1100
0900
0900
0A00
0600
0200
0400
0400
0400
0400
0400
ENDCHAR
STARTCHAR 03B4
ENCODING 948
SWIDTH 520 0
DWIDTH 13 0
BBX 11 19 1 0
BITMAP
3FC0
2000
1000
0800
0400
0200
0300
1C80
2040
4040
8020
8020
8020
8020
8020
8020
4040
4040
3F80
ENDCHAR
STARTCHAR 03B5
ENCODING 949
SWIDTH 520 0
DWIDTH 13 0
BBX 9 13 2 0
BITMAP
3F00
4080
8000
8000
8000
4000
3E00
6000
8000
8000
8000
8080
7F00
ENDCHAR
STARTCHAR 03B6
ENCODING 950
SWIDTH 400 0
DWIDTH 10 0
BBX 9 23 1 -4
BITMAP
7F80
0080
0100
0200
0400
0800
0800
1000
2000
4000
4000
8000
8000
8000
8000
8000
4000
3000
0E00
0100
0100
0100
0100
ENDCHAR
STARTCHAR 03B7
ENCODING 951
SWIDTH 560 0
DWIDTH 14 0
BBX 11 18 1 -5
BITMAP
CF80
7040
2040
6020
4020
4020
4020
4020
4020
4020
4020
4020
4020
0020
0020
0020
0020
0020
ENDCHAR
STARTCHAR 03B8
ENCODING 952
SWIDTH 520 0
DWIDTH 13 0
BBX 10 19 2 0
BITMAP
1C00
6100
4080
8080
8080
8040
8040
8040
8040
FFC0
8040
8040
8040
8040
8040
8080
8080
4100
3E00
ENDCHAR
STARTCHAR 03B9
ENCODING 953
SWIDTH 240 0
DWIDTH 6 0
BBX 2 12 3 1
BITMAP
80
80
80
80
80
80
80
80
80
80
80
C0
ENDCHAR
STARTCHAR 03BA
ENCODING 954
SWIDTH 480 0
DWIDTH 12 0
BBX 9 13 3 0
BITMAP
0180
8200
8400
8800
9000
A000
E000
9000
8800
8400
8200
8100
8100
ENDCHAR
STARTCHAR 03BB
ENCODING 955
SWIDTH 440 0
DWIDTH 11 0
BBX 10 19 0 0
BITMAP
2000
1000
1000
0800
0800
0800
0400
0C00
0C00
0A00
1200
1100
2100
2100
2080
4080
4080
4040
8040
ENDCHAR
STARTCHAR 03BC
ENCODING 956
SWIDTH 560 0
DWIDTH 14 0
BBX 10 18 3 -5
BITMAP
0080
8080
8080
8080
8080
8080
8080
8080
8080
8080
8080
8180
C280
BC40
8000
8000
8000
8000
ENDCHAR
STARTCHAR 03BD
ENCODING 957
SWIDTH 440 0
DWIDTH 11 0
BBX 11 13 0 0
BITMAP
C020
4020
2040
2040
2040
1080
1080
1100
0900
0900
0A00
0600
0200
ENDCHAR
STARTCHAR 03BE
ENCODING 958
SWIDTH 440 0
DWIDTH 11 0
BBX 8 23 2 -4
BITMAP
FF
20
40
80
80
80
80
40
30
2C
C0
80
80
80
80
80
80
60
1C
03
01
02
02
ENDCHAR
STARTCHAR 03BF
ENCODING 959
SWIDTH 520 0
DWIDTH 13 0
BBX 11 13 1 0
BITMAP
1F00
2080
4040
8020
8020
8020
8020
8020
8020
8020
4040
4040
3F80
ENDCHAR
STARTCHAR 03C0
ENCODING 960
SWIDTH 560 0
DWIDTH 14 0
BBX 13 13 1 0
BITMAP
FFF8
2040
2040
2040
2040
2040
2040
2040
2040
2040
2040
2040
2060
ENDCHAR
STARTCHAR 03C1
ENCODING 961
SWIDTH 520 0
DWIDTH 13 0
BBX 10 18 2 -5
BITMAP
1E00
6100
8080
8080
8040
8040
8040
8040
8040
8040
8080
8080
E200
9C00
8000
8000
8000
8000
ENDCHAR
STARTCHAR 03C2
ENCODING 962
SWIDTH 480 0
DWIDTH 12 0
BBX 10 17 1 -4
BITMAP
1F00
2080
4040
8000
8000
8000
8000
8000
8000
4000
2000
1000
0E00
0180
0080
0080
0100
ENDCHAR
STARTCHAR 03C3
ENCODING 963
SWIDTH 520 0
DWIDTH 13 0
BBX 12 13 1 0
BITMAP
07F0
3880
4040
4040
8020
8020
8020
8020
8020
8020
4040
4040
3F80
ENDCHAR
STARTCHAR 03C4
ENCODING 964
SWIDTH 480 0
DWIDTH 12 0
BBX 10 13 1 0
BITMAP
FFC0
0800
0800
0800
0800
0800
0800
0800
0800
0800
0800
0800
0600
ENDCHAR
STARTCHAR 03C5
ENCODING 965
SWIDTH 520 0
DWIDTH 13 0
BBX 9 13 2 0
BITMAP
8000
8080
8080
8080
8080
8080
8080
8080
8080
8080
8080
4100
3F00
ENDCHAR
STARTCHAR 03C6
ENCODING 966
SWIDTH 640 0
DWIDTH 16 0
BBX 14 18 1 -5
BITMAP
1070
2188
4104
8104
8204
8204
8204
8204
8204
8204
4208
2208
1A30
07C0
0200
0200
0200
0200
ENDCHAR
STARTCHAR 03C7
ENCODING 967
SWIDTH 440 0
DWIDTH 11 0
BBX 11 18 0 -5
BITMAP
C020
2040
2080
2080
1100
1100
0A00
0A00
0400
0400
0A00
0A00
1100
2100
2100
4080
4080
8040
ENDCHAR
STARTCHAR 03C8
ENCODING 968
SWIDTH 680 0
DWIDTH 17 0
BBX 13 23 2 -5
BITMAP
0200
0200
0200
0200
0200
8208
8208
8208
8208
8208
8208
8208
8208
8208
8208
8210
4210
3260
0F80
0200
0200
0200
0200
ENDCHAR
STARTCHAR 03C9
ENCODING 969
SWIDTH 680 0
DWIDTH 17 0
BBX 14 13 2 0
BITMAP
2020
4010
8008
8008
8204
8204
8204
8204
8204
8204
8208
8508
7CF0
ENDCHAR
STARTCHAR 03CA
ENCODING 970
SWIDTH 240 0
DWIDTH 6 0
BBX 6 17 0 0
BITMAP
84
00
00
00
00
20
20
20
20
20
20
20
20
20
20
20
28
ENDCHAR
STARTCHAR 03CB
ENCODING 971
SWIDTH 520 0
DWIDTH 13 0
BBX 9 17 2 0
BITMAP
2100
0000
0000
0000
8000
8080
8080
8080
8080
8080
8080
8080
8080
8080
8080
4100
3F00
ENDCHAR
STARTCHAR 03CC
ENCODING 972
SWIDTH 520 0
DWIDTH 13 0
BBX 11 19 1 0
BITMAP
0100
0200
0200
0400
0000
0000
1F00
2080
4040
8020
8020
8020
8020
8020
8020
8020
4040
4040
3F80
ENDCHAR
STARTCHAR 03CD
ENCODING 973
SWIDTH 520 0
DWIDTH 13 0
BBX 9 19 2 0
BITMAP
0200
0400
0400
0800
0000
0000
8000
8080
8080
8080
8080
8080
8080
8080
8080
8080
8080
4100
3F00
ENDCHAR
STARTCHAR 03CE
ENCODING 974
SWIDTH 680 0
DWIDTH 17 0
BBX 14 19 2 0
BITMAP
0080
0100
0100
0200
0000
0000
2020
4010
8008
8008
8204
8204
8204
8204
8204
8204
8208
8508
7CF0
ENDCHAR
STARTCHAR 0400
ENCODING 1024
SWIDTH 560 0
DWIDTH 14 0
BBX 9 23 3 0
BITMAP
2000
1000
0800
0000
0000
0000
FF80
8000
8000
8000
8000
8000
8000
8000
FF00
8000
8000
8000
8000
8000
8000
8000
FF80
ENDCHAR
STARTCHAR 0401
ENCODING 1025
SWIDTH 560 0
DWIDTH 14 0
BBX 9 22 3 0
BITMAP
2200
0000
0000
0000
0000
FF80
8000
8000
8000
8000
8000
8000
8000
FF00
8000
8000
8000
8000
8000
8000
8000
FF80
ENDCHAR
STARTCHAR 0402
ENCODING 1026
SWIDTH 760 0
DWIDTH 19 0
BBX 17 21 1 -4
BITMAP
FFF000
040000
040000
040000
040000
040000
040000
03CE00
040100
040100
040100
040080
040080
040080
040080
040080
040080
000080
000100
000100
000E00
ENDCHAR
STARTCHAR 0403
ENCODING 1027
SWIDTH 480 0
DWIDTH 12 0
BBX 8 23 3 0
BITMAP
04
08
08
10
00
00
FF
80
80
80
80
80
80
80
80
80
80
80
80
80
80
80
80
ENDCHAR
STARTCHAR 0404
ENCODING 1028
SWIDTH 600 0
DWIDTH 15 0
BBX 12 18 2 0
BITMAP
0F00
30C0
4020
8020
8000
8000
8000
8000
8000
FF80
8000
8000
8000
8000
8010
4020
2020
1FC0
ENDCHAR
STARTCHAR 0405
ENCODING 1029
SWIDTH 520 0
DWIDTH 13 0
BBX 11 18 1 0
BITMAP
0F00
30C0
4020
8000
8000
8000
8000
4000
3800
0780
0040
0020
0020
0020
0020
8020
4040
3F80
ENDCHAR
STARTCHAR 0406
ENCODING 1030
SWIDTH 360 0
DWIDTH 9 0
BBX 4 17 3 0
BITMAP
F0
40
40
40
40
40
40
40
40
40
40
40
40
40
40
40
F0
ENDCHAR
STARTCHAR 0407
ENCODING 1031
SWIDTH 360 0
DWIDTH 9 0
BBX 5 22 2 0
BITMAP
88
00
00
00
00
78
20
20
20
20
20
20
20
20
20
20
20
20
20
20
20
78
ENDCHAR
STARTCHAR 0408
ENCODING 1032
SWIDTH 440 0
DWIDTH 11 0
BBX 8 17 1 0
BITMAP
3F
01
01
01
01
01
01
01
01
01
01
01
01
01
01
82
7E
ENDCHAR
STARTCHAR 0409
ENCODING 1033
SWIDTH 960 0
DWIDTH 24 0
BBX 23 17 0 0
BITMAP
0FF800
080800
080800
080800
080800
080800
080800
080FF8
080804
080804
080802
080802
100802
100802
100804
200804
C00FF8
ENDCHAR
STARTCHAR 040A
ENCODING 1034
SWIDTH 1000 0
DWIDTH 25 0
BBX 21 17 3 0
BITMAP
802000
802000
802000
802000
802000
802000
802000
802000
FFFFF0
802008
802008
802008
802008
802008
802008
802010
803FE0
ENDCHAR
STARTCHAR 040B
ENCODING 1035
SWIDTH 760 0
DWIDTH 19 0
BBX 17 17 1 0
BITMAP
FFF000
040000
040000
040000
040000
040000
040000
03CE00
040100
040100
040080
040080
040080
040080
040080
040080
040080
ENDCHAR
STARTCHAR 040C
ENCODING 1036
SWIDTH 600 0
DWIDTH 15 0
BBX 11 23 3 0
BITMAP
0200
0400
0800
0000
0000
0000
80E0
8080
8100
8100
8200
8400
8400
8800
F800
8400
8400
8200
8200
8100
8080
8080
8060
ENDCHAR
STARTCHAR 040D
ENCODING 1037
SWIDTH 680 0
DWIDTH 17 0
BBX 12 23 3 0
BITMAP
1000
0800
0400
0000
0000
0000
8030
8050
8050
8090
8110
8110
8210
8410
8410
8810
9010
9010
A010
A010
C010
8010
8010
ENDCHAR
STARTCHAR 040E
ENCODING 1038
SWIDTH 560 0
DWIDTH 14 0
BBX 12 23 1 0
BITMAP
1040
1080
0880
0700
0000
0000
8010
8010
4020
4020
2020
2040
1040
1080
0880
0880
0500
0500
0200
0200
0200
0400
0C00
ENDCHAR
STARTCHAR 040F
ENCODING 1039
SWIDTH 640 0
DWIDTH 16 0
BBX 11 21 3 -4
BITMAP
8020
8020
8020
8020
8020
8020
8020
8020
8020
8020
8020
8020
8020
8020
8020
8020
FFE0
0400
0400
0400
0400
ENDCHAR
STARTCHAR 0410
ENCODING 1040
SWIDTH 600 0
DWIDTH 15 0
BBX 13 17 1 0
BITMAP
0600
0500
0500
0900
0880
0880
1080
1040
2040
2040
2020
5FE0
4010
4010
8010
8008
8008
ENDCHAR
STARTCHAR 0411
ENCODING 1041
SWIDTH 600 0
DWIDTH 15 0
BBX 10 17 3 0
BITMAP
FF80
8000
8000
8000
8000
8000
8000
FF00
8080
8040
8040
8040
8040
8040
8040
8040
FF80
ENDCHAR
STARTCHAR 0412
ENCODING 1042
SWIDTH 600 0
DWIDTH 15 0
BBX 11 17 3 0
BITMAP
FF80
8040
8040
8040
8040
8040
8080
8300
FC80
8040
8020
8020
8020
8020
8040
8040
FF80
ENDCHAR
STARTCHAR 0413
ENCODING 1043
SWIDTH 480 0
DWIDTH 12 0
BBX 8 17 3 0
BITMAP
FF
80
80
80
80
80
80
80
80
80
80
80
80
80
80
80
80
ENDCHAR
STARTCHAR 0414
ENCODING 1044
SWIDTH 640 0
DWIDTH 16 0
BBX 15 21 0 -4
BITMAP
0FF8
0808
0808
0808
0808
0808
0808
0808
0808
0808
0808
1008
1008
1008
1008
2008
FFFE
8002
8002
8002
8000
ENDCHAR
STARTCHAR 0415
ENCODING 1045
SWIDTH 560 0
DWIDTH 14 0
BBX 9 17 3 0
BITMAP
FF80
8000
8000
8000
8000
8000
8000
8000
FF00
8000
8000
8000
8000
8000
8000
8000
FF80
ENDCHAR
STARTCHAR 0416
ENCODING 1046
SWIDTH 880 0
DWIDTH 22 0
BBX 21 17 1 0
BITMAP
602070
202040
102080
102080
082100
082100
042200
042200
03FE00
042200
042100
082100
102080
102080
202040
202040
C02038
ENDCHAR
STARTCHAR 0417
ENCODING 1047
SWIDTH 560 0
DWIDTH 14 0
BBX 11 18 2 0
BITMAP
1E00
6180
8040
0040
0040
0040
0040
0040
0180
1F00
00C0
0040
0020
0020
0020
0040
8040
7F80
ENDCHAR
STARTCHAR 0418
ENCODING 1048
SWIDTH 680 0
DWIDTH 17 0
BBX 12 17 3 0
BITMAP
8030
8050
8050
8090
8110
8110
8210
8410
8410
8810
9010
9010
A010
A010
C010
8010
8010
ENDCHAR
STARTCHAR 0419
ENCODING 1049
SWIDTH 680 0
DWIDTH 17 0
BBX 12 23 3 0
BITMAP
2080
2100
1100
0E00
0000
0000
8030
8050
8050
8090
8110
8110
8210
8410
8410
8810
9010
9010
A010
A010
C010
8010
8010
ENDCHAR
STARTCHAR 041A
ENCODING 1050
SWIDTH 600 0
DWIDTH 15 0
BBX 11 17 3 0
BITMAP
80E0
8080
8100
8100
8200
8400
8400
8800
F800
8400
8400
8200
8200
8100
8080
8080
8060
ENDCHAR
STARTCHAR 041B
ENCODING 1051
SWIDTH 600 0
DWIDTH 15 0
BBX 13 17 0 0
BITMAP
0FF8
0808
0808
0808
0808
0808
0808
0808
0808
0808
0808
0808
1008
1008
1008
2008
C008
ENDCHAR
STARTCHAR 041C
ENCODING 1052
SWIDTH 760 0
DWIDTH 19 0
BBX 14 17 3 0
BITMAP
800C
C00C
C014
A014
9024
9044
8844
8884
8484
8304
8204
8004
8004
8004
8004
8004
8004
ENDCHAR
STARTCHAR 041D
ENCODING 1053
SWIDTH 680 0
DWIDTH 17 0
BBX 12 17 3 0
BITMAP
8010
8010
8010
8010
8010
8010
8010
8010
FFF0
8010
8010
8010
8010
8010
8010
8010
8010
ENDCHAR
STARTCHAR 041E
ENCODING 1054
SWIDTH 680 0
DWIDTH 17 0
BBX 13 18 2 0
BITMAP
0700
38E0
4010
C010
8008
8008
8008
8008
8008
8008
8008
8008
8008
8008
8010
4010
2020
1FC0
ENDCHAR
STARTCHAR 041F
ENCODING 1055
SWIDTH 640 0
DWIDTH 16 0
BBX 11 17 3 0
BITMAP
FFE0
8020
8020
8020
8020
8020
8020
8020
8020
8020
8020
8020
8020
8020
8020
8020
8020
ENDCHAR
STARTCHAR 0420
ENCODING 1056
SWIDTH 560 0
DWIDTH 14 0
BBX 11 17 3 0
BITMAP
FF80
8040
8020
8020
8020
8020
8040
8040
FF80
8000
8000
8000
8000
8000
8000
8000
8000
ENDCHAR
STARTCHAR 0421
ENCODING 1057
SWIDTH 600 0
DWIDTH 15 0
BBX 12 18 2 0
BITMAP
0F00
30C0
4020
8020
8000
8000
8000
8000
8000
8000
8000
8000
8000
8000
8010
4020
2020
1FC0
ENDCHAR
STARTCHAR 0422
ENCODING 1058
SWIDTH 560 0
DWIDTH 14 0
BBX 12 17 1 0
BITMAP
FFF0
0400
0400
0400
0400
0400
0400
0400
0400
0400
0400
0400
0400
0400
0400
0400
0400
ENDCHAR
STARTCHAR 0423
ENCODING 1059
SWIDTH 560 0
DWIDTH 14 0
BBX 12 17 1 0
BITMAP
8010
8010
4020
4020
2020
2040
1040
1080
0880
0880
0500
0500
0200
0200
0200
0400
0C00
ENDCHAR
STARTCHAR 0424
ENCODING 1060
SWIDTH 800 0
DWIDTH 20 0
BBX 18 18 1 -1
BITMAP
008000
008000
07F800
188600
208100
408080
408080
808040
808040
808040
808040
808040
408080
408080
208100
188600
07F800
008000
ENDCHAR
STARTCHAR 0425
ENCODING 1061
SWIDTH 520 0
DWIDTH 13 0
BBX 12 17 1 0
BITMAP
8030
4020
2040
2080
1080
0900
0A00
0600
0600
0A00
0900
1080
2080
2040
4020
8020
8010
ENDCHAR
STARTCHAR 0426
ENCODING 1062
SWIDTH 680 0
DWIDTH 17 0
BBX 13 20 3 -4
BITMAP
8020
8020
8020
8020
8020
8020
8020
8020
8020
8020
8020
8020
8020
8020
8020
8020
FFF8
0008
0008
0008
ENDCHAR
STARTCHAR 0427
ENCODING 1063
SWIDTH 600 0
DWIDTH 15 0
BBX 11 17 2 0
BITMAP
8020
8020
8020
8020
8020
8020
8020
8020
4020
39E0
0620
0020
0020
0020
0020
0020
0020
ENDCHAR
STARTCHAR 0428
ENCODING 1064
SWIDTH 880 0
DWIDTH 22 0
BBX 17 17 3 0
BITMAP
808080
808080
808080
808080
808080
808080
808080
808080
808080
808080
808080
808080
808080
808080
808080
808080
FFFF80
ENDCHAR
STARTCHAR 0429
ENCODING 1065
SWIDTH 920 0
DWIDTH 23 0
BBX 19 20 3 -4
BITMAP
808080
808080
808080
808080
808080
808080
808080
808080
808080
808080
808080
808080
808080
808080
808080
808080
FFFFE0
000020
000020
000020
ENDCHAR
STARTCHAR 042A
ENCODING 1066
SWIDTH 720 0
DWIDTH 18 0
BBX 16 17 1 0
BITMAP
F800
0800
0800
0800
0800
0800
0800
07F8
0806
0802
0802
0801
0801
0801
0802
0802
0FF8
ENDCHAR
STARTCHAR 042B
ENCODING 1067
SWIDTH 800 0
DWIDTH 20 0
BBX 15 17 3 0
BITMAP
8002
8002
8002
8002
8002
8002
8002
FF02
8082
8042
8042
8042
8042
8042
8042
8042
FF82
ENDCHAR
STARTCHAR 042C
ENCODING 1068
SWIDTH 600 0
DWIDTH 15 0
BBX 11 17 3 0
BITMAP
8000
8000
8000
8000
8000
8000
8000
FF80
8040
8040
8020
8020
8020
8020
8040
8040
FF80
ENDCHAR
STARTCHAR 042D
ENCODING 1069
SWIDTH 600 0
DWIDTH 15 0
BBX 13 18 1 0
BITMAP
0F00
30C0
4020
8020
0010
0010
0010
0010
0010
0FE8
0010
0010
0010
0010
8010
4020
4040
3F80
ENDCHAR
STARTCHAR 042E
ENCODING 1070
SWIDTH 880 0
DWIDTH 22 0
BBX 18 18 3 0
BITMAP
007800
818600
820100
840080
840080
840080
880040
880040
880040
F80040
880040
880040
880040
840080
840080
820080
820100
81FC00
ENDCHAR
STARTCHAR 042F
ENCODING 1071
SWIDTH 600 0
DWIDTH 15 0
BBX 12 17 1 0
BITMAP
3FF0
4010
4010
4010
4010
4010
4010
2010
1FF0
0410
0810
0810
1010
1010
2010
2010
C010
ENDCHAR
STARTCHAR 0430
ENCODING 1072
SWIDTH 480 0
DWIDTH 12 0
BBX 9 13 2 0
BITMAP
3C00
C300
8100
0100
0100
0100
3F00
C100
8100
8100
8100
8300
7C80
ENDCHAR
STARTCHAR 0431
ENCODING 1073
SWIDTH 520 0
DWIDTH 13 0
BBX 10 19 2 0
BITMAP
0080
1F00
6000
8000
8000
8000
9C00
E300
8080
8040
8040
8040
8040
8040
8040
8040
8080
4080
3F00
ENDCHAR
STARTCHAR 0432
ENCODING 1074
SWIDTH 520 0
DWIDTH 13 0
BBX 9 13 3 0
BITMAP
FC00
8300
8100
8100
8100
8100
FE00
8300
8080
8080
8080
8100
FE00
ENDCHAR
STARTCHAR 0433
ENCODING 1075
SWIDTH 440 0
DWIDTH 11 0
BBX 7 13 3 0
BITMAP
FE
80
80
80
80
80
80
80
80
80
80
80
80
ENDCHAR
STARTCHAR 0434
ENCODING 1076
SWIDTH 520 0
DWIDTH 13 0
BBX 13 17 0 -4
BITMAP
0FE0
1020
1020
1020
1020
1020
1020
1020
1020
2020
2020
2020
4020
BFD8
8008
8008
8008
ENDCHAR
STARTCHAR 0435
ENCODING 1077
SWIDTH 520 0
DWIDTH 13 0
BBX 11 13 1 0
BITMAP
1F00
2080
4040
8040
8020
8020
FFE0
8000
8000
8000
4040
4040
3F80
ENDCHAR
STARTCHAR 0436
ENCODING 1078
SWIDTH 720 0
DWIDTH 18 0
BBX 16 13 1 0
BITMAP
C003
2104
2104
1108
1108
0910
07F0
0910
1108
1108
2104
2104
4102
ENDCHAR
STARTCHAR 0437
ENCODING 1079
SWIDTH 480 0
DWIDTH 12 0
BBX 9 13 1 0
BITMAP
1E00
6100
0080
0080
0080
0100
1E00
0380
0080
0080
0080
8080
7F00
ENDCHAR
STARTCHAR 0438
ENCODING 1080
SWIDTH 560 0
DWIDTH 14 0
BBX 9 13 3 0
BITMAP
0080
8180
8280
8280
8480
8880
8880
9080
A080
A080
C080
8080
8080
ENDCHAR
STARTCHAR 0439
ENCODING 1081
SWIDTH 560 0
DWIDTH 14 0
BBX 9 18 3 0
BITMAP
4200
4200
3C00
0000
0000
0080
8180
8280
8280
8480
8880
8880
9080
A080
A080
C080
8080
8080
ENDCHAR
STARTCHAR 043A
ENCODING 1082
SWIDTH 520 0
DWIDTH 13 0
BBX 9 13 3 0
BITMAP
0180
8200
8400
8400
8800
9000
F000
9000
8800
8400
8400
8200
8100
ENDCHAR
STARTCHAR 043B
ENCODING 1083
SWIDTH 520 0
DWIDTH 13 0
BBX 10 13 1 0
BITMAP
1FC0
2040
2040
2040
2040
2040
2040
2040
2040
2040
4040
4040
8040
ENDCHAR
STARTCHAR 043C
ENCODING 1084
SWIDTH 680 0
DWIDTH 17 0
BBX 11 13 3 0
BITMAP
8020
8060
C060
C0A0
A0A0
9120
9220
8A20
8C20
8420
8020
8020
8020
ENDCHAR
STARTCHAR 043D
ENCODING 1085
SWIDTH 560 0
DWIDTH 14 0
BBX 9 13 3 0
BITMAP
0080
8080
8080
8080
8080
8080
FF80
8080
8080
8080
8080
8080
8080
ENDCHAR
STARTCHAR 043E
ENCODING 1086
SWIDTH 520 0
DWIDTH 13 0
BBX 11 13 1 0
BITMAP
1F00
2080
4040
8020
8020
8020
8020
8020
8020
8020
4040
4040
3F80
ENDCHAR
STARTCHAR 043F
ENCODING 1087
SWIDTH 560 0
DWIDTH 14 0
BBX 9 13 3 0
BITMAP
FF80
8080
8080
8080
8080
8080
8080
8080
8080
8080
8080
8080
8080
ENDCHAR
STARTCHAR 0440
ENCODING 1088
SWIDTH 560 0
DWIDTH 14 0
BBX 10 18 3 -5
BITMAP
3E00
C100
8080
8080
8080
8040
8040
8040
8080
8080
8080
8100
E200
9C00
8000
8000
8000
8000
ENDCHAR
STARTCHAR 0441
ENCODING 1089
SWIDTH 480 0
DWIDTH 12 0
BBX 10 13 1 0
BITMAP
1F00
2080
4040
8000
8000
8000
8000
8000
8000
8000
4000
4040
3F80
ENDCHAR
STARTCHAR 0442
ENCODING 1090
SWIDTH 440 0
DWIDTH 11 0
BBX 10 13 1 0
BITMAP
FFC0
0800
0800
0800
0800
0800
0800
0800
0800
0800
0800
0800
0800
ENDCHAR
STARTCHAR 0443
ENCODING 1091
SWIDTH 440 0
DWIDTH 11 0
BBX 10 18 1 -5
BITMAP
0040
8080
8080
8080
4100
4100
4200
2200
2200
1400
1400
1400
0800
0800
1000
1000
1000
6000
ENDCHAR
STARTCHAR 0444
ENCODING 1092
SWIDTH 720 0
DWIDTH 18 0
BBX 15 22 2 -4
BITMAP
0200
0200
0200
0200
3A70
C788
8104
8204
8204
8202
8202
8202
8204
8204
8204
8304
4688
3A70
0200
0200
0200
0200
ENDCHAR
STARTCHAR 0445
ENCODING 1093
SWIDTH 440 0
DWIDTH 11 0
BBX 10 13 1 0
BITMAP
8040
8080
4100
2100
1200
1400
0800
0C00
1200
2200
4100
4080
8040
ENDCHAR
STARTCHAR 0446
ENCODING 1094
SWIDTH 560 0
DWIDTH 14 0
BBX 10 16 3 -4
BITMAP
0080
8080
8080
8080
8080
8080
8080
8080
8080
8080
8080
8080
8080
7F40
0040
0040
ENDCHAR
STARTCHAR 0447
ENCODING 1095
SWIDTH 520 0
DWIDTH 13 0
BBX 9 13 1 0
BITMAP
8000
8080
8080
8080
8080
8080
4080
3380
0C80
0080
0080
0080
0080
ENDCHAR
STARTCHAR 0448
ENCODING 1096
SWIDTH 760 0
DWIDTH 19 0
BBX 14 13 3 0
BITMAP
0204
8204
8204
8204
8204
8204
8204
8204
8204
8204
8204
8204
FFFC
ENDCHAR
STARTCHAR 0449
ENCODING 1097
SWIDTH 760 0
DWIDTH 19 0
BBX 16 17 3 -4
BITMAP
0204
8204
8204
8204
8204
8204
8204
8204
8204
8204
8204
8204
8204
7DFB
0001
0001
0001
ENDCHAR
STARTCHAR 044A
ENCODING 1098
SWIDTH 560 0
DWIDTH 14 0
BBX 12 13 1 0
BITMAP
F000
1000
1000
1000
1000
1000
1FE0
1010
1010
1010
1010
1010
1FE0
ENDCHAR
STARTCHAR 044B
ENCODING 1099
SWIDTH 640 0
DWIDTH 16 0
BBX 11 12 3 1
BITMAP
8020
8020
8020
8020
8020
FE20
8220
8120
8120
8120
8220
FC20
ENDCHAR
STARTCHAR 044C
ENCODING 1100
SWIDTH 480 0
DWIDTH 12 0
BBX 8 12 3 1
BITMAP
80
80
80
80
80
FE
81
81
81
81
81
FE
ENDCHAR
STARTCHAR 044D
ENCODING 1101
SWIDTH 480 0
DWIDTH 12 0
BBX 10 13 1 0
BITMAP
1E00
6100
0080
0080
0040
0040
1FC0
0040
0040
0040
0080
8080
7F00
ENDCHAR
STARTCHAR 044E
ENCODING 1102
SWIDTH 720 0
DWIDTH 18 0
BBX 14 13 3 0
BITMAP
01E0
8610
8808
8808
9004
9004
F004
9004
9004
9004
8808
8408
83F0
ENDCHAR
STARTCHAR 044F
ENCODING 1103
SWIDTH 480 0
DWIDTH 12 0
BBX 9 13 1 0
BITMAP
1F80
6080
4080
8080
8080
8080
4080
3F80
1080
1080
2080
2080
4080
ENDCHAR
STARTCHAR 0450
ENCODING 1104
SWIDTH 520 0
DWIDTH 13 0
BBX 11 19 1 0
BITMAP
1000
0800
0800
0400
0000
0000
1F00
2080
4040
8040
8020
8020
FFE0
8000
8000
8000
4040
4040
3F80
ENDCHAR
STARTCHAR 0451
ENCODING 1105
SWIDTH 520 0
DWIDTH 13 0
BBX 11 17 1 0
BITMAP
1180
0000
0000
0000
1F00
2080
4040
8040
8020
8020
FFE0
8000
8000
8000
4040
4040
3F80
ENDCHAR
STARTCHAR 0452
ENCODING 1106
SWIDTH 520 0
DWIDTH 13 0
BBX 10 23 2 -4
BITMAP
8000
8000
F000
8000
8000
9E00
E180
4080
8080
8040
8040
8040
8040
8040
8040
8040
8040
8040
0040
0040
0040
0040
00C0
ENDCHAR
STARTCHAR 0453
ENCODING 1107
SWIDTH 440 0
DWIDTH 11 0
BBX 7 19 3 0
BITMAP
04
08
10
10
00
00
FE
80
80
80
80
80
80
80
80
80
80
80
80
ENDCHAR
STARTCHAR 0454
ENCODING 1108
SWIDTH 480 0
DWIDTH 12 0
BBX 10 13 1 0
BITMAP
1F00
2080
4040
8000
8000
8000
FF00
8000
8000
8000
4000
4040
3F80
ENDCHAR
STARTCHAR 0455
ENCODING 1109
SWIDTH 440 0
DWIDTH 11 0
BBX 9 13 1 0
BITMAP
3E00
4100
8000
8000
8000
4000
3C00
0300
0080
0080
0080
8080
7F00
ENDCHAR
STARTCHAR 0456
ENCODING 1110
SWIDTH 200 0
DWIDTH 5 0
BBX 1 18 2 0
BITMAP
80
00
00
00
00
00
80
80
80
80
80
80
80
80
80
80
80
80
ENDCHAR
STARTCHAR 0457
ENCODING 1111
SWIDTH 200 0
DWIDTH 5 0
BBX 6 17 0 0
BITMAP
84
00
00
00
00
20
20
20
20
20
20
20
20
20
20
20
20
ENDCHAR
STARTCHAR 0458
ENCODING 1112
SWIDTH 200 0
DWIDTH 5 0
BBX 2 23 1 -5
BITMAP
40
00
00
00
00
00
40
40
40
40
40
40
40
40
40
40
40
40
40
40
40
40
C0
ENDCHAR
STARTCHAR 0459
ENCODING 1113
SWIDTH 760 0
DWIDTH 19 0
BBX 17 13 1 0
BITMAP
1F8000
208000
208000
208000
208000
208000
20FE00
208100
208080
208080
408080
408100
80FE00
ENDCHAR
STARTCHAR 045A
ENCODING 1114
SWIDTH 800 0
DWIDTH 20 0
BBX 16 13 3 0
BITMAP
0100
8100
8100
8100
8100
8100
FFFC
8102
8101
8101
8101
8102
81FC
ENDCHAR
STARTCHAR 045B
ENCODING 1115
SWIDTH 520 0
DWIDTH 13 0
BBX 10 18 2 1
BITMAP
8000
8000
F000
8000
8000
9E00
E180
4080
8080
8040
8040
8040
8040
8040
8040
8040
8040
8040
ENDCHAR
STARTCHAR 045C
ENCODING 1116
SWIDTH 520 0
DWIDTH 13 0
BBX 9 19 3 0
BITMAP
0400
0800
0800
1000
0000
0000
0180
8200
8400
8400
8800
9000
F000
9000
8800
8400
8400
8200
8100
ENDCHAR
STARTCHAR 045D
ENCODING 1117
SWIDTH 560 0
DWIDTH 14 0
BBX 9 18 3 1
BITMAP
2000
1000
0800
0000
0000
0080
8180
8280
8280
8480
8880
8880
9080
A080
A080
C080
8080
8080
ENDCHAR
STARTCHAR 045E
ENCODING 1118
SWIDTH 440 0
DWIDTH 11 0
BBX 10 23 1 -5
BITMAP
4100
2200
1C00
0000
0000
0040
8080
8080
8080
4100
4100
4200
2200
2200
1400
1400
1400
0800
0800
1000
1000
1000
6000
ENDCHAR
STARTCHAR 045F
ENCODING 1119
SWIDTH 560 0
DWIDTH 14 0
BBX 9 16 3 -4
BITMAP
0080
8080
8080
8080
8080
8080
8080
8080
8080
8080
8080
8080
8080
7F00
1000
1000
ENDCHAR
STARTCHAR 0472
ENCODING 1138
SWIDTH 680 0
DWIDTH 17 0
BBX 13 18 2 0
BITMAP
0700
38E0
4010
C010
8008
8008
8008
8008
8008
FFF8
8008
8008
8008
8008
8010
4010
2020
1FC0
ENDCHAR
STARTCHAR 0473
ENCODING 1139
SWIDTH 520 0
DWIDTH 13 0
BBX 11 13 1 0
BITMAP
1F00
2080
4040
8020
8020
8020
FFE0
8020
8020
8020
4040
4040
3F80
ENDCHAR
STARTCHAR 0490
ENCODING 1168
SWIDTH 480 0
DWIDTH 12 0
BBX 9 21 3 0
BITMAP
0080
0080
0080
0080
FF00
8000
8000
8000
8000
8000
8000
8000
8000
8000
8000
8000
8000
8000
8000
8000
8000
ENDCHAR
STARTCHAR 0491
ENCODING 1169
SWIDTH 440 0
DWIDTH 11 0
BBX 7 16 3 0
BITMAP
02
02
02
FE
80
80
80
80
80
80
80
80
80
80
80
80
ENDCHAR
STARTCHAR 0492
ENCODING 1170
SWIDTH 520 0
DWIDTH 13 0
BBX 11 17 1 0
BITMAP
3FE0
2000
2000
2000
2000
2000
2000
FF00
2000
2000
2000
2000
2000
2000
2000
2000
2000
ENDCHAR
STARTCHAR 0493
ENCODING 1171
SWIDTH 440 0
DWIDTH 11 0
BBX 9 13 1 0
BITMAP
3F80
4000
4000
4000
4000
4000
FE00
4000
4000
4000
4000
4000
4000
ENDCHAR
STARTCHAR 0494
ENCODING 1172
SWIDTH 600 0
DWIDTH 15 0
BBX 11 21 3 -4
BITMAP
FF00
8000
8000
8000
8000
8000
8000
9800
E380
8040
8040
8040
8020
8020
8020
8020
8020
0040
0040
0040
0380
ENDCHAR
STARTCHAR 0495
ENCODING 1173
SWIDTH 520 0
DWIDTH 13 0
BBX 9 18 3 -5
BITMAP
FE00
8000
8000
8000
8000
8000
BE00
C100
8100
8100
8080
8080
8080
0080
0080
0100
0100
0300
ENDCHAR
STARTCHAR 0496
ENCODING 1174
SWIDTH 880 0
DWIDTH 22 0
BBX 21 21 1 -4
BITMAP
602070
202040
102080
102080
082100
082100
042200
042200
03FE00
042200
042100
082100
102080
102080
202040
202040
C02038
000008
000008
000008
000008
ENDCHAR
STARTCHAR 0497
ENCODING 1175
SWIDTH 720 0
DWIDTH 18 0
BBX 17 17 1 -4
BITMAP
C00300
210400
210400
110800
110800
091000
07F000
091000
110800
110800
210400
210400
410200
000180
000080
000080
000080
ENDCHAR
STARTCHAR 0498
ENCODING 1176
SWIDTH 560 0
DWIDTH 14 0
BBX 11 21 2 -4
BITMAP
1E00
6180
8040
0040
0040
0040
0040
0040
0180
1F00
00C0
0040
0020
0020
0020
0040
8040
6180
1E00
0800
0800
ENDCHAR
STARTCHAR 0499
ENCODING 1177
SWIDTH 480 0
DWIDTH 12 0
BBX 9 16 1 -4
BITMAP
1E00
6100
0080
0080
0080
0100
1E00
0380
0080
0080
0080
8080
6100
1E00
0800
0800
ENDCHAR
STARTCHAR 049A
ENCODING 1178
SWIDTH 600 0
DWIDTH 15 0
BBX 12 21 3 -4
BITMAP
80E0
8080
8100
8100
8200
8400
8400
8800
F800
8400
8400
8200
8200
8100
8080
8080
8070
0010
0010
0010
0010
ENDCHAR
STARTCHAR 049B
ENCODING 1179
SWIDTH 520 0
DWIDTH 13 0
BBX 9 16 3 -4
BITMAP
0180
8200
8400
8400
8800
9000
F000
9000
8800
8400
8400
8200
8100
0080
0080
0080
ENDCHAR
STARTCHAR 049C
ENCODING 1180
SWIDTH 600 0
DWIDTH 15 0
BBX 12 17 3 0
BITMAP
8060
8080
8100
8100
A200
A200
A400
A800
F800
A400
A400
A200
A100
8100
8080
8080
8070
ENDCHAR
STARTCHAR 049D
ENCODING 1181
SWIDTH 520 0
DWIDTH 13 0
BBX 9 13 3 0
BITMAP
0080
8300
8200
C400
C800
C800
F000
C800
C400
8400
8200
8200
8100
ENDCHAR
STARTCHAR 04A0
ENCODING 1184
SWIDTH 720 0
DWIDTH 18 0
BBX 16 17 1 0
BITMAP
F806
0804
0808
0810
0810
0820
0820
0840
0FC0
0840
0820
0810
0810
0808
0804
0804
0803
ENDCHAR
STARTCHAR 04A1
ENCODING 1185
SWIDTH 560 0
DWIDTH 14 0
BBX 13 13 1 0
BITMAP
F018
1020
1040
1040
1080
1100
0E00
1100
1080
1040
1040
1020
1030
ENDCHAR
STARTCHAR 04A2
ENCODING 1186
SWIDTH 720 0
DWIDTH 18 0
BBX 14 21 3 -4
BITMAP
8010
8010
8010
8010
8010
8010
8010
8010
FFF0
8010
8010
8010
8010
8010
8010
8010
801C
0004
0004
0004
0004
ENDCHAR
STARTCHAR 04A3
ENCODING 1187
SWIDTH 560 0
DWIDTH 14 0
BBX 11 17 3 -4
BITMAP
0080
8080
8080
8080
8080
8080
FF80
8080
8080
8080
8080
8080
8080
0060
0020
0020
0020
ENDCHAR
STARTCHAR 04A4
ENCODING 1188
SWIDTH 920 0
DWIDTH 23 0
BBX 19 17 3 0
BITMAP
803FE0
802000
802000
802000
802000
802000
802000
802000
FFE000
802000
802000
802000
802000
802000
802000
802000
802000
ENDCHAR
STARTCHAR 04A5
ENCODING 1189
SWIDTH 760 0
DWIDTH 19 0
BBX 15 13 3 0
BITMAP
01FE
8100
8100
8100
8100
8100
FF00
8100
8100
8100
8100
8100
8100
ENDCHAR
STARTCHAR 04AA
ENCODING 1194
SWIDTH 600 0
DWIDTH 15 0
BBX 12 22 2 -4
BITMAP
0F00
30C0
4020
8020
8000
8000
8000
8000
8000
8000
8000
8000
8000
8000
8010
4020
2020
10C0
0F00
0200
0200
0200
ENDCHAR
STARTCHAR 04AB
ENCODING 1195
SWIDTH 480 0
DWIDTH 12 0
BBX 10 17 1 -4
BITMAP
1F00
2080
4040
8000
8000
8000
8000
8000
8000
8000
4000
4040
3080
0F00
0400
0400
0400
ENDCHAR
STARTCHAR 04AE
ENCODING 1198
SWIDTH 520 0
DWIDTH 13 0
BBX 12 17 1 0
BITMAP
8010
8020
4040
2040
2080
1080
1100
0A00
0E00
0400
0400
0400
0400
0400
0400
0400
0400
ENDCHAR
STARTCHAR 04AF
ENCODING 1199
SWIDTH 440 0
DWIDTH 11 0
BBX 10 18 1 -5
BITMAP
0040
8080
8080
8100
4100
4100
4200
2200
2200
1400
1400
1800
0800
0800
0800
0800
0800
0800
ENDCHAR
STARTCHAR 04B0
ENCODING 1200
SWIDTH 520 0
DWIDTH 13 0
BBX 12 17 1 0
BITMAP
8010
8020
4040
2040
2080
1080
1100
0A00
0E00
0400
3FC0
0400
0400
0400
0400
0400
0400
ENDCHAR
STARTCHAR 04B1
ENCODING 1201
SWIDTH 440 0
DWIDTH 11 0
BBX 10 18 1 -5
BITMAP
0040
8080
8080
8100
4100
4100
4200
2200
2200
1400
1400
1800
0800
3E00
0800
0800
0800
0800
ENDCHAR
STARTCHAR 04B2
ENCODING 1202
SWIDTH 560 0
DWIDTH 14 0
BBX 14 21 1 -4
BITMAP
8030
4020
2040
2080
1080
0900
0A00
0600
0600
0A00
0900
1080
2080
2040
4020
8020
801C
0004
0004
0004
0004
ENDCHAR
STARTCHAR 04B3
ENCODING 1203
SWIDTH 480 0
DWIDTH 12 0
BBX 11 16 1 -4
BITMAP
8040
8080
4100
2100
1200
1400
0800
0C00
1200
2200
4100
4080
8040
0020
0020
0020
ENDCHAR
STARTCHAR 04B6
ENCODING 1206
SWIDTH 640 0
DWIDTH 16 0
BBX 13 21 2 -4
BITMAP
8020
8020
8020
8020
8020
8020
8020
8020
4020
39E0
0620
0020
0020
0020
0020
0020
0038
0008
0008
0008
0008
ENDCHAR
STARTCHAR 04B7
ENCODING 1207
SWIDTH 520 0
DWIDTH 13 0
BBX 11 16 1 -4
BITMAP
8000
8080
8080
8080
8080
8080
4080
3380
0C80
0080
0080
0080
0080
0060
0020
0020
ENDCHAR
STARTCHAR 04B8
ENCODING 1208
SWIDTH 600 0
DWIDTH 15 0
BBX 11 17 2 0
BITMAP
8020
8020
8020
8020
8020
8420
8420
8420
4420
3DE0
0620
0420
0420
0420
0020
0020
0020
ENDCHAR
STARTCHAR 04B9
ENCODING 1209
SWIDTH 520 0
DWIDTH 13 0
BBX 9 13 1 0
BITMAP
8000
8080
8080
8080
8880
8880
4880
3B80
0C80
0880
0080
0080
0080
ENDCHAR
STARTCHAR 04BA
ENCODING 1210
SWIDTH 600 0
DWIDTH 15 0
BBX 11 17 3 0
BITMAP
8000
8000
8000
8000
8000
8000
8000
F380
8040
8040
8020
8020
8020
8020
8020
8020
8020
ENDCHAR
STARTCHAR 04BB
ENCODING 1211
SWIDTH 520 0
DWIDTH 13 0
BBX 9 18 3 1
BITMAP
8000
8000
8000
8000
8000
BC00
C300
8100
8100
8080
8080
8080
8080
8080
8080
8080
8080
8080
ENDCHAR
STARTCHAR 04C0
ENCODING 1216
SWIDTH 360 0
DWIDTH 9 0
BBX 4 17 3 0
BITMAP
F0
40
40
40
40
40
40
40
40
40
40
40
40
40
40
40
F0
ENDCHAR
STARTCHAR 04C1
ENCODING 1217
SWIDTH 880 0
DWIDTH 22 0
BBX 21 23 1 0
BITMAP
010400
010800
009000
006000
000000
000000
602070
202040
102080
102080
082100
082100
042200
042200
03FE00
042200
042100
082100
102080
102080
202040
202040
C02038
ENDCHAR
STARTCHAR 04C2
ENCODING 1218
SWIDTH 720 0
DWIDTH 18 0
BBX 16 18 1 0
BITMAP
0420
0420
03C0
0000
0000
C003
2104
2104
1108
1108
0910
07F0
0910
1108
1108
2104
2104
4102
ENDCHAR
STARTCHAR 04CF
ENCODING 1231
SWIDTH 200 0
DWIDTH 5 0
BBX 1 18 2 1
BITMAP
80
80
80
80
80
80
80
80
80
80
80
80
80
80
80
80
80
80
ENDCHAR
STARTCHAR 04D0
ENCODING 1232
SWIDTH 600 0
DWIDTH 15 0
BBX 13 23 1 0
BITMAP
1040
1080
0880
0700
0000
0000
0600
0500
0500
0900
0880
0880
1080
1040
2040
2040
2020
5FE0
4010
4010
8010
8008
8008
ENDCHAR
STARTCHAR 04D1
ENCODING 1233
SWIDTH 480 0
DWIDTH 12 0
BBX 9 18 2 0
BITMAP
4200
4200
3C00
0000
0000
3C00
C300
8100
0100
0100
0100
3F00
C100
8100
8100
8100
8300
7C80
ENDCHAR
STARTCHAR 04D2
ENCODING 1234
SWIDTH 600 0
DWIDTH 15 0
BBX 13 22 1 0
BITMAP
0880
0000
0000
0000
0000
0600
0500
0500
0900
0880
0880
1080
1040
2040
2040
2020
5FE0
4010
4010
8010
8008
8008
ENDCHAR
STARTCHAR 04D3
ENCODING 1235
SWIDTH 480 0
DWIDTH 12 0
BBX 9 17 2 0
BITMAP
6200
0000
0000
0000
3C00
C300
8100
0100
0100
0100
3F00
C100
8100
8100
8100
8300
7C80
ENDCHAR
STARTCHAR 04D4
ENCODING 1236
SWIDTH 840 0
DWIDTH 21 0
BBX 20 17 0 0
BITMAP
007FE0
00A000
00A000
012000
012000
022000
042000
042000
083FE0
082000
102000
1FE000
202000
202000
402000
802000
803FF0
ENDCHAR
STARTCHAR 04D5
ENCODING 1237
SWIDTH 840 0
DWIDTH 21 0
BBX 19 13 1 0
BITMAP
1E0F00
613080
00C040
004020
008020
008020
1FFFE0
608000
808000
804000
80C020
80A040
7F1F80
ENDCHAR
STARTCHAR 04D6
ENCODING 1238
SWIDTH 560 0
DWIDTH 14 0
BBX 9 23 3 0
BITMAP
4100
4200
2200
1C00
0000
0000
FF80
8000
8000
8000
8000
8000
8000
8000
FF00
8000
8000
8000
8000
8000
8000
8000
FF80
ENDCHAR
STARTCHAR 04D7
ENCODING 1239
SWIDTH 520 0
DWIDTH 13 0
BBX 11 18 1 0
BITMAP
2080
1100
0E00
0000
0000
1F00
2080
4040
8040
8020
8020
FFE0
8000
8000
8000
4040
4040
3F80
ENDCHAR
STARTCHAR 04D8
ENCODING 1240
SWIDTH 680 0
DWIDTH 17 0
BBX 13 18 2 0
BITMAP
0700
38C0
4020
8010
8008
0008
0008
0008
0008
FFF8
8008
8008
8008
8008
8010
4010
2020
1FC0
ENDCHAR
STARTCHAR 04D9
ENCODING 1241
SWIDTH 520 0
DWIDTH 13 0
BBX 11 13 1 0
BITMAP
1F00
2080
4040
0040
0020
0020
0020
FFE0
8020
8020
4040
4040
3F00
ENDCHAR
STARTCHAR 04DC
ENCODING 1244
SWIDTH 880 0
DWIDTH 22 0
BBX 21 22 1 0
BITMAP
000800
000800
000000
000000
000000
602070
202040
102080
102080
082100
082100
042200
042200
03FE00
042200
042100
082100
102080
102080
202040
202040
C02038
ENDCHAR
STARTCHAR 04DD
ENCODING 1245
SWIDTH 720 0
DWIDTH 18 0
BBX 16 17 1 0
BITMAP
0420
0000
0000
0000
C003
2104
2104
1108
1108
0910
07F0
0910
1108
1108
2104
2104
4102
ENDCHAR
STARTCHAR 04DE
ENCODING 1246
SWIDTH 560 0
DWIDTH 14 0
BBX 11 22 2 0
BITMAP
2100
0100
0000
0000
1E00
6180
8040
0040
0040
0040
0040
0040
0180
1F00
00C0
0040
0020
0020
0020
0040
8040
7F80
ENDCHAR
STARTCHAR 04DF
ENCODING 1247
SWIDTH 480 0
DWIDTH 12 0
BBX 9 17 1 0
BITMAP
2100
0000
0000
0000
1E00
6100
0080
0080
0080
0100
1E00
0380
0080
0080
0080
8080
7F00
ENDCHAR
STARTCHAR 04E2
ENCODING 1250
SWIDTH 680 0
DWIDTH 17 0
BBX 12 21 3 0
BITMAP
1F00
0000
0000
0000
8030
8050
8050
8090
8110
8110
8210
8410
8410
8810
9010
9010
A010
A010
C010
8010
8010
ENDCHAR
STARTCHAR 04E3
ENCODING 1251
SWIDTH 560 0
DWIDTH 14 0
BBX 9 17 3 0
BITMAP
7E00
0000
0000
0000
0080
8180
8280
8280
8480
8880
8880
9080
A080
A080
C080
8080
8080
ENDCHAR
STARTCHAR 04E4
ENCODING 1252
SWIDTH 680 0
DWIDTH 17 0
BBX 12 22 3 0
BITMAP
1100
0000
0000
0000
0000
8030
8050
8050
8090
8110
8110
8210
8410
8410
8810
9010
9010
A010
A010
C010
8010
8010
ENDCHAR
STARTCHAR 04E5
ENCODING 1253
SWIDTH 560 0
DWIDTH 14 0
BBX 9 17 3 0
BITMAP
4200
0000
0000
0000
0080
8180
8280
8280
8480
8880
8880
9080
A080
A080
C080
8080
8080
ENDCHAR
STARTCHAR 04E6
ENCODING 1254
SWIDTH 680 0
DWIDTH 17 0
BBX 13 22 2 0
BITMAP
0880
0000
0000
0000
0700
38E0
4010
C010
8008
8008
8008
8008
8008
8008
8008
8008
8008
8008
8010
4010
2020
1FC0
ENDCHAR
STARTCHAR 04E7
ENCODING 1255
SWIDTH 520 0
DWIDTH 13 0
BBX 11 17 1 0
BITMAP
1080
0000
0000
0000
1F00
2080
4040
8020
8020
8020
8020
8020
8020
8020
4040
4040
3F80
ENDCHAR
STARTCHAR 04E8
ENCODING 1256
SWIDTH 680 0
DWIDTH 17 0
BBX 13 18 2 0
BITMAP
0700
38E0
4010
C010
8008
8008
8008
8008
8008
FFF8
8008
8008
8008
8008
8010
4010
2020
1FC0
ENDCHAR
STARTCHAR 04E9
ENCODING 1257
SWIDTH 520 0
DWIDTH 13 0
BBX 11 13 1 0
BITMAP
1F00
2080
4040
8020
8020
8020
FFE0
8020
8020
8020
4040
4040
3F80
ENDCHAR
STARTCHAR 04EE
ENCODING 1262
SWIDTH 560 0
DWIDTH 14 0
BBX 12 21 1 0
BITMAP
0F80
0000
0000
0000
8010
8010
4020
4020
2020
2040
1040
1080
0880
0880
0500
0500
0200
0200
0200
0400
0C00
ENDCHAR
STARTCHAR 04EF
ENCODING 1263
SWIDTH 440 0
DWIDTH 11 0
BBX 10 22 1 -5
BITMAP
7F00
0000
0000
0000
0040
8080
8080
8080
4100
4100
4200
2200
2200
1400
1400
1400
0800
0800
1000
1000
1000
6000
ENDCHAR
STARTCHAR 04F0
ENCODING 1264
SWIDTH 560 0
DWIDTH 14 0
BBX 12 22 1 0
BITMAP
0880
0000
0000
0000
0000
8010
8010
4020
4020
2020
2040
1040
1080
0880
0880
0500
0500
0200
0200
0200
0400
0C00
ENDCHAR
STARTCHAR 04F1
ENCODING 1265
SWIDTH 440 0
DWIDTH 11 0
BBX 10 22 1 -5
BITMAP
2300
0000
0000
0000
0040
8080
8080
8080
4100
4100
4200
2200
2200
1400
1400
1400
0800
0800
1000
1000
1000
6000
ENDCHAR
STARTCHAR 04F2
ENCODING 1266
SWIDTH 560 0
DWIDTH 14 0
BBX 12 23 1 0
BITMAP
0220
0440
0440
0880
0000
0000
8010
8010
4020
4020
2020
2040
1040
1080
0880
0880
0500
0500
0200
0200
0200
0400
0C00
ENDCHAR
STARTCHAR 04F3
ENCODING 1267
SWIDTH 440 0
DWIDTH 11 0
BBX 10 24 1 -5
BITMAP
0440
0880
1100
2200
0000
0000
0040
8080
8080
8080
4100
4100
4200
2200
2200
1400
1400
1400
0800
0800
1000
1000
1000
6000
ENDCHAR
STARTCHAR 04F4
ENCODING 1268
SWIDTH 600 0
DWIDTH 15 0
BBX 11 22 2 0
BITMAP
0100
0100
0000
0000
0000
8020
8020
8020
8020
8020
8020
8020
8020
4020
39E0
0620
0020
0020
0020
0020
0020
0020
ENDCHAR
STARTCHAR 04F5
ENCODING 1269
SWIDTH 520 0
DWIDTH 13 0
BBX 9 17 1 0
BITMAP
2100
0000
0000
0000
8000
8080
8080
8080
8080
8080
4080
3380
0C80
0080
0080
0080
0080
ENDCHAR
STARTCHAR 04F8
ENCODING 1272
SWIDTH 800 0
DWIDTH 20 0
BBX 15 22 3 0
BITMAP
0040
0040
0000
0000
0000
8002
8002
8002
8002
8002
8002
8002
FF02
8082
8042
8042
8042
8042
8042
8042
8042
FF82
ENDCHAR
STARTCHAR 04F9
ENCODING 1273
SWIDTH 640 0
DWIDTH 16 0
BBX 11 17 3 0
BITMAP
1100
0000
0000
0000
0000
8020
8020
8020
8020
8020
FE20
8220
8120
8120
8120
8220
FC20
ENDCHAR
STARTCHAR 0E3F
ENCODING 3647
SWIDTH 600 0
DWIDTH 15 0
BBX 10 22 3 -2
BITMAP
0800
0800
0800
FF00
8880
8880
8840
8840
8840
8880
8B00
FC80
8840
8840
8840
8840
8840
8840
8880
7F00
0800
0800
ENDCHAR
STARTCHAR 1E80
ENCODING 7808
SWIDTH 840 0
DWIDTH 21 0
BBX 20 22 1 1
BITMAP
008000
004000
002000
000000
000000
806010
80A010
80A020
80A020
409020
411040
411040
410840
210840
220880
220880
120480
140480
140500
140500
0C0300
080100
ENDCHAR
STARTCHAR 1E81
ENCODING 7809
SWIDTH 720 0
DWIDTH 18 0
BBX 16 18 1 1
BITMAP
0200
0100
0100
0000
0000
0000
8181
8181
8282
4242
4242
4444
2424
2424
2828
2828
1818
0808
ENDCHAR
STARTCHAR 1E82
ENCODING 7810
SWIDTH 840 0
DWIDTH 21 0
BBX 20 23 1 0
BITMAP
001000
002000
004000
004000
000000
000000
806010
80A010
80A020
80A020
409020
411040
411040
410840
210840
220880
220880
120480
140480
140500
140500
0C0300
080100
ENDCHAR
STARTCHAR 1E83
ENCODING 7811
SWIDTH 720 0
DWIDTH 18 0
BBX 16 18 1 1
BITMAP
0040
0080
0100
0000
0000
0000
8181
8181
8282
4242
4242
4444
2424
2424
2828
2828
1818
0808
ENDCHAR
STARTCHAR 1E84
ENCODING 7812
SWIDTH 840 0
DWIDTH 21 0
BBX 20 22 1 0
BITMAP
010800
010000
000000
000000
000000
806010
80A010
80A020
80A020
409020
411040
411040
410840
210840
220880
220880
120480
140480
140500
140500
0C0300
080100
ENDCHAR
STARTCHAR 1E85
ENCODING 7813
SWIDTH 720 0
DWIDTH 18 0
BBX 16 17 1 0
BITMAP
0420
0000
0000
0000
0000
8181
8181
8282
4242
4242
4444
2424
2424
2828
2828
1818
0808
ENDCHAR
STARTCHAR 1E9E
ENCODING 7838
SWIDTH 680 0
DWIDTH 17 0
BBX 13 17 3 0
BITMAP
FFE0
8020
8040
8080
8100
8100
8200
83C0
8020
8010
8010
8008
8008
8008
8010
9010
8FE0
ENDCHAR
STARTCHAR 1EA0
ENCODING 7840
SWIDTH 600 0
DWIDTH 15 0
BBX 13 20 1 -3
BITMAP
0600
0500
0500
0900
0880
0880
1080
1040
2040
2040
2020
5FE0
4010
4010
8010
8008
8008
0000
0000
0200
ENDCHAR
STARTCHAR 1EA1
ENCODING 7841
SWIDTH 480 0
DWIDTH 12 0
BBX 9 16 2 -3
BITMAP
3C00
C300
8100
0100
0100
0100
3F00
C100
8100
8100
8100
8300
4600
3880
0000
1000
ENDCHAR
STARTCHAR 1EA2
ENCODING 7842
SWIDTH 600 0
DWIDTH 15 0
BBX 13 23 1 0
BITMAP
0780
0100
0100
0200
0000
0000
0600
0500
0500
0900
0880
0880
1080
1040
2040
2040
2020
5FE0
4010
4010
8010
8008
8008
ENDCHAR
STARTCHAR 1EA3
ENCODING 7843
SWIDTH 480 0
DWIDTH 12 0
BBX 9 18 2 0
BITMAP
1C00
0400
0800
0000
0000
3C00
C300
8100
0100
0100
0100
3F00
C100
8100
8100
8100
8300
7C80
ENDCHAR
STARTCHAR 1EA4
ENCODING 7844
SWIDTH 600 0
DWIDTH 15 0
BBX 13 26 1 0
BITMAP
0010
0020
0020
0240
0500
0880
1040
0000
0000
0600
0500
0500
0900
0880
0880
1080
1040
2040
2040
2020
5FE0
4010
4010
8010
8008
8008
ENDCHAR
STARTCHAR 1EA5
ENCODING 7845
SWIDTH 480 0
DWIDTH 12 0
BBX 10 22 2 0
BITMAP
0040
0080
0080
0100
1800
2400
4200
0000
0000
3C00
C300
8100
0100
0100
0100
3F00
C100
8100
8100
8100
8300
7C80
ENDCHAR
STARTCHAR 1EA6
ENCODING 7846
SWIDTH 600 0
DWIDTH 15 0
BBX 13 26 1 0
BITMAP
4000
4000
2000
1200
0500
0880
1040
0000
0000
0600
0500
0500
0900
0880
0880
1080
1040
2040
2040
2020
5FE0
4010
4010
8010
8008
8008
ENDCHAR
STARTCHAR 1EA7
ENCODING 7847
SWIDTH 480 0
DWIDTH 12 0
BBX 10 21 1 1
BITMAP
8000
8000
4000
2C00
1200
2100
0000
0000
1E00
6180
4080
0080
0080
0080
1F80
6080
8080
8080
8080
8180
7E40
ENDCHAR
STARTCHAR 1EA8
ENCODING 7848
SWIDTH 600 0
DWIDTH 15 0
BBX 13 26 1 0
BITMAP
01E0
0020
0040
0240
0500
0880
1040
0000
0000
0600
0500
0500
0900
0880
0880
1080
1040
2040
2040
2020
5FE0
4010
4010
8010
8008
8008
ENDCHAR
STARTCHAR 1EA9
ENCODING 7849
SWIDTH 480 0
DWIDTH 12 0
BBX 9 21 2 0
BITMAP
0380
0080
0100
1800
2400
4200
0000
0000
3C00
C300
8100
0100
0100
0100
3F00
C100
8100
8100
8100
8300
7C80
ENDCHAR
STARTCHAR 1EAA
ENCODING 7850
SWIDTH 600 0
DWIDTH 15 0
BBX 13 26 1 0
BITMAP
0C00
1240
0180
0200
0500
0880
1040
0000
0000
0600
0500
0500
0900
0880
0880
1080
1040
2040
2040
2020
5FE0
4010
4010
8010
8008
8008
ENDCHAR
STARTCHAR 1EAB
ENCODING 7851
SWIDTH 480 0
DWIDTH 12 0
BBX 9 21 2 0
BITMAP
7000
0E00
0000
1800
2400
4200
0000
0000
3C00
C300
8100
0100
0100
0100
3F00
C100
8100
8100
8100
8300
7C80
ENDCHAR
STARTCHAR 1EAC
ENCODING 7852
SWIDTH 600 0
DWIDTH 15 0
BBX 13 26 1 -3
BITMAP
0600
0900
1080
0040
0000
0000
0600
0500
0500
0900
0880
0880
1080
1040
2040
2040
2020
5FE0
4010
4010
8010
8008
8008
0000
0000
0200
ENDCHAR
STARTCHAR 1EAD
ENCODING 7853
SWIDTH 480 0
DWIDTH 12 0
BBX 9 22 2 -3
BITMAP
0800
1400
2200
4100
0000
0000
3C00
C300
8100
0100
0100
0100
3F00
C100
8100
8100
8100
8300
4600
3880
0000
1000
ENDCHAR
STARTCHAR 1EAE
ENCODING 7854
SWIDTH 600 0
DWIDTH 15 0
BBX 13 26 1 0
BITMAP
0080
0100
0200
0200
10C0
0880
0600
0000
0000
0600
0500
0500
0900
0880
0880
1080
1040
2040
2040
2020
5FE0
4010
4010
8010
8008
8008
ENDCHAR
STARTCHAR 1EAF
ENCODING 7855
SWIDTH 480 0
DWIDTH 12 0
BBX 9 21 2 1
BITMAP
0400
0400
0800
0100
4200
2400
1800
0000
3C00
C300
8100
0100
0100
0100
3F00
C100
8100
8100
8100
8300
7C80
ENDCHAR
STARTCHAR 1EB0
ENCODING 7856
SWIDTH 600 0
DWIDTH 15 0
BBX 13 26 1 0
BITMAP
0800
0800
0400
0200
10C0
0880
0600
0000
0000
0600
0500
0500
0900
0880
0880
1080
1040
2040
2040
2020
5FE0
4010
4010
8010
8008
8008
ENDCHAR
STARTCHAR 1EB1
ENCODING 7857
SWIDTH 480 0
DWIDTH 12 0
BBX 9 21 2 1
BITMAP
2000
2000
1000
0900
4200
2400
1800
0000
3C00
C300
8100
0100
0100
0100
3F00
C100
8100
8100
8100
8300
7C80
ENDCHAR
STARTCHAR 1EB2
ENCODING 7858
SWIDTH 600 0
DWIDTH 15 0
BBX 13 26 1 0
BITMAP
0700
0100
0100
0200
10C0
0880
0600
0000
0000
0600
0500
0500
0900
0880
0880
1080
1040
2040
2040
2020
5FE0
4010
4010
8010
8008
8008
ENDCHAR
STARTCHAR 1EB3
ENCODING 7859
SWIDTH 480 0
DWIDTH 12 0
BBX 9 21 2 0
BITMAP
1C00
0400
0800
0100
4200
2400
1800
0000
3C00
C300
8100
0100
0100
0100
3F00
C100
8100
8100
8100
8300
7C80
ENDCHAR
STARTCHAR 1EB4
ENCODING 7860
SWIDTH 600 0
DWIDTH 15 0
BBX 13 25 1 0
BITMAP
1E00
01C0
0000
10C0
0880
0600
0000
0000
0600
0500
0500
0900
0880
0880
1080
1040
2040
2040
2020
5FE0
4010
4010
8010
8008
8008
ENDCHAR
STARTCHAR 1EB5
ENCODING 7861
SWIDTH 480 0
DWIDTH 12 0
BBX 9 21 2 0
BITMAP
7000
0E00
0000
0100
4200
2400
1800
0000
3C00
C300
8100
0100
0100
0100
3F00
C100
8100
8100
8100
8300
7C80
ENDCHAR
STARTCHAR 1EB6
ENCODING 7862
SWIDTH 600 0
DWIDTH 15 0
BBX 13 26 1 -3
BITMAP
1040
1080
0880
0700
0000
0000
0600
0500
0500
0900
0880
0880
1080
1040
2040
2040
2020
5FE0
4010
4010
8010
8008
8008
0000
0000
0200
ENDCHAR
STARTCHAR 1EB7
ENCODING 7863
SWIDTH 480 0
DWIDTH 12 0
BBX 9 21 2 -3
BITMAP
4200
4200
3C00
0000
0000
3C00
C300
8100
0100
0100
0100
3F00
C100
8100
8100
8100
8300
4600
3880
0000
1000
ENDCHAR
STARTCHAR 1EB8
ENCODING 7864
SWIDTH 560 0
DWIDTH 14 0
BBX 9 20 3 -3
BITMAP
FF80
8000
8000
8000
8000
8000
8000
8000
FF00
8000
8000
8000
8000
8000
8000
8000
FF80
0000
0000
0800
ENDCHAR
STARTCHAR 1EB9
ENCODING 7865
SWIDTH 520 0
DWIDTH 13 0
BBX 11 16 1 -3
BITMAP
1F00
2080
4040
8040
8020
8020
FFE0
8000
8000
8000
4040
4040
3080
0F00
0000
0400
ENDCHAR
STARTCHAR 1EBA
ENCODING 7866
SWIDTH 560 0
DWIDTH 14 0
BBX 9 23 3 0
BITMAP
1E00
0400
0400
0800
0000
0000
FF80
8000
8000
8000
8000
8000
8000
8000
FF00
8000
8000
8000
8000
8000
8000
8000
FF80
ENDCHAR
STARTCHAR 1EBB
ENCODING 7867
SWIDTH 520 0
DWIDTH 13 0
BBX 11 18 1 0
BITMAP
0700
0200
0400
0000
0000
1F00
2080
4040
8040
8020
8020
FFE0
8000
8000
8000
4040
4040
3F80
ENDCHAR
STARTCHAR 1EBC
ENCODING 7868
SWIDTH 560 0
DWIDTH 14 0
BBX 9 22 3 0
BITMAP
7000
0F00
0000
0000
0000
FF80
8000
8000
8000
8000
8000
8000
8000
FF00
8000
8000
8000
8000
8000
8000
8000
FF80
ENDCHAR
STARTCHAR 1EBD
ENCODING 7869
SWIDTH 520 0
DWIDTH 13 0
BBX 11 18 1 0
BITMAP
1000
2C00
0300
0000
0000
1F00
2080
4040
8040
8020
8020
FFE0
8000
8000
8000
4040
4040
3F80
ENDCHAR
STARTCHAR 1EBE
ENCODING 7870
SWIDTH 560 0
DWIDTH 14 0
BBX 10 26 3 0
BITMAP
0040
0080
0080
0900
1400
2200
4100
0000
0000
FF80
8000
8000
8000
8000
8000
8000
8000
FF00
8000
8000
8000
8000
8000
8000
8000
FF80
ENDCHAR
STARTCHAR 1EBF
ENCODING 7871
SWIDTH 520 0
DWIDTH 13 0
BBX 11 21 1 1
BITMAP
0020
0040
0080
0E80
1100
2080
0000
0000
1F00
2080
4040
8040
8020
8020
FFE0
8000
8000
8000
4040
4040
3F80
ENDCHAR
STARTCHAR 1EC0
ENCODING 7872
SWIDTH 560 0
DWIDTH 14 0
BBX 10 26 2 0
BITMAP
8000
8000
4000
2400
0A00
1100
2080
0000
0000
FFC0
8000
8000
8000
8000
8000
8000
8000
FF80
8000
8000
8000
8000
8000
8000
8000
7FC0
ENDCHAR
STARTCHAR 1EC1
ENCODING 7873
SWIDTH 520 0
DWIDTH 13 0
BBX 11 21 1 1
BITMAP
8000
4000
2000
0E00
1100
2080
0000
0000
1F00
2080
4040
8040
8020
8020
FFE0
8000
8000
8000
4040
4040
3F80
ENDCHAR
STARTCHAR 1EC2
ENCODING 7874
SWIDTH 560 0
DWIDTH 14 0
BBX 9 26 3 0
BITMAP
0780
0080
0100
0900
1400
2200
4100
0000
0000
FF80
8000
8000
8000
8000
8000
8000
8000
FF00
8000
8000
8000
8000
8000
8000
8000
FF80
ENDCHAR
STARTCHAR 1EC3
ENCODING 7875
SWIDTH 520 0
DWIDTH 13 0
BBX 11 21 1 0
BITMAP
00E0
0040
0080
0E80
1100
2080
0000
0000
1F00
2080
4040
8040
8020
8020
FFE0
8000
8000
8000
4040
4040
3F80
ENDCHAR
STARTCHAR 1EC4
ENCODING 7876
SWIDTH 560 0
DWIDTH 14 0
BBX 9 26 3 0
BITMAP
3000
4900
0600
0800
1400
2200
4100
0000
0000
FF80
8000
8000
8000
8000
8000
8000
8000
FF00
8000
8000
8000
8000
8000
8000
8000
FF80
ENDCHAR
STARTCHAR 1EC5
ENCODING 7877
SWIDTH 520 0
DWIDTH 13 0
BBX 11 21 1 0
BITMAP
3C00
0380
0000
0E00
1100
2080
0000
0000
1F00
2080
4040
8040
8020
8020
FFE0
8000
8000
8000
4040
4040
3F80
ENDCHAR
STARTCHAR 1EC6
ENCODING 7878
SWIDTH 560 0
DWIDTH 14 0
BBX 9 26 3 -3
BITMAP
1800
2400
4200
0100
0000
0000
FF80
8000
8000
8000
8000
8000
8000
8000
FF00
8000
8000
8000
8000
8000
8000
8000
FF80
0000
0000
0800
ENDCHAR
STARTCHAR 1EC7
ENCODING 7879
SWIDTH 520 0
DWIDTH 13 0
BBX 11 22 1 -3
BITMAP
0400
0A00
1100
2080
0000
0000
1F00
2080
4040
8040
8020
8020
FFE0
8000
8000
8000
4040
4040
3080
0F00
0000
0400
ENDCHAR
STARTCHAR 1EC8
ENCODING 7880
SWIDTH 360 0
DWIDTH 9 0
BBX 4 23 3 0
BITMAP
F0
20
20
40
00
00
F0
40
40
40
40
40
40
40
40
40
40
40
40
40
40
40
F0
ENDCHAR
STARTCHAR 1EC9
ENCODING 7881
SWIDTH 200 0
DWIDTH 5 0
BBX 3 18 2 0
BITMAP
E0
40
40
00
00
00
80
80
80
80
80
80
80
80
80
80
80
80
ENDCHAR
STARTCHAR 1ECA
ENCODING 7882
SWIDTH 360 0
DWIDTH 9 0
BBX 4 20 3 -3
BITMAP
F0
40
40
40
40
40
40
40
40
40
40
40
40
40
40
40
40
B0
00
40
ENDCHAR
STARTCHAR 1ECB
ENCODING 7883
SWIDTH 200 0
DWIDTH 5 0
BBX 1 21 2 -3
BITMAP
80
00
00
00
00
00
80
80
80
80
80
80
80
80
80
80
80
80
00
00
80
ENDCHAR
STARTCHAR 1ECC
ENCODING 7884
SWIDTH 680 0
DWIDTH 17 0
BBX 13 21 2 -3
BITMAP
0700
38E0
4010
C010
8008
8008
8008
8008
8008
8008
8008
8008
8008
8008
8010
4010
2020
18C0
0700
0000
0200
ENDCHAR
STARTCHAR 1ECD
ENCODING 7885
SWIDTH 520 0
DWIDTH 13 0
BBX 11 16 1 -3
BITMAP
1F00
2080
4040
8020
8020
8020
8020
8020
8020
8020
4040
4040
3080
0F00
0000
0400
ENDCHAR
STARTCHAR 1ECE
ENCODING 7886
SWIDTH 680 0
DWIDTH 17 0
BBX 13 23 2 0
BITMAP
0780
0100
0100
0200
0000
0700
38E0
4010
C010
8008
8008
8008
8008
8008
8008
8008
8008
8008
8008
8010
4010
2020
1FC0
ENDCHAR
STARTCHAR 1ECF
ENCODING 7887
SWIDTH 520 0
DWIDTH 13 0
BBX 11 18 1 0
BITMAP
0700
0200
0400
0000
0000
1F00
2080
4040
8020
8020
8020
8020
8020
8020
8020
4040
4040
3F80
ENDCHAR
STARTCHAR 1ED0
ENCODING 7888
SWIDTH 680 0
DWIDTH 17 0
BBX 13 26 2 0
BITMAP
0010
0020
0020
0240
0500
0880
1040
0000
0700
38E0
4010
C010
8008
8008
8008
8008
8008
8008
8008
8008
8008
8008
8010
4010
2020
1FC0
ENDCHAR
STARTCHAR 1ED1
ENCODING 7889
SWIDTH 520 0
DWIDTH 13 0
BBX 11 21 1 1
BITMAP
0020
0040
0080
0E80
1100
2080
0000
0000
1F00
2080
4040
8020
8020
8020
8020
8020
8020
8020
4040
4040
3F80
ENDCHAR
STARTCHAR 1ED2
ENCODING 7890
SWIDTH 680 0
DWIDTH 17 0
BBX 13 26 2 0
BITMAP
4000
4000
2000
1200
0500
0880
1040
0000
0700
38E0
4010
C010
8008
8008
8008
8008
8008
8008
8008
8008
8008
8008
8010
4010
2020
1FC0
ENDCHAR
STARTCHAR 1ED3
ENCODING 7891
SWIDTH 520 0
DWIDTH 13 0
BBX 11 22 1 0
BITMAP
8000
8000
4000
2000
0E00
1100
2080
0000
0000
1F00
2080
4040
8020
8020
8020
8020
8020
8020
8020
4040
4040
3F80
ENDCHAR
STARTCHAR 1ED4
ENCODING 7892
SWIDTH 680 0
DWIDTH 17 0
BBX 13 26 2 0
BITMAP
01E0
0020
0020
0240
0500
0880
1040
0000
0700
38E0
4010
C010
8008
8008
8008
8008
8008
8008
8008
8008
8008
8008
8010
4010
2020
1FC0
ENDCHAR
STARTCHAR 1ED5
ENCODING 7893
SWIDTH 520 0
DWIDTH 13 0
BBX 11 21 1 0
BITMAP
00E0
0040
0080
0E80
1100
2080
0000
0000
1F00
2080
4040
8020
8020
8020
8020
8020
8020
8020
4040
4040
3F80
ENDCHAR
STARTCHAR 1ED6
ENCODING 7894
SWIDTH 680 0
DWIDTH 17 0
BBX 13 26 2 0
BITMAP
0C00
1240
0180
0200
0500
0880
1040
0000
0700
38E0
4010
C010
8008
8008
8008
8008
8008
8008
8008
8008
8008
8008
8010
4010
2020
1FC0
ENDCHAR
STARTCHAR 1ED7
ENCODING 7895
SWIDTH 520 0
DWIDTH 13 0
BBX 11 21 1 0
BITMAP
3C00
0300
0000
0E00
1100
2080
0000
0000
1F00
2080
4040
8020
8020
8020
8020
8020
8020
8020
4040
4040
3F80
ENDCHAR
STARTCHAR 1ED8
ENCODING 7896
SWIDTH 680 0
DWIDTH 17 0
BBX 13 26 2 -3
BITMAP
0600
0900
1080
0040
0000
0700
38E0
4010
C010
8008
8008
8008
8008
8008
8008
8008
8008
8008
8008
8010
4010
2020
18C0
0700
0000
0200
ENDCHAR
STARTCHAR 1ED9
ENCODING 7897
SWIDTH 520 0
DWIDTH 13 0
BBX 11 22 1 -3
BITMAP
0400
0A00
1100
2080
0000
0000
1F00
2080
4040
8020
8020
8020
8020
8020
8020
8020
4040
4040
3080
0F00
0000
0400
ENDCHAR
STARTCHAR 1EDA
ENCODING 7898
SWIDTH 680 0
DWIDTH 17 0
BBX 13 23 2 0
BITMAP
0080
0100
0200
0008
0008
0788
3870
4020
C010
8008
8008
8008
8008
8008
8008
8008
8008
8008
8008
8010
4010
2020
1FC0
ENDCHAR
STARTCHAR 1EDB
ENCODING 7899
SWIDTH 520 0
DWIDTH 13 0
BBX 11 18 1 1
BITMAP
0300
0200
0400
0020
0020
1FE0
2080
4040
8020
8020
8020
8020
8020
8020
8020
4040
4040
3F80
ENDCHAR
STARTCHAR 1EDC
ENCODING 7900
SWIDTH 680 0
DWIDTH 17 0
BBX 13 23 2 0
BITMAP
0800
0400
0200
0008
0008
0788
3870
4020
C010
8008
8008
8008
8008
8008
8008
8008
8008
8008
8008
8010
4010
2020
1FC0
ENDCHAR
STARTCHAR 1EDD
ENCODING 7901
SWIDTH 520 0
DWIDTH 13 0
BBX 11 19 1 0
BITMAP
1000
0800
0800
0400
0020
0020
1FE0
2080
4040
8020
8020
8020
8020
8020
8020
8020
4040
4040
3F80
ENDCHAR
STARTCHAR 1EDE
ENCODING 7902
SWIDTH 680 0
DWIDTH 17 0
BBX 13 23 2 0
BITMAP
0780
0100
0100
0208
0008
0788
3870
4020
C010
8008
8008
8008
8008
8008
8008
8008
8008
8008
8008
8010
4010
2020
1FC0
ENDCHAR
STARTCHAR 1EDF
ENCODING 7903
SWIDTH 520 0
DWIDTH 13 0
BBX 11 18 1 0
BITMAP
0700
0200
0400
0020
0020
1FE0
2080
4040
8020
8020
8020
8020
8020
8020
8020
4040
4040
3F80
ENDCHAR
STARTCHAR 1EE0
ENCODING 7904
SWIDTH 680 0
DWIDTH 17 0
BBX 13 22 2 0
BITMAP
1C00
03C0
0008
0008
0788
3870
4020
C010
8008
8008
8008
8008
8008
8008
8008
8008
8008
8008
8010
4010
2020
1FC0
ENDCHAR
STARTCHAR 1EE1
ENCODING 7905
SWIDTH 520 0
DWIDTH 13 0
BBX 11 17 1 1
BITMAP
3C00
0380
0020
0020
1FE0
2080
4040
8020
8020
8020
8020
8020
8020
8020
4040
4040
3F80
ENDCHAR
STARTCHAR 1EE2
ENCODING 7906
SWIDTH 680 0
DWIDTH 17 0
BBX 13 23 2 -3
BITMAP
0008
0008
0788
3870
4020
C010
8008
8008
8008
8008
8008
8008
8008
8008
8008
8008
8010
4010
2020
18C0
0700
0000
0200
ENDCHAR
STARTCHAR 1EE3
ENCODING 7907
SWIDTH 520 0
DWIDTH 13 0
BBX 11 18 1 -3
BITMAP
0020
0020
1FE0
2080
4040
8020
8020
8020
8020
8020
8020
8020
4040
4040
3080
0F00
0000
0400
ENDCHAR
STARTCHAR 1EE4
ENCODING 7908
SWIDTH 640 0
DWIDTH 16 0
BBX 12 20 2 -3
BITMAP
8010
8010
8010
8010
8010
8010
8010
8010
8010
8010
8010
8010
8010
8010
4020
4020
30C0
0F00
0000
0200
ENDCHAR
STARTCHAR 1EE5
ENCODING 7909
SWIDTH 520 0
DWIDTH 13 0
BBX 9 16 2 -3
BITMAP
8000
8080
8080
8080
8080
8080
8080
8080
8080
8080
8080
4180
2180
1E00
0000
0800
ENDCHAR
STARTCHAR 1EE6
ENCODING 7910
SWIDTH 640 0
DWIDTH 16 0
BBX 12 23 2 0
BITMAP
0F00
0100
0200
0200
0000
0000
8010
8010
8010
8010
8010
8010
8010
8010
8010
8010
8010
8010
8010
8010
4020
4020
3FC0
ENDCHAR
STARTCHAR 1EE7
ENCODING 7911
SWIDTH 520 0
DWIDTH 13 0
BBX 9 18 2 0
BITMAP
0E00
0400
0400
0000
0000
8000
8080
8080
8080
8080
8080
8080
8080
8080
8080
8080
4180
3F80
ENDCHAR
STARTCHAR 1EE8
ENCODING 7912
SWIDTH 640 0
DWIDTH 16 0
BBX 14 23 2 0
BITMAP
0100
0200
0200
0404
0004
0004
8018
8010
8010
8010
8010
8010
8010
8010
8010
8010
8010
8010
8010
8010
4020
4020
3FC0
ENDCHAR
STARTCHAR 1EE9
ENCODING 7913
SWIDTH 520 0
DWIDTH 13 0
BBX 11 18 2 1
BITMAP
0200
0400
0800
0020
0020
8060
8080
8080
8080
8080
8080
8080
8080
8080
8080
8080
4180
3F80
ENDCHAR
STARTCHAR 1EEA
ENCODING 7914
SWIDTH 640 0
DWIDTH 16 0
BBX 14 23 2 0
BITMAP
0800
0800
0400
0204
0004
0004
8018
8010
8010
8010
8010
8010
8010
8010
8010
8010
8010
8010
8010
8010
4020
4020
3FC0
ENDCHAR
STARTCHAR 1EEB
ENCODING 7915
SWIDTH 520 0
DWIDTH 13 0
BBX 11 19 2 0
BITMAP
2000
1000
0800
0800
0020
0020
8060
8080
8080
8080
8080
8080
8080
8080
8080
8080
8080
4180
3F80
ENDCHAR
STARTCHAR 1EEC
ENCODING 7916
SWIDTH 640 0
DWIDTH 16 0
BBX 14 23 2 0
BITMAP
0F00
0100
0200
0204
0004
0004
8018
8010
8010
8010
8010
8010
8010
8010
8010
8010
8010
8010
8010
8010
4020
4020
3FC0
ENDCHAR
STARTCHAR 1EED
ENCODING 7917
SWIDTH 520 0
DWIDTH 13 0
BBX 11 18 2 0
BITMAP
0E00
0400
0400
0020
0020
8060
8080
8080
8080
8080
8080
8080
8080
8080
8080
8080
4180
3F80
ENDCHAR
STARTCHAR 1EEE
ENCODING 7918
SWIDTH 640 0
DWIDTH 16 0
BBX 14 22 2 0
BITMAP
1C00
0380
0004
0004
0004
8018
8010
8010
8010
8010
8010
8010
8010
8010
8010
8010
8010
8010
8010
4020
4020
3FC0
ENDCHAR
STARTCHAR 1EEF
ENCODING 7919
SWIDTH 520 0
DWIDTH 13 0
BBX 11 18 2 0
BITMAP
1000
6C00
0300
0020
0020
8060
8080
8080
8080
8080
8080
8080
8080
8080
8080
8080
4180
3F80
ENDCHAR
STARTCHAR 1EF0
ENCODING 7920
SWIDTH 640 0
DWIDTH 16 0
BBX 14 23 2 -3
BITMAP
0004
0004
0004
8018
8010
8010
8010
8010
8010
8010
8010
8010
8010
8010
8010
8010
8010
4020
4020
30C0
0F00
0000
0200
ENDCHAR
STARTCHAR 1EF1
ENCODING 7921
SWIDTH 520 0
DWIDTH 13 0
BBX 11 18 2 -3
BITMAP
0020
0020
8060
8080
8080
8080
8080
8080
8080
8080
8080
8080
8080
4180
2180
1E00
0000
0800
ENDCHAR
STARTCHAR 1EF2
ENCODING 7922
SWIDTH 520 0
DWIDTH 13 0
BBX 12 22 1 1
BITMAP
0800
0400
0200
0000
0000
8010
8020
4040
2040
2080
1080
1100
0A00
0E00
0400
0400
0400
0400
0400
0400
0400
0400
ENDCHAR
STARTCHAR 1EF3
ENCODING 7923
SWIDTH 440 0
DWIDTH 11 0
BBX 10 24 1 -5
BITMAP
2000
1000
1000
0800
0000
0000
0040
8080
8080
8080
4100
4100
4200
2200
2200
1400
1400
1400
0800
0800
1000
1000
1000
6000
ENDCHAR
STARTCHAR 1EF4
ENCODING 7924
SWIDTH 520 0
DWIDTH 13 0
BBX 12 20 1 -3
BITMAP
8010
8020
4040
2040
2080
1080
1100
0A00
0E00
0400
0400
0400
0400
0400
0400
0400
0400
0000
0000
0400
ENDCHAR
STARTCHAR 1EF5
ENCODING 7925
SWIDTH 440 0
DWIDTH 11 0
BBX 10 18 1 -5
BITMAP
0040
8080
8080
8080
4100
4100
4200
2200
2200
1400
1400
1400
0800
0800
1000
1100
1000
6000
ENDCHAR
STARTCHAR 1EF6
ENCODING 7926
SWIDTH 520 0
DWIDTH 13 0
BBX 12 23 1 0
BITMAP
0F00
0200
0200
0000
0000
0000
8010
8020
4040
2040
2080
1080
1100
0A00
0E00
0400
0400
0400
0400
0400
0400
0400
0400
ENDCHAR
STARTCHAR 1EF7
ENCODING 7927
SWIDTH 440 0
DWIDTH 11 0
BBX 10 23 1 -5
BITMAP
0E00
0400
0800
0000
0000
0040
8080
8080
8080
4100
4100
4200
2200
2200
1400
1400
1400
0800
0800
1000
1000
1000
6000
ENDCHAR
STARTCHAR 1EF8
ENCODING 7928
SWIDTH 520 0
DWIDTH 13 0
BBX 12 22 1 0
BITMAP
1C00
0380
0000
0000
0000
8010
8020
4040
2040
2080
1080
1100
0A00
0E00
0400
0400
0400
0400
0400
0400
0400
0400
ENDCHAR
STARTCHAR 1EF9
ENCODING 7929
SWIDTH 440 0
DWIDTH 11 0
BBX 10 23 1 -5
BITMAP
2000
5800
0600
0000
0000
0040
8080
8080
8080
4100
4100
4200
2200
2200
1400
1400
1400
0800
0800
1000
1000
1000
6000
ENDCHAR
STARTCHAR 2013
ENCODING 8211
SWIDTH 560 0
DWIDTH 14 0
BBX 13 1 1 7
BITMAP
FFF8
ENDCHAR
STARTCHAR 2014
ENCODING 8212
SWIDTH 760 0
DWIDTH 19 0
BBX 18 1 1 7
BITMAP
FFFFC0
ENDCHAR
STARTCHAR 2018
ENCODING 8216
SWIDTH 240 0
DWIDTH 6 0
BBX 3 5 2 13
BITMAP
20
40
80
80
C0
ENDCHAR
STARTCHAR 2019
ENCODING 8217
SWIDTH 240 0
DWIDTH 6 0
BBX 2 5 2 14
BITMAP
40
40
40
80
80
ENDCHAR
STARTCHAR 201A
ENCODING 8218
SWIDTH 240 0
DWIDTH 6 0
BBX 2 4 2 -2
BITMAP
C0
40
80
80
ENDCHAR
STARTCHAR 201C
ENCODING 8220
SWIDTH 400 0
DWIDTH 10 0
BBX 7 5 2 13
BITMAP
22
44
88
88
CC
ENDCHAR
STARTCHAR 201D
ENCODING 8221
SWIDTH 400 0
DWIDTH 10 0
BBX 6 5 2 14
BITMAP
44
44
44
88
88
ENDCHAR
STARTCHAR 201E
ENCODING 8222
SWIDTH 400 0
DWIDTH 10 0
BBX 6 4 2 -2
BITMAP
CC
44
88
88
ENDCHAR
STARTCHAR 2020
ENCODING 8224
SWIDTH 560 0
DWIDTH 14 0
BBX 12 23 1 -4
BITMAP
0400
0400
0400
0400
0400
FFF0
0400
0400
0400
0400
0400
0400
0400
0400
0400
0400
0400
0400
0400
0400
0400
0400
0400
ENDCHAR
STARTCHAR 2021
ENCODING 8225
SWIDTH 560 0
DWIDTH 14 0
BBX 12 23 1 -4
BITMAP
0400
0400
0400
0400
0400
FFF0
0400
0400
0400
0400
0400
0400
0400
0400
0400
0400
0400
7FE0
0400
0400
0400
0400
0400
ENDCHAR
STARTCHAR 2022
ENCODING 8226
SWIDTH 320 0
DWIDTH 8 0
BBX 4 5 2 5
BITMAP
60
F0
F0
F0
20
ENDCHAR
STARTCHAR 2026
ENCODING 8230
SWIDTH 720 0
DWIDTH 18 0
BBX 14 1 2 0
BITMAP
C30C
ENDCHAR
STARTCHAR 2030
ENCODING 8240
SWIDTH 1240 0
DWIDTH 31 0
BBX 27 18 2 0
BITMAP
38000000
C4020000
82040000
82080000
82080000
82100000
82200000
82200000
84400000
788F87C0
01104840
01104820
02104820
04104820
04104820
08104820
10104820
100F87C0
ENDCHAR
STARTCHAR 2032
ENCODING 8242
SWIDTH 200 0
DWIDTH 5 0
BBX 2 7 2 10
BITMAP
40
80
80
80
80
80
80
ENDCHAR
STARTCHAR 2033
ENCODING 8243
SWIDTH 360 0
DWIDTH 9 0
BBX 5 7 2 10
BITMAP
48
88
88
88
88
90
90
ENDCHAR
STARTCHAR 2039
ENCODING 8249
SWIDTH 280 0
DWIDTH 7 0
BBX 5 9 1 3
BITMAP
08
10
20
40
80
80
40
20
18
ENDCHAR
STARTCHAR 203A
ENCODING 8250
SWIDTH 280 0
DWIDTH 7 0
BBX 5 9 1 3
BITMAP
80
40
20
10
08
08
10
20
C0
ENDCHAR
STARTCHAR 2044
ENCODING 8260
SWIDTH 120 0
DWIDTH 3 0
BBX 11 17 -4 0
BITMAP
0020
0040
0040
0080
0080
0100
0200
0200
0400
0800
0800
1000
2000
2000
4000
4000
8000
ENDCHAR
STARTCHAR 2070
ENCODING 8304
SWIDTH 360 0
DWIDTH 9 0
BBX 6 10 2 8
BITMAP
20
C8
84
84
84
84
84
84
88
70
ENDCHAR
STARTCHAR 2074
ENCODING 8308
SWIDTH 320 0
DWIDTH 8 0
BBX 8 8 0 8
BITMAP
0C
0C
14
24
44
44
FF
04
ENDCHAR
STARTCHAR 2075
ENCODING 8309
SWIDTH 320 0
DWIDTH 8 0
BBX 6 9 1 8
BITMAP
F8
80
80
B8
C4
04
04
84
78
ENDCHAR
STARTCHAR 2076
ENCODING 8310
SWIDTH 360 0
DWIDTH 9 0
BBX 7 9 1 8
BITMAP
10
20
40
B8
C4
82
82
84
78
ENDCHAR
STARTCHAR 2077
ENCODING 8311
SWIDTH 320 0
DWIDTH 8 0
BBX 6 9 1 8
BITMAP
FC
84
08
08
08
10
10
20
20
ENDCHAR
STARTCHAR 2078
ENCODING 8312
SWIDTH 360 0
DWIDTH 9 0
BBX 6 10 2 8
BITMAP
30
CC
84
84
88
F8
84
84
84
78
ENDCHAR
STARTCHAR 2079
ENCODING 8313
SWIDTH 360 0
DWIDTH 9 0
BBX 7 9 1 8
BITMAP
10
EC
84
82
84
4C
34
08
10
ENDCHAR
STARTCHAR 2080
ENCODING 8320
SWIDTH 360 0
DWIDTH 9 0
BBX 6 9 2 0
BITMAP
F8
84
84
84
84
84
84
84
78
ENDCHAR
STARTCHAR 2081
ENCODING 8321
SWIDTH 360 0
DWIDTH 9 0
BBX 6 9 1 0
BITMAP
30
50
90
10
10
10
10
10
7C
ENDCHAR
STARTCHAR 2082
ENCODING 8322
SWIDTH 320 0
DWIDTH 8 0
BBX 6 9 1 0
BITMAP
7C
84
04
04
08
10
20
40
FC
ENDCHAR
STARTCHAR 2083
ENCODING 8323
SWIDTH 320 0
DWIDTH 8 0
BBX 6 9 1 0
BITMAP
F8
04
04
08
18
04
04
04
78
ENDCHAR
STARTCHAR 2084
ENCODING 8324
SWIDTH 320 0
DWIDTH 8 0
BBX 8 8 0 0
BITMAP
04
0C
14
24
44
44
FF
04
ENDCHAR
STARTCHAR 2085
ENCODING 8325
SWIDTH 320 0
DWIDTH 8 0
BBX 6 9 1 0
BITMAP
F8
80
80
90
EC
04
04
04
78
ENDCHAR
STARTCHAR 2086
ENCODING 8326
SWIDTH 360 0
DWIDTH 9 0
BBX 7 9 1 0
BITMAP
10
20
40
90
6C
82
82
84
7C
ENDCHAR
STARTCHAR 2087
ENCODING 8327
SWIDTH 320 0
DWIDTH 8 0
BBX 6 9 1 0
BITMAP
FC
84
08
08
08
10
10
20
20
ENDCHAR
STARTCHAR 2088
ENCODING 8328
SWIDTH 360 0
DWIDTH 9 0
BBX 6 9 2 0
BITMAP
F8
84
84
88
78
84
84
84
F8
ENDCHAR
STARTCHAR 2089
ENCODING 8329
SWIDTH 360 0
DWIDTH 9 0
BBX 7 9 1 0
BITMAP
7C
84
82
82
44
3C
08
08
10
ENDCHAR
STARTCHAR 20A1
ENCODING 8353
SWIDTH 600 0
DWIDTH 15 0
BBX 12 21 2 -2
BITMAP
0480
0880
0880
1FC0
6920
8920
8900
8900
8900
8900
9100
9100
9200
9200
9200
9200
9210
5220
2240
2F80
2200
ENDCHAR
STARTCHAR 20A4
ENCODING 8356
SWIDTH 560 0
DWIDTH 14 0
BBX 11 18 2 0
BITMAP
0F00
30C0
4020
4000
8000
8000
8000
FF00
4000
4000
2000
FF00
2000
2000
2000
4000
4000
FFE0
ENDCHAR
STARTCHAR 20A6
ENCODING 8358
SWIDTH 640 0
DWIDTH 16 0
BBX 16 17 0 0
BITMAP
1004
2804
2804
2404
2404
2204
FFFF
2104
2084
2084
7F7E
2044
2024
2014
2014
200C
2004
ENDCHAR
STARTCHAR 20A8
ENCODING 8360
SWIDTH 680 0
DWIDTH 17 0
BBX 14 17 3 0
BITMAP
FC00
8400
8200
8200
8200
8238
8480
8480
F880
9040
8820
8810
8408
8204
8204
8104
80F8
ENDCHAR
STARTCHAR 20A9
ENCODING 8361
SWIDTH 880 0
DWIDTH 22 0
BBX 20 17 1 0
BITMAP
802010
806010
806010
409020
409020
409020
FFFFF0
210840
210840
210840
FFFFF0
120480
120480
120280
0C0300
0C0300
040100
ENDCHAR
STARTCHAR 20AA
ENCODING 8362
SWIDTH 760 0
DWIDTH 19 0
BBX 13 17 3 0
BITMAP
FF08
8088
8088
8888
8888
8888
8888
8888
8888
8888
8888
8888
8888
8888
8808
8808
8FF0
ENDCHAR
STARTCHAR 20AB
ENCODING 8363
SWIDTH 560 0
DWIDTH 14 0
BBX 11 18 2 1
BITMAP
0080
07E0
0080
0080
0C80
6380
8080
8080
8080
8080
8080
8080
8080
8080
4180
3E00
0000
FFC0
ENDCHAR
STARTCHAR 20AC
ENCODING 8364
SWIDTH 600 0
DWIDTH 15 0
BBX 12 18 2 0
BITMAP
0F00
30C0
4020
8020
8000
8000
8000
FE00
8000
8000
8000
FC00
8000
8000
8010
4020
2020
1FC0
ENDCHAR
STARTCHAR 20AD
ENCODING 8365
SWIDTH 560 0
DWIDTH 14 0
BBX 12 17 1 0
BITMAP
4030
4040
4040
4080
4100
4200
4400
4800
F7E0
4200
4200
4100
4080
4040
4040
4020
4010
ENDCHAR
STARTCHAR 20AE
ENCODING 8366
SWIDTH 560 0
DWIDTH 14 0
BBX 12 17 1 0
BITMAP
FFF0
0200
0200
0200
0200
02C0
0300
0E00
3200
02C0
0300
0E00
3200
0200
0200
0200
0200
ENDCHAR
STARTCHAR 20B1
ENCODING 8369
SWIDTH 600 0
DWIDTH 15 0
BBX 13 17 1 0
BITMAP
7FC0
4020
4020
FFD8
4010
4010
4010
FFF8
4020
4040
3F80
4000
4000
4000
4000
4000
4000
ENDCHAR
STARTCHAR 20B2
ENCODING 8370
SWIDTH 640 0
DWIDTH 16 0
BBX 12 21 2 -1
BITMAP
0100
0300
1DC0
6120
4210
8200
8200
8200
8200
8200
8200
85F0
8410
8410
8410
8410
4420
2820
1DC0
0A00
0800
ENDCHAR
STARTCHAR 20B4
ENCODING 8372
SWIDTH 600 0
DWIDTH 15 0
BBX 11 18 2 0
BITMAP
0E00
3180
4040
0040
0040
0040
0080
FFE0
0300
0C00
1000
EFE0
4000
8000
8000
4000
4040
3F80
ENDCHAR
STARTCHAR 20B5
ENCODING 8373
SWIDTH 600 0
DWIDTH 15 0
BBX 12 22 2 -2
BITMAP
0100
0100
0300
1EC0
6220
8220
8200
8200
8200
8200
8400
8400
8400
8400
8400
8400
8810
4820
2840
1D80
0A00
0800
ENDCHAR
STARTCHAR 20B8
ENCODING 8376
SWIDTH 600 0
DWIDTH 15 0
BBX 13 17 1 0
BITMAP
FFF8
0000
0000
FFF8
0200
0200
0200
0200
0200
0200
0200
0200
0200
0200
0200
0200
0200
ENDCHAR
STARTCHAR 20B9
ENCODING 8377
SWIDTH 600 0
DWIDTH 15 0
BBX 12 17 2 0
BITMAP
FFF0
0080
0080
0040
FFF0
0040
0080
0080
FF00
0800
0400
0200
0200
0100
0080
0040
0060
ENDCHAR
STARTCHAR 20BA
ENCODING 8378
SWIDTH 600 0
DWIDTH 15 0
BBX 13 17 1 0
BITMAP
2000
2000
2080
2300
2C00
3000
E080
2300
2C00
3008
E008
2008
2010
2010
2010
2020
3FC0
ENDCHAR
STARTCHAR 20BD
ENCODING 8381
SWIDTH 560 0
DWIDTH 14 0
BBX 14 17 0 0
BITMAP
3FF0
2008
2004
2004
2004
2004
2008
2008
FFF0
2000
2000
2000
FFC0
2000
2000
2000
2000
ENDCHAR
STARTCHAR 20BF
ENCODING 8383
SWIDTH 600 0
DWIDTH 15 0
BBX 10 21 3 -1
BITMAP
2400
2400
FF00
8080
8080
8040
8040
8040
8080
8300
FC80
8040
8040
8040
8040
8040
8040
8080
7F00
2400
2400
ENDCHAR
STARTCHAR 2113
ENCODING 8467
SWIDTH 440 0
DWIDTH 11 0
BBX 9 19 1 0
BITMAP
0C00
3200
2200
2100
2100
2200
2200
2200
2400
2400
2800
2800
3000
2000
E000
2000
2080
2080
1F00
ENDCHAR
STARTCHAR 2116
ENCODING 8470
SWIDTH 1000 0
DWIDTH 25 0
BBX 22 18 3 0
BITMAP
000060
801118
C01208
C01208
A01204
901208
901208
881108
8810F0
841000
8213F8
821000
811000
809000
809000
805000
805000
803000
ENDCHAR
STARTCHAR 2122
ENCODING 8482
SWIDTH 600 0
DWIDTH 15 0
BBX 12 6 2 11
BITMAP
E210
4330
4350
42D0
4210
4210
ENDCHAR
STARTCHAR 2126
ENCODING 8486
SWIDTH 680 0
DWIDTH 17 0
BBX 14 18 2 0
BITMAP
0780
1860
6010
4008
8008
8008
8008
8004
8004
8004
8008
8008
8008
8008
4010
2020
1040
F8F8
ENDCHAR
STARTCHAR 212E
ENCODING 8494
SWIDTH 680 0
DWIDTH 17 0
BBX 15 18 1 0
BITMAP
03C0
0C30
3008
4004
4004
8002
8002
8002
8002
FFFC
8000
8000
8000
4000
4000
2004
1008
0FF0
ENDCHAR
STARTCHAR 2150
ENCODING 8528
SWIDTH 840 0
DWIDTH 21 0
BBX 20 17 1 0
BITMAP
300100
500200
900200
100400
100800
100800
101000
102000
FE25F0
004020
008020
008040
010040
010040
020080
040080
040100
ENDCHAR
STARTCHAR 2151
ENCODING 8529
SWIDTH 880 0
DWIDTH 22 0
BBX 20 17 1 0
BITMAP
300100
500200
900200
100400
100800
100800
101000
102000
FE23E0
004410
008410
008410
010230
0101E0
020020
040040
040080
ENDCHAR
STARTCHAR 2153
ENCODING 8531
SWIDTH 880 0
DWIDTH 22 0
BBX 20 17 1 0
BITMAP
300100
500200
900200
100400
100800
100800
101000
102000
FE23E0
004020
008020
008020
0100E0
010020
020010
040020
0403E0
ENDCHAR
STARTCHAR 2154
ENCODING 8532
SWIDTH 840 0
DWIDTH 21 0
BBX 19 18 1 0
BITMAP
100000
CC0200
840400
040400
040800
080800
101000
202000
402000
FE47C0
008020
008020
010040
0201C0
020020
040020
040020
0803C0
ENDCHAR
STARTCHAR 2155
ENCODING 8533
SWIDTH 840 0
DWIDTH 21 0
BBX 20 17 1 0
BITMAP
300100
500200
900200
100400
100800
100800
101000
102000
FE27C0
004400
008400
008480
010360
010020
020010
040020
0403E0
ENDCHAR
STARTCHAR 2156
ENCODING 8534
SWIDTH 840 0
DWIDTH 21 0
BBX 19 18 1 0
BITMAP
100000
CC0200
840400
040400
040800
080800
101000
202000
402000
FE4780
008400
008400
010480
020640
020020
040020
040020
0807C0
ENDCHAR
STARTCHAR 2157
ENCODING 8535
SWIDTH 800 0
DWIDTH 20 0
BBX 19 18 1 0
BITMAP
100000
CC0200
040400
040400
080800
181000
041000
042000
844000
784780
008800
008800
010900
0206C0
020020
040020
080040
0807C0
ENDCHAR
STARTCHAR 2158
ENCODING 8536
SWIDTH 840 0
DWIDTH 21 0
BBX 20 17 0 0
BITMAP
0C0100
0C0100
140200
240400
440400
440800
FF1000
041000
0023E0
004200
004200
008200
010320
010010
020010
020010
0403E0
ENDCHAR
STARTCHAR 2159
ENCODING 8537
SWIDTH 840 0
DWIDTH 21 0
BBX 20 17 1 0
BITMAP
300100
500200
900200
100400
100800
100800
101000
102000
FE2080
004100
008200
008480
010360
010420
020410
040420
0403E0
ENDCHAR
STARTCHAR 215A
ENCODING 8538
SWIDTH 800 0
DWIDTH 20 0
BBX 19 17 1 0
BITMAP
F80200
800400
800800
B80800
C41000
041000
042000
844000
784100
008200
010400
010900
020EC0
040840
040820
080840
0807C0
ENDCHAR
STARTCHAR 215B
ENCODING 8539
SWIDTH 920 0
DWIDTH 23 0
BBX 21 17 1 0
BITMAP
300100
500200
900200
100400
100800
100800
101000
102000
FE23F0
004210
008210
008210
0101E0
010210
020408
040410
0403F0
ENDCHAR
STARTCHAR 215C
ENCODING 8540
SWIDTH 880 0
DWIDTH 22 0
BBX 20 18 1 0
BITMAP
100000
CC0200
040400
040400
080800
181000
041000
042000
844000
7847E0
008420
008420
010420
0203C0
020420
040810
080410
0803E0
ENDCHAR
STARTCHAR 215D
ENCODING 8541
SWIDTH 880 0
DWIDTH 22 0
BBX 20 17 1 0
BITMAP
F80200
800400
800800
B80800
C41000
041000
042000
844000
7847E0
008420
010420
010420
0203C0
040C20
040810
080820
0807E0
ENDCHAR
STARTCHAR 215E
ENCODING 8542
SWIDTH 840 0
DWIDTH 21 0
BBX 19 17 1 0
BITMAP
FC0400
840400
080800
081000
081000
102000
104000
204000
2087C0
010820
010820
020440
0203C0
040C20
080820
080820
1007C0
ENDCHAR
STARTCHAR 2190
ENCODING 8592
SWIDTH 720 0
DWIDTH 18 0
BBX 17 9 1 4
BITMAP
100000
200000
400000
800000
FFFF80
800000
400000
200000
100000
ENDCHAR
STARTCHAR 2191
ENCODING 8593
SWIDTH 720 0
DWIDTH 18 0
BBX 9 18 5 0
BITMAP
0800
1C00
2A00
4900
8880
0800
0800
0800
0800
0800
0800
0800
0800
0800
0800
0800
0800
0800
ENDCHAR
STARTCHAR 2192
ENCODING 8594
SWIDTH 720 0
DWIDTH 18 0
BBX 18 9 0 4
BITMAP
000400
000200
000100
000080
FFFFC0
000080
000100
000200
000400
ENDCHAR
STARTCHAR 2193
ENCODING 8595
SWIDTH 720 0
DWIDTH 18 0
BBX 9 17 5 0
BITMAP
0800
0800
0800
0800
0800
0800
0800
0800
0800
0800
0800
0800
0880
8900
4A00
2C00
1800
ENDCHAR
STARTCHAR 2194
ENCODING 8596
SWIDTH 720 0
DWIDTH 18 0
BBX 17 9 1 4
BITMAP
100800
200400
400200
800100
FFFF80
800100
400200
200400
100800
ENDCHAR
STARTCHAR 2195
ENCODING 8597
SWIDTH 720 0
DWIDTH 18 0
BBX 9 18 5 0
BITMAP
0800
1C00
2A00
4900
8880
0800
0800
0800
0800
0800
0800
0800
0800
0880
8900
4A00
2C00
1800
ENDCHAR
STARTCHAR 2196
ENCODING 8598
SWIDTH 720 0
DWIDTH 18 0
BBX 13 12 3 3
BITMAP
FC00
A000
9000
8800
8400
8200
0100
0080
0040
0020
0010
0008
ENDCHAR
STARTCHAR 2197
ENCODING 8599
SWIDTH 720 0
DWIDTH 18 0
BBX 12 12 3 3
BITMAP
03F0
0030
0050
0090
0110
0210
0400
0800
1000
2000
4000
8000
ENDCHAR
STARTCHAR 2198
ENCODING 8600
SWIDTH 720 0
DWIDTH 18 0
BBX 12 12 3 3
BITMAP
8000
4000
2000
1000
0800
0400
0210
0110
0090
0050
0030
03F0
ENDCHAR
STARTCHAR 2199
ENCODING 8601
SWIDTH 720 0
DWIDTH 18 0
BBX 13 12 3 3
BITMAP
0008
0010
0020
0040
0080
0100
8200
8400
8800
9000
A000
FC00
ENDCHAR
STARTCHAR 21A9
ENCODING 8617
SWIDTH 720 0
DWIDTH 18 0
BBX 18 12 0 2
BITMAP
000300
000080
000040
000040
080040
100040
200080
400080
BFFF00
600000
100000
080000
ENDCHAR
STARTCHAR 21AA
ENCODING 8618
SWIDTH 720 0
DWIDTH 18 0
BBX 18 13 0 2
BITMAP
300000
400000
800000
800400
800200
800100
400080
200040
1FFFC0
000080
000100
000200
000400
ENDCHAR
STARTCHAR 21B0
ENCODING 8624
SWIDTH 720 0
DWIDTH 18 0
BBX 12 17 2 1
BITMAP
1000
2000
4000
8000
7FF0
2010
1010
0810
0010
0010
0010
0010
0010
0010
0010
0010
0010
ENDCHAR
STARTCHAR 21B1
ENCODING 8625
SWIDTH 720 0
DWIDTH 18 0
BBX 12 18 4 0
BITMAP
0100
0080
0040
0020
0010
FFF0
8020
8040
8080
8000
8000
8000
8000
8000
8000
8000
8000
8000
ENDCHAR
STARTCHAR 21B2
ENCODING 8626
SWIDTH 720 0
DWIDTH 18 0
BBX 12 17 2 0
BITMAP
0010
0010
0010
0010
0010
0010
0010
0010
0810
1010
2010
4010
FFF0
4000
2000
1000
0800
ENDCHAR
STARTCHAR 21B3
ENCODING 8627
SWIDTH 720 0
DWIDTH 18 0
BBX 12 17 4 0
BITMAP
8000
8000
8000
8000
8000
8000
8000
8000
8100
8080
8040
8020
FFF0
0020
0040
0080
0100
ENDCHAR
STARTCHAR 21B6
ENCODING 8630
SWIDTH 800 0
DWIDTH 20 0
BBX 18 16 1 1
BITMAP
001000
01EE00
020100
040080
080040
080040
080040
080040
080000
080000
080000
888000
490000
2A0000
1C0000
080000
ENDCHAR
STARTCHAR 21B7
ENCODING 8631
SWIDTH 800 0
DWIDTH 20 0
BBX 18 15 1 2
BITMAP
1FE000
401000
400800
800800
800400
800400
800400
000400
000400
000400
004440
002480
001500
000A00
000400
ENDCHAR
STARTCHAR 21BA
ENCODING 8634
SWIDTH 760 0
DWIDTH 19 0
BBX 16 17 2 0
BITMAP
00FC
00A0
0090
3088
4084
8082
8002
8002
8001
8001
8001
8002
8002
8002
4004
2008
1FF0
ENDCHAR
STARTCHAR 21BB
ENCODING 8635
SWIDTH 760 0
DWIDTH 19 0
BBX 16 17 2 0
BITMAP
7E00
0E00
1200
2208
4204
8202
8002
8002
8001
8001
8001
8002
8002
8002
4004
2008
1FF0
ENDCHAR
STARTCHAR 21C4
ENCODING 8644
SWIDTH 720 0
DWIDTH 18 0
BBX 17 18 1 0
BITMAP
000800
000400
000200
000100
000080
FFFF80
000100
000200
000400
100800
200000
400000
800000
FFFF80
800000
400000
200000
100000
ENDCHAR
STARTCHAR 21C6
ENCODING 8646
SWIDTH 720 0
DWIDTH 18 0
BBX 18 17 0 1
BITMAP
080000
100000
200000
400000
7FFFC0
200000
100000
080000
000400
000200
000100
000080
FFFFC0
000080
000100
000200
000400
ENDCHAR
STARTCHAR 2202
ENCODING 8706
SWIDTH 560 0
DWIDTH 14 0
BBX 10 17 2 0
BITMAP
1800
0400
0200
0100
0480
3380
4040
8040
8040
8040
8040
8040
8040
8040
8040
4080
3F00
ENDCHAR
STARTCHAR 2206
ENCODING 8710
SWIDTH 600 0
DWIDTH 15 0
BBX 13 17 1 0
BITMAP
0600
0500
0500
0900
0880
0880
1080
1040
2040
2040
2020
4020
4010
4010
8010
8008
FFF8
ENDCHAR
STARTCHAR 220F
ENCODING 8719
SWIDTH 680 0
DWIDTH 17 0
BBX 13 22 2 -5
BITMAP
FFF8
4010
4010
4010
4010
4010
4010
4010
4010
4010
4010
4010
4010
4010
4010
4010
4010
4010
4010
4010
4010
4010
ENDCHAR
STARTCHAR 2211
ENCODING 8721
SWIDTH 480 0
DWIDTH 12 0
BBX 11 22 0 -5
BITMAP
FFE0
4000
2000
1000
1000
0800
0400
0400
0200
0100
0100
0100
0200
0200
0400
0800
0800
1000
2000
4000
4000
FFE0
ENDCHAR
STARTCHAR 2212
ENCODING 8722
SWIDTH 600 0
DWIDTH 15 0
BBX 11 1 2 7
BITMAP
FFE0
ENDCHAR
STARTCHAR 221A
ENCODING 8730
SWIDTH 600 0
DWIDTH 15 0
BBX 12 17 1 0
BITMAP
0010
0010
0020
0020
E020
2020
1040
1040
1040
0880
0880
0880
0900
0500
0500
0600
0200
ENDCHAR
STARTCHAR 221E
ENCODING 8734
SWIDTH 720 0
DWIDTH 18 0
BBX 17 9 1 3
BITMAP
7C3E00
824100
818100
808080
810080
818080
828100
824100
7C3E00
ENDCHAR
STARTCHAR 222B
ENCODING 8747
SWIDTH 320 0
DWIDTH 8 0
BBX 6 24 2 -5
BITMAP
1C
20
20
20
20
20
20
20
20
20
20
20
20
20
20
20
20
20
20
20
20
20
20
E0
ENDCHAR
STARTCHAR 2248
ENCODING 8776
SWIDTH 600 0
DWIDTH 15 0
BBX 11 7 2 4
BITMAP
7000
8E20
01C0
0000
7000
8C00
02A0
ENDCHAR
STARTCHAR 2260
ENCODING 8800
SWIDTH 600 0
DWIDTH 15 0
BBX 11 11 2 2
BITMAP
0080
0100
0100
7EC0
0400
0400
0800
FFE0
1000
2000
2000
ENDCHAR
STARTCHAR 2264
ENCODING 8804
SWIDTH 600 0
DWIDTH 15 0
BBX 11 15 2 0
BITMAP
0020
0040
0180
0600
1800
6000
8000
6000
1800
0400
0300
00C0
0000
0000
7FC0
ENDCHAR
STARTCHAR 2265
ENCODING 8805
SWIDTH 600 0
DWIDTH 15 0
BBX 11 15 2 0
BITMAP
8000
6000
1000
0C00
0300
00C0
0020
00C0
0300
0400
1800
6000
0000
0000
7FC0
ENDCHAR
STARTCHAR 25CA
ENCODING 9674
SWIDTH 600 0
DWIDTH 15 0
BBX 12 17 1 0
BITMAP
0600
0500
0880
1080
1040
2020
4020
4010
8010
4010
6020
2040
1040
1080
0900
0500
0600
ENDCHAR
STARTCHAR 2713
ENCODING 10003
SWIDTH 880 0
DWIDTH 22 0
BBX 16 17 3 0
BITMAP
0001
0001
0002
0004
0004
8008
4008
4010
2010
2020
1020
1040
0840
0880
0480
0500
0300
ENDCHAR
STARTCHAR 274C
ENCODING 10060
SWIDTH 880 0
DWIDTH 22 0
BBX 15 15 4 2
BITMAP
8002
4004
2008
1010
0820
0440
0280
0100
0280
0440
0820
1010
2008
4004
8002
ENDCHAR
STARTCHAR 2B0E
ENCODING 11022
SWIDTH 720 0
DWIDTH 18 0
BBX 17 11 1 3
BITMAP
FFF800
000800
000800
000800
000800
000800
000800
008880
004900
002A00
001C00
ENDCHAR
STARTCHAR 2B0F
ENCODING 11023
SWIDTH 720 0
DWIDTH 18 0
BBX 17 12 1 4
BITMAP
000800
001C00
002A00
004900
008880
000800
000800
000800
000800
000800
000800
FFF800
ENDCHAR
STARTCHAR 2B10
ENCODING 11024
SWIDTH 720 0
DWIDTH 18 0
BBX 17 11 1 3
BITMAP
1FFF80
100000
100000
100000
100000
100000
108000
910000
520000
340000
180000
ENDCHAR
STARTCHAR 2B11
ENCODING 11025
SWIDTH 720 0
DWIDTH 18 0
BBX 17 11 1 5
BITMAP
180000
340000
520000
910000
100000
100000
100000
100000
100000
100000
1FFF80
ENDCHAR
STARTCHAR ECE0
ENCODING 60640
SWIDTH 1160 0
DWIDTH 29 0
BBX 25 18 2 0
BITMAP
01C00380
0FC00F80
1FC03F80
3C007800
7000F000
F000E000
E000C000
E001C000
C001FE00
C001FE00
C001FE00
E001C000
E000E000
7000E000
78007000
3E003E00
1FC01F80
07C00F80
ENDCHAR
STARTCHAR EFCC
ENCODING 61388
SWIDTH 1040 0
DWIDTH 26 0
BBX 22 18 3 0
BITMAP
000700
FE3FE0
C0F0F0
C1C038
C18F18
C31FC0
C338C0
C27000
FE6000
FE6000
C66000
C33040
C33FC0
C39F80
C1C01C
C0E038
C07FF0
801FC0
ENDCHAR
STARTCHAR F6D7
ENCODING 63191
SWIDTH 0 0
DWIDTH 0 0
BBX 6 5 -3 17
BITMAP
04
08
10
00
84
ENDCHAR
STARTCHAR F6D8
ENCODING 63192
SWIDTH 0 0
DWIDTH 0 0
BBX 6 5 -3 17
BITMAP
80
40
20
00
84
ENDCHAR
STARTCHAR FB01
ENCODING 64257
SWIDTH 480 0
DWIDTH 12 0
BBX 9 19 1 0
BITMAP
1C00
2080
2000
2000
2000
2000
FF80
2080
2080
2080
2080
2080
2080
2080
2080
2080
2080
2080
2080
ENDCHAR
STARTCHAR FB02
ENCODING 64258
SWIDTH 520 0
DWIDTH 13 0
BBX 9 19 1 0
BITMAP
1C00
2080
2080
2080
2080
2080
FC80
2080
2080
2080
2080
2080
2080
2080
2080
2080
2080
2080
2080
ENDCHAR
ENDFONT
